<svg xmlns="http://www.w3.org/2000/svg" xmlns:xlink="http://www.w3.org/1999/xlink" width="56" height="56" viewBox="0 0 56 56"><defs><clipPath id="a"><circle cx="28" cy="28" r="28" transform="translate(1345 596)" fill="#00ce68"/></clipPath></defs><g transform="translate(-1345 -596)" clip-path="url(#a)"><circle cx="28" cy="28" r="28" transform="translate(1345 596)" fill="#00ce68"/><g transform="translate(1290.478 600.502)"><path d="M64.44,288.914V278.109a7.566,7.566,0,0,1,4.1-6.73L76.1,267.5a7.541,7.541,0,0,1,3.447-.834H85.5a7.541,7.541,0,0,1,3.447.834l7.554,3.882a7.566,7.566,0,0,1,4.1,6.73v10.806a.945.945,0,0,1-.944.946H65.384A.945.945,0,0,1,64.44,288.914Z" transform="translate(0 -238.362)" fill="#f9f7f8"/><path d="M187.946,267.5a7.565,7.565,0,0,1,3.453-.834h5.964a7.564,7.564,0,0,1,3.453.834l-6.435,21.842Z" transform="translate(-111.858 -238.362)" fill="#a4aed3"/><path d="M205.139,220.138h9.618v7.654h-9.618Z" transform="translate(-127.426 -196.197)" fill="#efc7a4"/><path d="M205.139,222.8a8.346,8.346,0,0,0,1.386,1.256,6.024,6.024,0,0,0,3.516,1.133h1.214a6.023,6.023,0,0,0,3.5-1.122v-3.926h-9.618Z" transform="translate(-127.426 -196.194)" fill="#dbab8a"/><path d="M124.95,439.406a.331.331,0,0,1-.33-.331v-6.919a.33.33,0,1,1,.66,0v6.919a.331.331,0,0,1-.33.331Zm24.124,0a.331.331,0,0,1-.33-.331v-6.919a.33.33,0,1,1,.66,0v6.919a.331.331,0,0,1-.33.331Z" transform="translate(-54.49 -387.908)" fill="#e3e6e9"/><path d="M232.221,330.638l.925-14.187h2.742l.83,14.187-2.248,3.971Z" transform="translate(-151.947 -283.443)" fill="#e50523"/><path d="M235.358,303.2l-1.8,1.8a.861.861,0,0,1-1.217,0l-1.8-1.8,2.407-2.119Z" transform="translate(-150.429 -269.499)" fill="#ff405c"/><path d="M204.769,266.663l-4.809,3.254,2.24,2.4a1.418,1.418,0,0,0,2.234-.2l1.378-4.241Zm-9.618,0,4.809,3.254-2.24,2.4a1.418,1.418,0,0,1-2.234-.2l-1.378-4.241Z" transform="translate(-117.438 -238.33)" fill="#4b6b9c"/><path d="M191.238,86.767v.156a8.351,8.351,0,0,1-3.476,6.781,6.023,6.023,0,0,1-3.516,1.133h-1.214a6.024,6.024,0,0,1-3.516-1.133,8.351,8.351,0,0,1-3.476-6.78V85.066l.662-.9-.662-1.85,3.705-4.438,11.493,2.6-.662,2.187.662,2.4Z" transform="translate(-101.077 -67.344)" fill="#efc7a4"/><path d="M240.366,177.854a3.491,3.491,0,0,1-1.486-.334.331.331,0,1,1,.283-.6,2.808,2.808,0,0,0,2.406,0,.331.331,0,1,1,.283.6,3.494,3.494,0,0,1-1.476.334Zm1.2-4.277v.586a1.2,1.2,0,0,1-1.2,1.2h0a1.2,1.2,0,0,1-1.2-1.2v-.586a.189.189,0,0,1,.189-.189h2.024A.189.189,0,0,1,241.567,173.577Z" transform="translate(-157.805 -153.856)" fill="#dbab8a"/><path d="M257.206,289.86l7.353-14.688a.473.473,0,0,0-.088-.546l-1.432-1.432a.473.473,0,0,1,.141-.766l1.689-.756a.473.473,0,0,0,.2-.7l-1.832-2.727-3.093-1.587-4.879,23.2Z" transform="translate(-172.822 -238.362)" fill="#e3e6e9"/><path d="M160.52,289.86,153.2,275.172a.473.473,0,0,1,.088-.547l1.431-1.431a.473.473,0,0,0-.141-.766l-1.646-.736a.473.473,0,0,1-.177-.725l2.416-3.049,2.445-1.254,4.879,23.2Z" transform="translate(-79.887 -238.362)" fill="#e3e6e9"/><path d="M177.549,51.835a1.51,1.51,0,0,0-1.51,1.51v8.143h.765a.558.558,0,0,0,.558-.558V58.6a1.183,1.183,0,0,1,.461-.937,4.947,4.947,0,0,0,1.892-3.32l.306-2.509Z" transform="translate(-101.067 -43.767)" fill="#424852"/><path d="M364.468,296.229a10.507,10.507,0,0,1,2.547,5.279,10.1,10.1,0,0,1,.025,3.009.331.331,0,1,0,.655.092,10.759,10.759,0,0,0-.027-3.206,10.928,10.928,0,0,0-1.817-4.478l-1.4-.717c.005.007.009.014.015.021Z" transform="translate(-271.706 -265.09)" fill="#39537a"/><circle cx="2.107" cy="2.107" r="2.107" transform="translate(93.665 38.804)" fill="#253751"/><path d="M115.953,306.291h.031a.331.331,0,0,0,.3-.36,9.8,9.8,0,0,1,1.73-6.533l-1.142.586a10.449,10.449,0,0,0-1.247,6.008A.331.331,0,0,0,115.953,306.291Z" transform="translate(-46.303 -267.975)" fill="#39537a"/><path d="M98.467,44.075a.331.331,0,0,1-.325-.27l-.572-3.037a2.639,2.639,0,1,1,5.187-.977l.572,3.037a.331.331,0,0,1-.264.386l-1.019.192a.331.331,0,1,1-.123-.65l.694-.131-.511-2.712a1.977,1.977,0,1,0-3.886.732l.511,2.712.694-.131a.331.331,0,1,1,.123.65l-1.019.192a.331.331,0,0,1-.061.006ZM120.146,7.841A4.343,4.343,0,0,0,115.8,3.5H104.649a.561.561,0,0,0-.535.73l.837,2.649a8.018,8.018,0,0,0,7.646,5.6h3.1a4.478,4.478,0,0,1,2.646.865,1.18,1.18,0,0,1,.479.953v2.865a.558.558,0,0,0,.559.558h.765V15.316h0Z" transform="translate(-29.955 0)" fill="#253751"/><path d="M170.007,130.4v-3.881h.54a1.667,1.667,0,0,1,1.665,1.67A2.208,2.208,0,0,1,170.007,130.4Zm-15.152,0a2.208,2.208,0,0,1-2.2-2.212,1.667,1.667,0,0,1,1.665-1.67h.54Z" transform="translate(-79.87 -111.408)" fill="#efc7a4"/><path d="M215.5,125.457a.33.33,0,0,1-.125-.025,2.6,2.6,0,0,0-1.044-.193,2.569,2.569,0,0,0-.914.193.331.331,0,0,1-.251-.612,3.235,3.235,0,0,1,2.46,0,.331.331,0,0,1-.126.637Zm-1.1,1.674a.331.331,0,0,1-.331-.331v-.7a.331.331,0,0,1,.662,0v.7A.331.331,0,0,1,214.392,127.131Zm-5.489-1.674a.33.33,0,0,1-.125-.025,2.573,2.573,0,0,0-1.958,0,.331.331,0,1,1-.251-.612,3.235,3.235,0,0,1,2.46,0,.331.331,0,0,1-.126.637Zm-1.1,1.674a.331.331,0,0,1-.331-.331v-.7a.331.331,0,0,1,.662,0v.7A.331.331,0,0,1,207.8,127.131Z" transform="translate(-128.534 -109.651)" fill="#253751"/></g></g></svg>