<svg xmlns="http://www.w3.org/2000/svg" xmlns:xlink="http://www.w3.org/1999/xlink" width="120" height="120" viewBox="0 0 120 120"><defs><clipPath id="a"><circle cx="60" cy="60" r="60" transform="translate(656 148)" fill="#ece2fe"/></clipPath></defs><g transform="translate(-656 -148)"><g clip-path="url(#a)"><text transform="translate(768 291)" fill="#171725" font-size="24" font-family="Montserrat-Arabic-Bold, Montserrat-Arabic" font-weight="700"><tspan x="-94.584" y="0">شكرا لك</tspan></text><circle cx="60" cy="60" r="60" transform="translate(656 148)" fill="#f8f9fa"/><circle cx="34" cy="34" r="34" transform="translate(642 139)" fill="#dfdffc"/><rect width="61" height="60" transform="translate(721 215)" fill="#dfdffc"/><circle cx="60" cy="60" r="60" transform="translate(656 148)" fill="#ece2fe"/><g transform="translate(641.144 178.514)"><rect width="93" height="64" rx="12" transform="translate(-0.144 0.486)" fill="#253751"/><path d="M5388.034,526.571a8.526,8.526,0,0,0,9.354,0l36.838-24.148a8.536,8.536,0,0,0-4.686-15.673h-73.658a8.537,8.537,0,0,0-4.686,15.673Z" transform="translate(-5344.995 -486.75)" fill="#4b6b9c"/><rect width="31" height="3" rx="1.5" transform="translate(32.856 13.486)" fill="#fff"/><rect width="19" height="2" rx="1" transform="translate(38.856 19.486)" fill="#cecffa"/></g></g><g transform="translate(638 139)"><path d="M16,0A16,16,0,1,1,0,16,16,16,0,0,1,16,0Z" transform="translate(99 9)" fill="#00ce68"/><g transform="translate(109 21)"><path d="M12.3.263a.9.9,0,0,1,0,1.269L5.121,8.71a.9.9,0,0,1-1.269,0L.263,5.121A.9.9,0,0,1,1.532,3.852L4.486,6.807,11.03.263A.9.9,0,0,1,12.3.263Z" fill="#fff"/></g></g></g></svg>