<svg xmlns="http://www.w3.org/2000/svg" width="53.209" height="48" viewBox="0 0 53.209 48"><g transform="translate(7.673)"><path d="M456.907,353.927a3.245,3.245,0,0,1-2.548-1.226c-5.858-7.335-12.947-16.24-13.447-17-.218-.33-.428-.674-.626-1.02a2.937,2.937,0,0,1,.005-2.957,2.907,2.907,0,0,1,2.54-1.464h3.04a2.938,2.938,0,0,1,2.509,1.413,3.736,3.736,0,0,0,3.305,1.638h8.935a7.149,7.149,0,0,0,3.166-5.408,4,4,0,0,0-.727-2.833,2.38,2.38,0,0,0-1.687-.65h-3.828a2.742,2.742,0,0,1-2.445-1.2,2.838,2.838,0,0,1-.006-2.824l.03-.059.755-1.357a2.652,2.652,0,0,0,0-3l-4.613,6.844a3.616,3.616,0,0,1-3,1.6H441.14a2.935,2.935,0,0,1-2.312-1.118,2.9,2.9,0,0,1-.559-2.47,19.182,19.182,0,0,1,5.075-9.206l.1-.1a19,19,0,0,1,26.942,0l.1.1a19.221,19.221,0,0,1,2.478,24.006c-.077.117-.308.474-13.5,17.063a3.246,3.246,0,0,1-2.551,1.233Zm-14.075-20.836a.094.094,0,0,0-.093.053.121.121,0,0,0,0,.131c.169.294.348.586.533.867.381.565,5.475,7,13.295,16.79a.43.43,0,0,0,.338.163h0a.43.43,0,0,0,.341-.166c7.863-9.891,12.964-16.336,13.352-16.866a16.383,16.383,0,0,0-2.125-20.439l-.1-.1a16.171,16.171,0,0,0-22.936,0l-.1.1a16.35,16.35,0,0,0-4.322,7.85.067.067,0,0,0,.019.066.118.118,0,0,0,.1.048h7.131a.789.789,0,0,0,.655-.349l4.711-6.989a2.688,2.688,0,0,1,4.129-.4,5.29,5.29,0,0,1,.575,6.533l-.672,1.206h3.7a5.224,5.224,0,0,1,3.729,1.522,6.439,6.439,0,0,1,1.511,4.914c-.2,4.691-4.175,8.118-5.8,8.118h-9.125a6.494,6.494,0,0,1-5.711-2.981.133.133,0,0,0-.1-.07Zm17.7.259Z" transform="translate(-438.194 -305.927)" fill="#ff9f2d"/></g><path d="M472.617,336.439l-.157.208a.119.119,0,0,0,.084.19c4.525.468,7.368,1.143,7.368,1.893,0,1.408-10.088,2.552-22.528,2.552s-22.528-1.143-22.528-2.552c0-.714,2.563-1.358,6.7-1.821a.12.12,0,0,0,.083-.191l-.155-.2a.119.119,0,0,0-.109-.046c-6.433.726-10.59,1.885-10.59,3.188,0,2.209,11.911,4,26.6,4s26.605-1.788,26.605-4c0-1.347-4.45-2.538-11.262-3.265A.122.122,0,0,0,472.617,336.439Z" transform="translate(-430.779 -304.817)" fill="#00ce68"/></svg>