<svg xmlns="http://www.w3.org/2000/svg" xmlns:xlink="http://www.w3.org/1999/xlink" width="120" height="120" viewBox="0 0 120 120"><defs><clipPath id="a"><circle cx="60" cy="60" r="60" transform="translate(663.438 312.438)" fill="#ece2fe"/></clipPath><clipPath id="b"><circle cx="10" cy="10" r="10" transform="translate(0.17 0.469)" fill="#ece2fe"/></clipPath></defs><g transform="translate(-642 -291)"><g transform="translate(-21.438 -21.438)" clip-path="url(#a)"><circle cx="60" cy="60" r="60" transform="translate(663.438 312.438)" fill="#ece2fe"/><ellipse cx="35" cy="34" rx="35" ry="34" transform="translate(648.438 303.438)" fill="#c8d6ea"/><rect width="61" height="59" transform="translate(728.438 380.438)" fill="#c8d6ea"/><g transform="translate(684.185 344.596)"><rect width="78" height="88" rx="12" transform="translate(0.253 -0.158)" fill="#fff"/><rect width="38" height="10" rx="5" transform="translate(20.253 65.842)" fill="#253751"/><rect width="17" height="4" rx="2" transform="translate(8.253 37.842)" fill="#ece2fe"/><rect width="17" height="4" rx="2" transform="translate(54.253 37.842)" fill="#e3e6e9"/><rect width="11" height="5" rx="2.5" transform="translate(60.253 43.842)" fill="#e3e6e9"/><rect width="25" height="4" rx="2" transform="translate(46.253 50.842)" fill="#e3e6e9"/><rect width="28" height="5" rx="2.5" transform="translate(8.253 43.842)" fill="#ece2fe"/><rect width="12" height="4" rx="2" transform="translate(8.253 50.842)" fill="#ece2fe"/><g transform="translate(30.083 10.373)" clip-path="url(#b)"><circle cx="10" cy="10" r="10" transform="translate(0.17 0.469)" fill="#ece2fe"/><path d="M6.357,0l6.357,11.967H0Z" transform="translate(7.202 11.013)" fill="#4b6b9c"/><path d="M9.536,0l9.536,17.95H0Z" transform="translate(-1.698 7.423)" fill="#253751"/></g></g></g><g transform="translate(624 282)"><path d="M16,0A16,16,0,1,1,0,16,16,16,0,0,1,16,0Z" transform="translate(99 9)" fill="#ff4040"/><g transform="translate(-643 -429)"><g transform="translate(748 444)"><path d="M0,4.334v7.993A4.027,4.027,0,0,0,4.329,16.67H6.485a4.025,4.025,0,0,0,4.329-4.334v-8A4.015,4.015,0,0,0,6.493,0H4.329A4.025,4.025,0,0,0,0,4.334Z" transform="translate(7.513 1.665)" fill="#fff" opacity="0.4"/><path d="M2.97.187.181,2.976a.628.628,0,0,0,0,.882L2.97,6.647a.624.624,0,1,0,.882-.882L2.129,4.042h8.9a.624.624,0,1,0,0-1.249h-8.9L3.852,1.07A.617.617,0,0,0,4.035.629.6.6,0,0,0,3.852.187.613.613,0,0,0,2.97.187Z" transform="translate(1.667 6.583)" fill="#fff"/><path d="M0,0H20V20H0Z" fill="none" opacity="0"/></g></g></g></g></svg>