<svg xmlns="http://www.w3.org/2000/svg" xmlns:xlink="http://www.w3.org/1999/xlink" width="180" height="180" viewBox="0 0 180 180"><defs><clipPath id="a"><path d="M0-47.5H180v180H0Z" transform="translate(0 0)"/></clipPath></defs><g transform="translate(0 47.5)" clip-path="url(#a)"><path d="M114.934,1.118a9.474,9.474,0,0,1-9.474,9.474H67.566a9.474,9.474,0,0,1-9.474-9.474V-36.776a9.474,9.474,0,0,1,9.474-9.474h37.895a9.474,9.474,0,0,1,9.474,9.474ZM1.25,20.066V114.8a9.474,9.474,0,0,0,9.474,9.474H162.3a9.474,9.474,0,0,0,9.474-9.474V20.066Z" transform="translate(3.487 3.487)" fill="#ece2fe"/><path d="M86.513-31.25H10.724A9.474,9.474,0,0,0,1.25-21.776H95.987a9.474,9.474,0,0,0-9.474-9.474" transform="translate(3.487 45.329)" fill="#253751"/><path d="M106.513-31.25H30.724a9.474,9.474,0,0,0-9.474,9.474h94.737a9.474,9.474,0,0,0-9.474-9.474" transform="translate(59.276 45.329)" fill="#253751"/><path d="M155.329,21.118H3.75V2.171H155.329Zm0-28.421H3.75V-26.25H155.329Zm0,56.842H3.75V30.592H155.329Z" transform="translate(10.461 59.276)" fill="#0099be"/><path d="M105.987,82.434H11.25V-31.25h94.737Z" transform="translate(31.382 45.329)" fill="#adf1ff"/><path d="M89.539,18.618H13.75V-.329H89.539Zm0-28.421H13.75V-28.75H89.539Zm0,56.842H13.75V28.092H89.539Z" transform="translate(38.355 52.303)" fill="#0099be"/><path d="M64.868,12.7H17.5V-6.25H64.868Z" transform="translate(48.816 115.066)" fill="#0099be"/><path d="M56.645-30.789H42.434V-45H32.961v14.211H18.75v9.474H32.961V-7.105h9.474V-21.316H56.645Z" transform="translate(52.303 6.974)" fill="#ff7386"/><path d="M96.513-33.75H20.724a9.474,9.474,0,0,0-9.474,9.474h94.737a9.474,9.474,0,0,0-9.474-9.474" transform="translate(31.382 38.355)" fill="#253751"/></g></svg>