<svg xmlns="http://www.w3.org/2000/svg" width="213.331" height="48" viewBox="0 0 213.331 48"><g transform="translate(-277.4 -305.927)"><g transform="translate(437.522 305.927)"><g transform="translate(7.673)"><path d="M456.907,353.927a3.245,3.245,0,0,1-2.548-1.226c-5.858-7.335-12.947-16.24-13.447-17-.218-.33-.428-.674-.626-1.02a2.937,2.937,0,0,1,.005-2.957,2.907,2.907,0,0,1,2.54-1.464h3.04a2.938,2.938,0,0,1,2.509,1.413,3.736,3.736,0,0,0,3.305,1.638h8.935a7.149,7.149,0,0,0,3.166-5.408,4,4,0,0,0-.727-2.833,2.38,2.38,0,0,0-1.687-.65h-3.828a2.742,2.742,0,0,1-2.445-1.2,2.838,2.838,0,0,1-.006-2.824l.03-.059.755-1.357a2.652,2.652,0,0,0,0-3l-4.613,6.844a3.616,3.616,0,0,1-3,1.6H441.14a2.935,2.935,0,0,1-2.312-1.118,2.9,2.9,0,0,1-.559-2.47,19.182,19.182,0,0,1,5.075-9.206l.1-.1a19,19,0,0,1,26.942,0l.1.1a19.221,19.221,0,0,1,2.478,24.006c-.077.117-.308.474-13.5,17.063a3.246,3.246,0,0,1-2.551,1.233Zm-14.075-20.836a.094.094,0,0,0-.093.053.121.121,0,0,0,0,.131c.169.294.348.586.533.867.381.565,5.475,7,13.295,16.79a.43.43,0,0,0,.338.163h0a.43.43,0,0,0,.341-.166c7.863-9.891,12.964-16.336,13.352-16.866a16.383,16.383,0,0,0-2.125-20.439l-.1-.1a16.171,16.171,0,0,0-22.936,0l-.1.1a16.35,16.35,0,0,0-4.322,7.85.067.067,0,0,0,.019.066.118.118,0,0,0,.1.048h7.131a.789.789,0,0,0,.655-.349l4.711-6.989a2.688,2.688,0,0,1,4.129-.4,5.29,5.29,0,0,1,.575,6.533l-.672,1.206h3.7a5.224,5.224,0,0,1,3.729,1.522,6.439,6.439,0,0,1,1.511,4.914c-.2,4.691-4.175,8.118-5.8,8.118h-9.125a6.494,6.494,0,0,1-5.711-2.981.133.133,0,0,0-.1-.07Zm17.7.259Z" transform="translate(-438.194 -305.927)" fill="#ff9f2d"/></g><path d="M472.617,336.439l-.157.208a.119.119,0,0,0,.084.19c4.525.468,7.368,1.143,7.368,1.893,0,1.408-10.088,2.552-22.528,2.552s-22.528-1.143-22.528-2.552c0-.714,2.563-1.358,6.7-1.821a.12.12,0,0,0,.083-.191l-.155-.2a.119.119,0,0,0-.109-.046c-6.433.726-10.59,1.885-10.59,3.188,0,2.209,11.911,4,26.6,4s26.605-1.788,26.605-4c0-1.347-4.45-2.538-11.262-3.265A.122.122,0,0,0,472.617,336.439Z" transform="translate(-430.779 -304.817)" fill="#00ce68"/></g><g transform="translate(277.4 316.927)"><path d="M497.326,319.581h-8.162a.433.433,0,0,0-.432.432v18.241a.433.433,0,0,0,.432.432h2.068a.431.431,0,0,0,.431-.431v-7.471a.107.107,0,0,1,.107-.107h3.54l.111.058,5.347,7.764a.431.431,0,0,0,.356.186h2.4a.432.432,0,0,0,.351-.681l-4.318-6.093a1.088,1.088,0,0,0-.656-.435l-1.624-.356a.225.225,0,0,1,.047-.444c3.9,0,6.231-2.064,6.231-5.521C503.558,321.77,501.112,319.581,497.326,319.581Zm-.1,8.507h-5.451a.115.115,0,0,1-.107-.107V322.33a.115.115,0,0,1,.107-.106h5.451c2.084,0,3.379,1.123,3.379,2.933S499.305,328.088,497.222,328.088Z" transform="translate(-488.732 -319.109)" fill="#253751"/><g transform="translate(18.249 0.473)"><path d="M.5,0H2.323a.5.5,0,0,1,.5.5V12.958a.5.5,0,0,1-.5.5H.5a.5.5,0,0,1-.5-.5V.5A.5.5,0,0,1,.5,0Z" transform="translate(0.131 5.645)" fill="#253751"/><path d="M.5,0H2.561a.5.5,0,0,1,.5.5V2.481a.5.5,0,0,1-.5.5H.5a.5.5,0,0,1-.5-.5V.5A.5.5,0,0,1,.5,0Z" fill="#253751"/></g><path d="M523.745,345.575c4.459,0,7.228-2.418,7.228-6.31V326.507a.431.431,0,0,0-.431-.431h-1.963a.432.432,0,0,0-.432.431v.969a.116.116,0,0,1-.071.1.113.113,0,0,1-.119-.034,5.709,5.709,0,0,0-4.423-1.939,6.823,6.823,0,0,0,0,13.643,6.27,6.27,0,0,0,3.118-.829,1.063,1.063,0,0,0,.472-.642l.813-3.005a.113.113,0,0,1,.118-.078.116.116,0,0,1,.093.107v4.282c0,2.537-1.677,4.113-4.376,4.113a4.294,4.294,0,0,1-4.22-2.5.432.432,0,0,0-.629-.184l-1.651,1.078a.429.429,0,0,0-.155.544C518.233,344.385,520.525,345.575,523.745,345.575Zm.314-8.892a4.019,4.019,0,0,1-4.271-4.219,4.112,4.112,0,0,1,4.271-4.324,4.272,4.272,0,0,1,0,8.543Z" transform="translate(-492.624 -319.887)" fill="#253751"/><path d="M547.654,338.686h1.964a.431.431,0,0,0,.431-.431v-7.638c0-3.781-1.784-5.863-5.024-5.863a4.322,4.322,0,0,0-3.25,1.173,1.109,1.109,0,0,0-.3.527l-.387,1.58a.224.224,0,0,1-.257.177.228.228,0,0,1-.206-.232v-7.966a.431.431,0,0,0-.431-.431h-1.964a.431.431,0,0,0-.431.431v18.242a.433.433,0,0,0,.432.432h1.962a.433.433,0,0,0,.432-.432V331.51c0-2.609,1.312-4.167,3.51-4.167,2.109,0,3.09,1.173,3.09,3.694v7.217A.433.433,0,0,0,547.654,338.686Z" transform="translate(-495.524 -319.109)" fill="#253751"/><path d="M564.1,325.739a.432.432,0,0,0-.431-.431h-3.347a.114.114,0,0,1-.106-.107v-4.607a.432.432,0,0,0-.432-.431h-1.964a.431.431,0,0,0-.431.431V325.2a.115.115,0,0,1-.107.107h-1.9a.431.431,0,0,0-.431.431v1.543a.432.432,0,0,0,.431.432h1.9a.114.114,0,0,1,.107.107v7.027c0,2.907,1.429,4.261,4.5,4.261a10.616,10.616,0,0,0,1.659-.17.432.432,0,0,0,.345-.423V336.9a.432.432,0,0,0-.5-.426,7.955,7.955,0,0,1-1.062.1c-1.373,0-2.117-.338-2.117-2.118v-6.633a.113.113,0,0,1,.106-.107h3.347a.433.433,0,0,0,.431-.432Z" transform="translate(-497.902 -319.191)" fill="#253751"/><path d="M589.563,338.608H591.6a.433.433,0,0,0,.432-.432V328.9a.421.421,0,0,0-.421-.421h-7.094a.433.433,0,0,0-.431.432v1.726a.433.433,0,0,0,.431.432H589a.106.106,0,0,1,.106.119,5.655,5.655,0,0,1-5.9,5.167c-4.078,0-6.713-2.893-6.713-7.37,0-4.307,2.826-7.316,6.87-7.316a6.507,6.507,0,0,1,5.957,3.3.421.421,0,0,0,.272.213.436.436,0,0,0,.347-.061l1.661-1.117a.43.43,0,0,0,.137-.568,9.942,9.942,0,0,0-18.2,5.576c0,5.88,3.793,9.986,9.225,9.986a7.182,7.182,0,0,0,6.178-3.033.118.118,0,0,1,.119-.039.115.115,0,0,1,.075.1v2.146A.433.433,0,0,0,589.563,338.608Z" transform="translate(-500.461 -319.031)" fill="#253751"/><path d="M611.36,335.087v-.006a.1.1,0,0,1,0-.028v-8.467a.432.432,0,0,0-.431-.433h-1.963a.432.432,0,0,0-.431.433V333c0,2.92-1.3,4.663-3.484,4.663-1.894,0-2.854-1.1-2.854-3.264v-7.809a.432.432,0,0,0-.431-.433H599.8a.435.435,0,0,0-.432.434v8.2c0,3.31,1.858,5.286,4.971,5.286a4.4,4.4,0,0,0,3.786-1.716,1.1,1.1,0,0,0,.214-.665v-1.449a.234.234,0,0,1,.459-.071l1,3.2a.432.432,0,0,0,.411.3h2.06a.426.426,0,0,0,.35-.18.43.43,0,0,0,.059-.39Z" transform="translate(-504.045 -320.036)" fill="#253751"/><g transform="translate(111.468 0.473)"><path d="M.5,0H2.56a.5.5,0,0,1,.5.5V2.481a.5.5,0,0,1-.5.5H.5a.5.5,0,0,1-.5-.5V.5A.5.5,0,0,1,.5,0Z" fill="#253751"/><path d="M.5,0H2.323a.5.5,0,0,1,.5.5V12.958a.5.5,0,0,1-.5.5H.5a.5.5,0,0,1-.5-.5V.5A.5.5,0,0,1,.5,0Z" transform="translate(0.131 5.645)" fill="#253751"/></g><path d="M639.067,319.581H637.1a.433.433,0,0,0-.432.432v6.743a.114.114,0,0,1-.069.1.11.11,0,0,1-.118-.028,5.894,5.894,0,0,0-4.663-2.073,6.541,6.541,0,0,0-4.808,1.949,7.469,7.469,0,0,0-2,5.482,7.1,7.1,0,0,0,2.611,5.337,6.837,6.837,0,0,0,5.531,1.445,5.491,5.491,0,0,0,3.065-1.588,1.089,1.089,0,0,0,.287-.67l.176-2.3a.232.232,0,0,1,.207-.216.221.221,0,0,1,.251.161l1.3,4.031a.432.432,0,0,0,.411.3h2.078a.432.432,0,0,0,.407-.572L639.5,332.8l-.005-.033V320.012A.431.431,0,0,0,639.067,319.581Zm-6.693,16.935a4.3,4.3,0,0,1-4.429-4.56,4.418,4.418,0,1,1,4.429,4.56Z" transform="translate(-507.54 -319.109)" fill="#253751"/><path d="M648.877,333.695h10.036a10.207,10.207,0,0,0,.069-1.117c0-4.237-2.529-6.975-6.442-6.975s-6.755,3.055-6.755,7.265c0,4.267,2.789,7.133,6.94,7.133a6.928,6.928,0,0,0,5.8-2.621.439.439,0,0,0-.063-.58l-1.324-1.185a.425.425,0,0,0-.35-.1.442.442,0,0,0-.313.213,3.857,3.857,0,0,1-3.67,1.912c-2.3,0-3.731-1.357-4.033-3.82a.119.119,0,0,1,.026-.085A.113.113,0,0,1,648.877,333.695Zm3.612-5.727a3.266,3.266,0,0,1,3.43,3.6.116.116,0,0,1-.106.108H648.9a.117.117,0,0,1-.084-.041.113.113,0,0,1-.02-.091C649.149,329.306,650.528,327.968,652.489,327.968Z" transform="translate(-510.471 -319.958)" fill="#253751"/><g transform="translate(142.04 0)"><path d="M658.82,320.138v.34a.071.071,0,0,1-.071.071H657.5v3.517a.071.071,0,0,1-.071.071h-.381a.071.071,0,0,1-.071-.071v-3.517h-1.25a.071.071,0,0,1-.072-.071v-.34a.071.071,0,0,1,.072-.071h3.025A.071.071,0,0,1,658.82,320.138Z" transform="translate(-655.652 -320.067)" fill="#253751"/><path d="M659.913,320.113l1.283,3.425,1.277-3.425a.073.073,0,0,1,.067-.046h.651a.071.071,0,0,1,.072.071v3.928a.071.071,0,0,1-.072.071h-.37a.071.071,0,0,1-.072-.071V320.7l-1.249,3.347a.071.071,0,0,1-.067.047h-.491a.07.07,0,0,1-.066-.047l-1.245-3.347v3.361a.07.07,0,0,1-.07.071h-.37a.071.071,0,0,1-.072-.071v-3.928a.071.071,0,0,1,.072-.071h.656A.07.07,0,0,1,659.913,320.113Z" transform="translate(-655.263 -320.067)" fill="#253751"/></g></g></g></svg>