<svg xmlns="http://www.w3.org/2000/svg" xmlns:xlink="http://www.w3.org/1999/xlink" width="100" height="100.297" viewBox="0 0 100 100.297"><defs><linearGradient id="a" x1="0.134" y1="0.879" x2="0.771" y2="0.035" gradientUnits="objectBoundingBox"><stop offset="0" stop-color="#e5fbe7" stop-opacity="0"/><stop offset="0.294" stop-color="#e5fbe7" stop-opacity="0.322"/><stop offset="0.787" stop-color="#e5fbe7"/><stop offset="1" stop-color="#d8f0d0"/></linearGradient></defs><g transform="translate(-546 -3677)"><rect width="100" height="100" transform="translate(546 3677)" fill="none"/><g transform="translate(546 3682.025)"><path d="M3.132,53.977C-1.723,37.4-4.936-5.514,25.322.59c10,2.017,9.181,12.016,17.394,15.364C57.327,21.91,59.292,1.4,76.1,5.59c19.256,4.8,27.483,32.51,21.989,48.852-2.591,7.707-7.31,16.875-16.582,17.373-7.2.386-12.068-12.032-19.251-10.647C45.934,64.315,52.895,87.275,35.07,89.562,17.3,91.843,6.781,66.433,3.132,53.977Z" transform="translate(0 0)" fill="url(#a)"/></g><g transform="translate(557.258 3687.014)"><path d="M3.214,6.428a.984.984,0,0,1-.984-.984A1.248,1.248,0,0,0,.984,4.2a.984.984,0,1,1,0-1.968A1.248,1.248,0,0,0,2.23.984.984.984,0,1,1,4.2.984,1.248,1.248,0,0,0,5.445,2.23a.984.984,0,1,1,0,1.968A1.248,1.248,0,0,0,4.2,5.444.984.984,0,0,1,3.214,6.428Z" transform="translate(47.347 1)" fill="#f6911f"/><path d="M3.214,6.428a.984.984,0,0,1-.984-.984A1.248,1.248,0,0,0,.984,4.2a.984.984,0,1,1,0-1.968A1.248,1.248,0,0,0,2.23.984.984.984,0,0,1,4.2.984,1.248,1.248,0,0,0,5.444,2.23a.984.984,0,1,1,0,1.968A1.248,1.248,0,0,0,4.2,5.444.984.984,0,0,1,3.214,6.428Z" transform="translate(55.794 2.695)" fill="#0099be"/><path d="M3.214,6.428a.984.984,0,0,1-.984-.984A1.248,1.248,0,0,0,.984,4.2a.984.984,0,0,1,0-1.968A1.248,1.248,0,0,0,2.23.984.984.984,0,0,1,4.2.984,1.248,1.248,0,0,0,5.444,2.23a.984.984,0,0,1,0,1.968A1.248,1.248,0,0,0,4.2,5.444.984.984,0,0,1,3.214,6.428Z" transform="translate(-5.128 15.527)" fill="#ff405c"/><g transform="translate(-11.128 21.318)"><g transform="translate(2.381)"><path d="M.984,2A.984.984,0,0,1,0,1.013V.984a.984.984,0,0,1,1.968,0v.03A.984.984,0,0,1,.984,2Z" fill="#0099be"/><path d="M.984,2A.984.984,0,0,1,0,1.013V.984a.984.984,0,0,1,1.968,0v.03A.984.984,0,0,1,.984,2Z" transform="translate(0 5.468)" fill="#0099be"/></g><g transform="translate(0 1.374)"><path d="M1.009,1.983a.979.979,0,0,1-.491-.132L.493,1.837a.984.984,0,1,1,.983-1.7L1.5.147a.984.984,0,0,1-.493,1.836Z" transform="translate(0 0)" fill="#0099be"/><path d="M1.009,1.983A.979.979,0,0,1,.517,1.85L.491,1.836a.984.984,0,1,1,.986-1.7L1.5.147a.984.984,0,0,1-.494,1.836Z" transform="translate(4.735 2.734)" fill="#0099be"/></g><g transform="translate(0 1.374)"><path d="M.985,1.983A.984.984,0,0,1,.493.147L.518.132a.984.984,0,1,1,.983,1.7l-.026.015a.979.979,0,0,1-.491.132Z" transform="translate(0 2.734)" fill="#0099be"/><path d="M.985,1.983A.984.984,0,0,1,.491.147L.517.133a.984.984,0,1,1,.986,1.7l-.026.015a.98.98,0,0,1-.492.133Z" transform="translate(4.735 0)" fill="#0099be"/></g></g><g transform="translate(70.537 33.025)"><g transform="translate(2.381)"><path d="M.984,2A.984.984,0,0,1,0,1.013V.984a.984.984,0,0,1,1.968,0v.03A.984.984,0,0,1,.984,2Z" fill="#ff405c"/><path d="M.984,2A.984.984,0,0,1,0,1.013V.984a.984.984,0,0,1,1.968,0v.03A.984.984,0,0,1,.984,2Z" transform="translate(0 5.468)" fill="#ff405c"/></g><g transform="translate(0 1.374)"><path d="M1.009,1.983A.978.978,0,0,1,.517,1.85L.491,1.836a.984.984,0,0,1,.986-1.7L1.5.147a.984.984,0,0,1-.494,1.836Z" transform="translate(0 0)" fill="#ff405c"/><path d="M1.009,1.983a.978.978,0,0,1-.492-.133L.491,1.836a.984.984,0,0,1,.986-1.7L1.5.148a.984.984,0,0,1-.494,1.836Z" transform="translate(4.735 2.733)" fill="#ff405c"/></g><g transform="translate(0 1.374)"><path d="M.985,1.983A.984.984,0,0,1,.491.148L.517.133a.984.984,0,1,1,.986,1.7l-.026.015a.976.976,0,0,1-.492.133Z" transform="translate(0 2.734)" fill="#ff405c"/><path d="M.985,1.983A.984.984,0,0,1,.491.148L.517.133a.984.984,0,1,1,.986,1.7l-.026.015a.978.978,0,0,1-.492.133Z" transform="translate(4.735 0)" fill="#ff405c"/></g></g></g><g transform="translate(409.913 3610.265)"><g transform="translate(142.087 86.735)"><path d="M147.8,136.689c.08-.453.167-.886.235-1.243a.494.494,0,0,0-.236-.518,3.2,3.2,0,0,0-.837-.339l-3.072-.811a2.379,2.379,0,0,1-1.2-3.888l7.559-10.57a7.544,7.544,0,0,0,.1-1.632l-.4-3.752c-.072-1.042.037-1.85.034-2.553-.068-19.263,16.317-24.117,30.594-24.624,19.089-.679,31.1,13.178,31.1,29.433a28.342,28.342,0,0,1-6.734,18.293c-5.427,6.467-4.925,11.372-1.588,19.919l-34.5,12.331c-.42-1.332-.929-2.968-1.546-4.969-2.674-8.7-10.243-5.3-15.148-5.75s-5.2-3.8-4.782-5.907c.353-1.763,1.3-3.186.4-4.483-1.527-2.212.446-2.9.446-2.9l2.53-.8a.254.254,0,0,0-.01-.488A16.851,16.851,0,0,1,148,140.5a.9.9,0,0,1-.377-.709Z" transform="translate(-142.087 -86.735)" fill="#ffd6bb"/><path d="M549.011,384.545a5.448,5.448,0,0,1-.331-1.874c0-3.116,2.051-6.039,6.555-5.8a6.06,6.06,0,0,1,5.878,5.924c.274,9.716-7.576,14.3-9.538,14.3s-2.925-1.5-2.508-3.489" transform="translate(-510.431 -349.562)" fill="#e1efff"/><path d="M573.272,468.15a2.519,2.519,0,0,1,2.853,1.483,2.721,2.721,0,0,1-.913,3.281,4.817,4.817,0,0,1-2.6.827s-.984.081-.77-.6" transform="translate(-531.393 -432.219)" fill="#f5cbaf"/><path d="M215.2,469.226c1.6-2.28,2.93-4.946,5.549-6.234,2.583-1.269,7.952-2.8,10.426-.934s3.158,3.871,5.411,4.7,5.476.033,5.53,7.621c.046,6.329,5.81,18.583,8.944,25.955l-8.043,2.875c-1.231-4.835-5.444-20.126-10.106-22.8-3.616-2.077-8.587-.895-11.227.724l-1.615-3.292a24.418,24.418,0,0,1,7.1-1.994c7.807-1.21,10.581,3.522,11.021,4.84l.013.039a.5.5,0,0,0,.977-.219c-.824-7.441-7.757-8.533-9.9-8.354-2.282.19-4.937,1.62-9.881.289a9.094,9.094,0,0,0-2.8-.36Z" transform="translate(-208.327 -425.941)" fill="#e1efff"/></g><g transform="translate(142.087 86.736)"><path d="M225.364,113.931c-.072-1.042.037-1.849.034-2.551-.068-19.253,16.318-24.1,30.6-24.61,19.091-.679,31.107,13.17,31.107,29.417a28.316,28.316,0,0,1-6.734,18.283c-5.428,6.463-4.925,11.365-1.588,19.908" transform="translate(-217.514 -86.745)" fill="none" stroke="#0099be" stroke-miterlimit="10" stroke-width="2"/><path d="M147.8,434.8c.08-.453.167-.886.235-1.242a.494.494,0,0,0-.236-.518,3.2,3.2,0,0,0-.837-.338l-3.07-.81a2.378,2.378,0,0,1-1.2-3.886l7.554-10.564a7.541,7.541,0,0,0,.095-1.631" transform="translate(-142.087 -384.853)" fill="none" stroke="#0099be" stroke-linejoin="round" stroke-miterlimit="10" stroke-width="2"/><path d="M196.8,650.78a.9.9,0,0,0,.377.709,16.81,16.81,0,0,0,2.741.937.254.254,0,0,1,.01.488l-2.529.8s-1.971.686-.446,2.9c.894,1.3-.05,2.719-.4,4.48-.421,2.108-.123,5.457,4.779,5.9s12.467-2.946,15.14,5.747c.617,2,1.126,3.635,1.545,4.966" transform="translate(-191.275 -597.712)" fill="none" stroke="#0099be" stroke-miterlimit="10" stroke-width="2"/><path d="M399.64,165.815A34.827,34.827,0,0,1,414.5,162.43" transform="translate(-375.411 -155.315)" fill="none" stroke="#fff" stroke-linejoin="round" stroke-miterlimit="10" stroke-width="2"/><path d="M335.84,221.4a18.92,18.92,0,0,1,2.988-2.814" transform="translate(-317.615 -206.196)" fill="none" stroke="#fff" stroke-linejoin="round" stroke-miterlimit="10" stroke-width="2"/><path d="M549.011,384.545a5.448,5.448,0,0,1-.331-1.874c0-3.116,2.051-6.039,6.555-5.8a6.06,6.06,0,0,1,5.878,5.924c.274,9.716-7.576,14.3-9.538,14.3s-2.925-1.5-2.508-3.489" transform="translate(-510.431 -349.563)" fill="none" stroke="#ff405c" stroke-linejoin="round" stroke-miterlimit="10" stroke-width="2"/><path d="M573.272,468.15a2.519,2.519,0,0,1,2.853,1.483,2.721,2.721,0,0,1-.913,3.281,4.817,4.817,0,0,1-2.6.827s-.984.081-.77-.6" transform="translate(-531.393 -432.22)" fill="none" stroke="#ff405c" stroke-linejoin="round" stroke-miterlimit="10" stroke-width="2"/><path d="M215.2,469.226c1.6-2.28,2.93-4.946,5.549-6.234,2.583-1.269,7.952-2.8,10.426-.934s3.158,3.871,5.411,4.7,5.476.033,5.53,7.621c.046,6.329,5.81,18.583,8.944,25.955" transform="translate(-208.327 -425.942)" fill="none" stroke="#ff405c" stroke-linejoin="round" stroke-miterlimit="10" stroke-width="2"/><path d="M233.523,582.683a24.415,24.415,0,0,1,7.1-1.994c7.807-1.21,10.581,3.521,11.021,4.84,0,.013.008.026.013.039a.5.5,0,0,0,.977-.219c-.824-7.441-7.757-8.533-9.9-8.354-2.282.19-4.937,1.62-9.881.289a9.093,9.093,0,0,0-2.8-.36" transform="translate(-221.781 -530.808)" fill="none" stroke="#ff405c" stroke-linejoin="round" stroke-miterlimit="10" stroke-width="2"/><path d="M284.17,655.6c2.641-1.619,7.612-2.8,11.227-.724,4.663,2.678,8.876,17.969,10.106,22.8" transform="translate(-270.802 -600.417)" fill="none" stroke="#ff405c" stroke-linejoin="round" stroke-miterlimit="10" stroke-width="2"/></g></g></g></svg>