<svg xmlns="http://www.w3.org/2000/svg" xmlns:xlink="http://www.w3.org/1999/xlink" width="100" height="100" viewBox="0 0 100 100"><defs><linearGradient id="a" x1="0.189" y1="0.946" x2="0.869" y2="0.009" gradientUnits="objectBoundingBox"><stop offset="0" stop-color="#e5fbe7" stop-opacity="0"/><stop offset="0.294" stop-color="#e5fbe7" stop-opacity="0.322"/><stop offset="0.787" stop-color="#e5fbe7"/><stop offset="1" stop-color="#d8f0d0"/></linearGradient></defs><g transform="translate(-1080 -2653)"><rect width="100" height="100" transform="translate(1080 2653)" fill="none"/><g transform="translate(1080 2659.731)"><g transform="translate(0 0)"><path d="M.953,56.389C-.8,39.021-2.72,3.014,20.764,2.571c16.018-.3,22.578,9.845,39.414,4.162C73.3,2.3,82.8-6.212,93.4,7.362c6.9,8.837,6.043,36.914,6.23,47.521.29,16.454-.708,24.17-16.761,28.031C57.874,88.924,4.349,90.04.953,56.389Z" transform="translate(0 0)" fill="url(#a)"/></g><g transform="translate(9.052 6.022)"><g transform="translate(0.973 5.84)" opacity="0.1"><path d="M71.125,32.9a1.95,1.95,0,0,1,0,3.191c-4.311,3.039-11.728,9.729-20.1,13.961H66.461A1.947,1.947,0,0,1,68.408,52V64.428a1.947,1.947,0,0,1-1.947,1.947H44.376a1.947,1.947,0,0,1-1.947-1.947V53.239a23.358,23.358,0,0,1-4.993.566c-13.369,0-27.125-13.086-33.687-17.711a1.95,1.95,0,0,1,0-3.191c2-1.413,4.681-3.615,7.811-5.992a13.527,13.527,0,1,1,14.816-9.153,28.213,28.213,0,0,1,11.061-2.565c13.369,0,27.125,13.086,33.687,17.711Z" transform="translate(0 0)" fill="#2626bc" opacity="0.1"/><path d="M5.564.973a.973.973,0,0,1-.973.973H.973A.973.973,0,0,1,.973,0H4.591A.973.973,0,0,1,5.564.973Z" transform="translate(33.255 58.244)" fill="#2626bc" opacity="0.1"/><path d="M13.35.973a.973.973,0,0,1-.973.973H.973A.973.973,0,0,1,.973,0h11.4A.973.973,0,0,1,13.35.973Z" transform="translate(25.469 61.823)" fill="#2626bc" opacity="0.1"/><path d="M13.35.973a.973.973,0,0,1-.973.973H.973A.973.973,0,0,1,.973,0h11.4A.973.973,0,0,1,13.35.973Z" transform="translate(25.469 65.401)" fill="#2626bc" opacity="0.1"/></g><g transform="translate(0.973 0.973)"><path d="M27.055,13.528A13.528,13.528,0,1,1,13.528,0,13.528,13.528,0,0,1,27.055,13.528Z" transform="translate(0)" fill="#ff405c"/><path d="M16.482,7.338V9.144a1.947,1.947,0,0,1-1.947,1.947H11.091v3.444a1.947,1.947,0,0,1-1.947,1.947H7.338a1.947,1.947,0,0,1-1.947-1.947V11.091H1.947A1.947,1.947,0,0,1,0,9.144V7.338A1.947,1.947,0,0,1,1.947,5.391H5.391V1.947A1.947,1.947,0,0,1,7.338,0H9.145a1.947,1.947,0,0,1,1.947,1.947V5.391h3.444A1.946,1.946,0,0,1,16.482,7.338Z" transform="translate(5.286 5.287)" fill="#fff"/></g><path d="M34.518,0C47.887,0,61.643,13.086,68.2,17.711a1.95,1.95,0,0,1,0,3.191c-6.562,4.625-20.318,17.711-33.689,17.711S7.391,25.527.829,20.9a1.95,1.95,0,0,1,0-3.191C7.391,13.086,21.148,0,34.518,0Z" transform="translate(3.893 16.166)" fill="#fff"/><g transform="translate(23.889 20.951)"><path d="M29.042,14.521A14.521,14.521,0,1,1,14.521,0,14.521,14.521,0,0,1,29.042,14.521Z" fill="#0099be"/><path d="M16.989,8.494A8.494,8.494,0,1,1,8.495,0,8.494,8.494,0,0,1,16.989,8.494Z" transform="translate(6.026 6.026)" fill="#006781"/><path d="M7.49,3.745A3.745,3.745,0,1,1,3.745,0,3.745,3.745,0,0,1,7.49,3.745Z" transform="translate(16.022 5.529)" fill="#5391f8"/><path d="M4.023,2.012A2.012,2.012,0,1,1,2.012,0,2.012,2.012,0,0,1,4.023,2.012Z" transform="translate(20.486 8.764)" fill="#b2d0ff"/></g><g transform="translate(43.402 51.029)"><path d="M24.033,16.318H1.947A1.947,1.947,0,0,1,0,14.372V1.947A1.947,1.947,0,0,1,1.947,0H24.032a1.947,1.947,0,0,1,1.947,1.947V14.372a1.946,1.946,0,0,1-1.946,1.947Z" transform="translate(0 0)" fill="#ffd9ab"/><g transform="translate(7.923 3.304)"><g transform="translate(7.786)"><path d="M4.591,1.947H.973A.973.973,0,0,1,.973,0H4.591a.973.973,0,1,1,0,1.947Z" transform="translate(0)" fill="#fff"/></g><g transform="translate(0 3.578)"><path d="M12.377,1.947H.973A.973.973,0,0,1,.973,0h11.4a.973.973,0,0,1,0,1.947Z" transform="translate(0)" fill="#fff"/></g><g transform="translate(0 7.156)"><path d="M12.377,1.947H.973A.973.973,0,0,1,.973,0h11.4a.973.973,0,0,1,0,1.947Z" transform="translate(0)" fill="#fff"/></g></g></g><path d="M73.9,35.472a2.93,2.93,0,0,1-1.242,2.391c-1.169.824-2.569,1.92-4.19,3.19a119.85,119.85,0,0,1-12.674,9h11.64a2.923,2.923,0,0,1,2.92,2.92V65.4a2.923,2.923,0,0,1-2.92,2.92H61.4a.973.973,0,0,1,0-1.947h6.038a.974.974,0,0,0,.973-.973V52.975A.974.974,0,0,0,67.435,52H45.349a.974.974,0,0,0-.973.973V65.4a.974.974,0,0,0,.973.973H55.732a.973.973,0,0,1,0,1.947H45.349a2.923,2.923,0,0,1-2.92-2.92V55.394a23.615,23.615,0,0,1-4.02.357c-11.282,0-22.581-8.846-30.057-14.7-1.621-1.27-3.022-2.366-4.19-3.19a2.923,2.923,0,0,1,0-4.782c1.169-.824,2.569-1.92,4.19-3.189,4.821-3.775,11.232-8.793,18.2-11.882A12.555,12.555,0,1,0,7.74,25.081a.973.973,0,1,1-1.05,1.639,14.5,14.5,0,1,1,22.076-9.614,27.625,27.625,0,0,1,9.645-1.913c11.282,0,22.58,8.845,30.056,14.7,1.622,1.27,3.022,2.366,4.191,3.19A2.929,2.929,0,0,1,73.9,35.472Zm-2.364.8a.976.976,0,0,0,0-1.6c-1.209-.852-2.627-1.963-4.27-3.248C60,25.736,49.022,17.139,38.412,17.139s-21.593,8.6-28.859,14.285c-1.642,1.286-3.06,2.4-4.269,3.248a.976.976,0,0,0,0,1.6c1.209.852,2.627,1.963,4.269,3.248C16.818,45.209,27.8,53.806,38.409,53.806a21.941,21.941,0,0,0,4.02-.387v-.442a2.923,2.923,0,0,1,2.92-2.92h6.417c5.881-3.008,11.31-7.254,15.5-10.535,1.642-1.286,3.06-2.4,4.269-3.248Z" transform="translate(0 0)" fill="#0099be"/><path d="M5.564.973a.973.973,0,0,1-.973.973H.973A.973.973,0,0,1,.973,0H4.59A.973.973,0,0,1,5.564.973Z" transform="translate(34.228 59.218)" fill="#0099be"/><path d="M13.35.973a.973.973,0,0,1-.973.973H.973A.973.973,0,0,1,.973,0h11.4A.973.973,0,0,1,13.35.973Z" transform="translate(26.442 62.796)" fill="#0099be"/><path d="M13.35.973a.973.973,0,0,1-.973.973H.973A.973.973,0,0,1,.973,0h11.4A.973.973,0,0,1,13.35.973Z" transform="translate(26.442 66.374)" fill="#0099be"/><path d="M3.179,6.359a.973.973,0,0,1-.973-.973A1.234,1.234,0,0,0,.973,4.153a.973.973,0,0,1,0-1.947A1.234,1.234,0,0,0,2.206.973a.973.973,0,0,1,1.947,0A1.234,1.234,0,0,0,5.385,2.206a.973.973,0,1,1,0,1.947A1.234,1.234,0,0,0,4.153,5.386.973.973,0,0,1,3.179,6.359Z" transform="translate(6.786 51.153)" fill="#ff405c"/><path d="M3.179,6.359a.973.973,0,0,1-.973-.973A1.234,1.234,0,0,0,.973,4.153a.973.973,0,0,1,0-1.947A1.234,1.234,0,0,0,2.206.973a.973.973,0,0,1,1.947,0A1.234,1.234,0,0,0,5.386,2.206a.973.973,0,0,1,0,1.947A1.234,1.234,0,0,0,4.153,5.385.973.973,0,0,1,3.179,6.359Z" transform="translate(75.203 44.095)" fill="#ff405c"/><path d="M3.179,6.359a.973.973,0,0,1-.973-.973A1.234,1.234,0,0,0,.973,4.153a.973.973,0,0,1,0-1.947A1.234,1.234,0,0,0,2.206.973a.973.973,0,0,1,1.947,0A1.234,1.234,0,0,0,5.386,2.206a.973.973,0,1,1,0,1.947A1.234,1.234,0,0,0,4.153,5.386.973.973,0,0,1,3.179,6.359Z" transform="translate(46.429 6.828)" fill="#f6911f"/><g transform="translate(11.173 58.512)"><g transform="translate(2.355)"><path d="M.973,1.976A.973.973,0,0,1,0,1V.973a.973.973,0,0,1,1.947,0V1A.973.973,0,0,1,.973,1.976Z" fill="#f6911f"/><path d="M.973,1.976A.973.973,0,0,1,0,1V.973a.973.973,0,0,1,1.947,0V1A.973.973,0,0,1,.973,1.976Z" transform="translate(0 5.408)" fill="#f6911f"/></g><g transform="translate(0 1.36)"><path d="M1,1.961a.97.97,0,0,1-.481-.127L.492,1.819A.973.973,0,1,1,1.455.127L1.48.142A.973.973,0,0,1,1,1.961Z" transform="translate(0 0)" fill="#f6911f"/><path d="M1,1.962a.968.968,0,0,1-.487-.131L.486,1.816A.973.973,0,1,1,1.461.131l.025.015A.973.973,0,0,1,1,1.962Z" transform="translate(4.684 2.704)" fill="#f6911f"/></g><g transform="translate(0 1.359)"><path d="M.974,1.962A.973.973,0,0,1,.487.145L.512.13a.973.973,0,1,1,.973,1.686l-.025.015a.969.969,0,0,1-.485.13Z" transform="translate(0 2.704)" fill="#f6911f"/><path d="M.974,1.961A.973.973,0,0,1,.491.143L.516.128a.973.973,0,1,1,.966,1.69l-.025.014a.967.967,0,0,1-.482.129Z" transform="translate(4.684 0)" fill="#f6911f"/></g></g><g transform="translate(35.491 2.568)"><g transform="translate(2.355)"><path d="M.973,1.976A.973.973,0,0,1,0,1V.973a.973.973,0,1,1,1.947,0V1A.973.973,0,0,1,.973,1.976Z" fill="#ff405c"/><path d="M.973,1.976A.973.973,0,0,1,0,1V.973a.973.973,0,1,1,1.947,0V1A.973.973,0,0,1,.973,1.976Z" transform="translate(0 5.408)" fill="#ff405c"/></g><g transform="translate(0 1.359)"><path d="M1,1.962A.968.968,0,0,1,.511,1.83L.486,1.816A.973.973,0,1,1,1.461.131l.025.015A.973.973,0,0,1,1,1.962Z" transform="translate(0 0)" fill="#ff405c"/><path d="M1,1.962A.967.967,0,0,1,.511,1.83L.486,1.816A.973.973,0,1,1,1.461.131l.025.015A.973.973,0,0,1,1,1.962Z" transform="translate(4.684 2.704)" fill="#ff405c"/></g><g transform="translate(0 1.359)"><path d="M.974,1.962A.973.973,0,0,1,.486.146L.511.131a.973.973,0,1,1,.975,1.685l-.025.015a.967.967,0,0,1-.487.131Z" transform="translate(0 2.704)" fill="#ff405c"/><path d="M.974,1.962A.973.973,0,0,1,.486.146L.511.131a.973.973,0,1,1,.975,1.685l-.025.015a.97.97,0,0,1-.487.131Z" transform="translate(4.684 0)" fill="#ff405c"/></g></g></g></g></g></svg>