<svg xmlns="http://www.w3.org/2000/svg" xmlns:xlink="http://www.w3.org/1999/xlink" width="100.938" height="100" viewBox="0 0 100.938 100"><defs><linearGradient id="a" x1="0.134" y1="0.879" x2="0.771" y2="0.035" gradientUnits="objectBoundingBox"><stop offset="0" stop-color="#e5fbe7" stop-opacity="0"/><stop offset="0.294" stop-color="#e5fbe7" stop-opacity="0.322"/><stop offset="0.787" stop-color="#e5fbe7"/><stop offset="1" stop-color="#d8f0d0"/></linearGradient></defs><g transform="translate(-532.589 -3420)"><g transform="translate(-574.473 808)"><rect width="100" height="100" transform="translate(1108 2612)" fill="none"/><g transform="translate(1108 2616.832)"><g transform="translate(0 0)"><path d="M3.122,53.862C-1.718,37.323-4.92-5.5,25.24.588,35.21,2.6,34.392,12.578,42.578,15.919,57.141,21.864,59.1,1.4,75.85,5.578c19.194,4.789,27.394,32.441,21.918,48.748-2.583,7.691-7.287,16.839-16.529,17.336-7.176.386-12.029-12.006-19.189-10.624-16.265,3.14-9.326,26.051-27.094,28.334-17.715,2.276-28.2-23.08-31.835-35.51Z" transform="translate(0)" fill="url(#a)"/></g><g transform="translate(8.602 3.629)"><path d="M3.172,6.344A.971.971,0,0,1,2.2,5.373a1.231,1.231,0,0,0-1.23-1.23.971.971,0,0,1,0-1.942A1.231,1.231,0,0,0,2.2.971a.971.971,0,0,1,1.942,0A1.231,1.231,0,0,0,5.373,2.2a.971.971,0,1,1,0,1.942,1.231,1.231,0,0,0-1.23,1.23A.971.971,0,0,1,3.172,6.344Z" transform="translate(1.294 -1.803)" fill="#0099be"/><path d="M3.172,6.344A.971.971,0,0,1,2.2,5.373a1.231,1.231,0,0,0-1.23-1.23.971.971,0,0,1,0-1.942A1.232,1.232,0,0,0,2.2.971a.971.971,0,0,1,1.942,0A1.231,1.231,0,0,0,5.373,2.2a.971.971,0,1,1,0,1.942,1.231,1.231,0,0,0-1.23,1.23A.971.971,0,0,1,3.172,6.344Z" transform="translate(78.087 33.29)" fill="#ff405c"/><g transform="translate(40.15 1.369)"><g transform="translate(2.349)"><path d="M.971,1.971A.971.971,0,0,1,0,1V.971a.971.971,0,0,1,1.942,0V1A.971.971,0,0,1,.971,1.971Z" fill="#f6911f"/><path d="M.971,1.971A.971.971,0,0,1,0,1V.971a.971.971,0,0,1,1.942,0V1A.971.971,0,0,1,.971,1.971Z" transform="translate(0 5.396)" fill="#f6911f"/></g><g transform="translate(0 1.356)"><path d="M1,1.957a.967.967,0,0,1-.481-.128L.489,1.814A.971.971,0,1,1,1.453.128l.025.014A.971.971,0,0,1,1,1.957Z" transform="translate(0 0)" fill="#f6911f"/><path d="M1,1.957a.967.967,0,0,1-.483-.129L.487,1.813A.971.971,0,1,1,1.455.129L1.48.144A.971.971,0,0,1,1,1.957Z" transform="translate(4.673 2.698)" fill="#f6911f"/></g><g transform="translate(0 1.356)"><path d="M.972,1.957A.971.971,0,0,1,.485.146L.51.131a.971.971,0,0,1,.973,1.681l-.025.015a.963.963,0,0,1-.486.131Z" transform="translate(0 2.698)" fill="#f6911f"/><path d="M.972,1.957A.971.971,0,0,1,.492.141L.518.126a.971.971,0,1,1,.958,1.689L1.45,1.83a.968.968,0,0,1-.478.126Z" transform="translate(4.673 0)" fill="#f6911f"/></g></g><g transform="translate(66.184 70.869)"><g transform="translate(2.349 0)"><path d="M.971,1.971A.971.971,0,0,1,0,1V.971a.971.971,0,0,1,1.942,0V1A.971.971,0,0,1,.971,1.971Z" transform="translate(0 0)" fill="#ff7386"/><path d="M.971,1.971A.971.971,0,0,1,0,1V.971a.971.971,0,1,1,1.942,0V1A.971.971,0,0,1,.971,1.971Z" transform="translate(0 5.396)" fill="#ff7386"/></g><g transform="translate(0 1.356)"><path d="M1,1.957A.965.965,0,0,1,.51,1.826L.485,1.812A.971.971,0,0,1,1.458.131l.025.015A.971.971,0,0,1,1,1.957Z" transform="translate(0 0)" fill="#ff7386"/><path d="M1,1.957a.966.966,0,0,1-.483-.129L.487,1.813A.971.971,0,1,1,1.455.129L1.48.144A.971.971,0,0,1,1,1.957Z" transform="translate(4.673 2.698)" fill="#ff7386"/></g><g transform="translate(0 1.356)"><path d="M.972,1.957A.971.971,0,0,1,.485.146L.51.131a.971.971,0,1,1,.973,1.681l-.025.015a.966.966,0,0,1-.486.131Z" transform="translate(0 2.698)" fill="#ff7386"/><path d="M.972,1.957A.971.971,0,0,1,.487.144L.513.129A.971.971,0,1,1,1.48,1.813l-.025.015a.967.967,0,0,1-.483.129Z" transform="translate(4.673 0)" fill="#ff7386"/></g></g></g></g></g><g transform="translate(457.66 3288.5)"><g transform="translate(75.867 147.5)"><path d="M97.3,259.862a.926.926,0,0,1,.861-.128,8.227,8.227,0,0,1,5.042,3.911l0,.006a10.367,10.367,0,0,1,1.069,5.356,9.737,9.737,0,0,1-2.317,5.762c-4.452,5.15-12.124,1.715-16.237-2.082-4.159-3.839-14.409-20.791-7.562-36.039,6.481-14.436,17.513-10.74,23.536-8.317,7.494,3.014,11.959,14.49,7.42,20.949-4.187,5.959-8.524,4.637-9.17,4.4" transform="translate(-75.867 -218.292)" fill="#ff7f92"/><path d="M323.23,183.021s4.442.657,7.572-.336a4.208,4.208,0,0,0,2.893-3.68c.778-9.473-.035-31.506-.035-31.506h4.748c0,1.965,1.025,26.965-.154,35.483-.34,2.461-.314,4.856-.516,7.116l.357,3.219a49.594,49.594,0,0,0,.148,9.981l.654,4.062s.917,10.434.786,12.139h-5.237c0-1.048-.786-9.78-1.572-15.677a64.578,64.578,0,0,1-.392-9.556l.061-1.976c.073-1.834.191-3.72.349-5.616a.732.732,0,0,0-.975-.754,8.249,8.249,0,0,1-6.494-.673Z" transform="translate(-298.794 -147.5)" fill="#84b0fc"/><path d="M606.23,259.862a.926.926,0,0,0-.861-.128,8.227,8.227,0,0,0-5.042,3.911l0,.006a10.367,10.367,0,0,0-1.068,5.355,9.737,9.737,0,0,0,2.317,5.762c4.452,5.15,12.124,1.715,16.237-2.082,4.159-3.839,14.408-20.79,7.561-36.039-6.481-14.436-17.513-10.74-23.536-8.317-7.494,3.014-11.959,14.49-7.42,20.949,4.187,5.959,8.524,4.637,9.17,4.4" transform="translate(-541.518 -218.292)" fill="#ff7f92"/><path d="M641.588,302.6c-1.257,3.856-3.219,6.923-5.122,6.864a3.794,3.794,0,0,1,.624,3.229c-1.391,4.413-7.826,9.873-10.123,6.186a3.887,3.887,0,0,1-.7-1.652c-2.022,1.779-3.8-1.228-4.091-2.262-.7-2.536.039-4.448,2.456-6.624s.3-1.935.3-1.935c-6.408,1.753-6.181,9.461-6.181,9.461-.62,7.055-1.127,10.94-1.032,14.344.1,3.572.5,6.868.5,6.868h-3.541s-1.063-8.923.055-15.924c1.153-7.218-.76-11.525,2.907-15.541,1.589-1.738,3.924-3.2,5.443-5.076,0,0,3.237-3.451,1.723-7.718a.542.542,0,0,0-1.019-.012,10.779,10.779,0,0,1-1.571,3.019c-1.148,1.33-2.358,1.27-4.05,0-1.648-1.234-4.866-7.572-.318-8.014a1.978,1.978,0,0,1-1.5-2.262c.181-4.11,4.775-8.161,9.914-7.435,3.223.455,3.084,3.138,2.353,5.876,2.371-6.407,7.208-2.324,8.1,1.679a3.364,3.364,0,0,1-.631,2.615c5.37-.415,4.759,6.029,3.352,7.784C639.447,296.069,643.165,297.761,641.588,302.6Z" transform="translate(-561.021 -265.079)" fill="#ffd9ab"/><path d="M402.144,194.206c.143.011.41.042.79.059a13.409,13.409,0,0,0,4.69-.687c.3-.1.608-.184.923-.262a7.431,7.431,0,0,1,3.454-.2,1.191,1.191,0,0,1,.86,1.082,2.85,2.85,0,0,0,.022.447c1.254,5.032,1.026,19.478.634,24.851h5.246c-.131-2.228.117-10.791.117-21.189,0-5.419-.249-8.679-.681-10.558a1.091,1.091,0,0,1,1.381-1.286c5.714,1.692,11.721-3.36,11.721-3.36l-3.4-.263c-4.164,2.072-6.864.93-8.427-.456a5.2,5.2,0,0,1-1.73-3.923c.016-3.339.086-10.9.388-14.223.393-4.325.261-16.742.261-16.742h-4.978s.02,15.292-.594,23.689a102.052,102.052,0,0,0-.045,15.193,2.557,2.557,0,0,1-.563,1.865,8.918,8.918,0,0,1-3.418,1.853,9.166,9.166,0,0,1-1.43.356c-1.946.33-3.16,1.428-4.369,1.835a2.514,2.514,0,0,1-1.155.138Z" transform="translate(-369.629 -147.5)" fill="#ffd9ab"/><path d="M155.692,337.078H151.83c.3-1.764.529-3.8.868-7.091.321-3.1-.68-7.481-.45-14.871,0,0-.311-6.958-6.719-8.711,0,0-2.115-.242.3,1.935s3.16,4.089,2.456,6.624c-.287,1.034-2.069,4.041-4.091,2.262a3.887,3.887,0,0,1-.7,1.652c-2.3,3.687-8.732-1.773-10.123-6.186a3.794,3.794,0,0,1,.624-3.229c-1.9.059-3.865-3.008-5.122-6.864-1.577-4.838,2.141-6.53,2.141-6.53-1.407-1.754-2.019-8.2,3.352-7.784a3.364,3.364,0,0,1-.631-2.615c.9-4,5.733-8.087,8.1-1.679-.731-2.739-.87-5.422,2.353-5.876,5.138-.725,9.733,3.325,9.914,7.435a1.978,1.978,0,0,1-1.5,2.262c4.548.441,1.329,6.779-.318,8.014-1.692,1.27-2.9,1.33-4.05,0a10.759,10.759,0,0,1-1.57-3.018.541.541,0,0,0-1.019.011c-1.515,4.266,1.722,7.718,1.722,7.718,1.519,1.879,4.129,3.355,5.719,5.093a9.523,9.523,0,0,1,2.36,4.4,15.182,15.182,0,0,1,.3,1.777c.275,2.349.1,7.464.447,11.149A60.724,60.724,0,0,1,155.692,337.078Z" transform="translate(-123.299 -265.079)" fill="#ffd9ab"/></g><g transform="translate(75.867 147.5)"><path d="M563.669,147.5s.131,12.4-.261,16.725c-.3,3.316-.372,10.873-.388,14.209a5.2,5.2,0,0,0,1.73,3.919c1.563,1.386,4.263,2.526,8.427.457" transform="translate(-514.9 -147.5)" fill="none" stroke="#0099be" stroke-miterlimit="10" stroke-width="1.8"/><path d="M580.5,508.02s-6.009,5.047-11.721,3.357a1.091,1.091,0,0,0-1.381,1.285,53.228,53.228,0,0,1,.681,10.547c0,10.387-.249,18.942-.117,21.167" transform="translate(-518.818 -472.377)" fill="none" stroke="#0099be" stroke-miterlimit="10" stroke-width="1.8"/><path d="M472.358,611.4a49.49,49.49,0,0,0,.148,9.971l.654,4.058s.917,10.424.786,12.127" transform="translate(-433.047 -565.557)" fill="none" stroke="#0099be" stroke-miterlimit="10" stroke-width="1.8"/><path d="M470.94,147.5c0,1.963,1.025,26.937-.154,35.447-.34,2.459-.314,4.851-.516,7.109" transform="translate(-431.317 -147.5)" fill="none" stroke="#0099be" stroke-miterlimit="10" stroke-width="1.8"/><path d="M416.791,621.01a64.716,64.716,0,0,0,.392,9.547c.786,5.891,1.572,14.614,1.572,15.661" transform="translate(-383.099 -574.219)" fill="none" stroke="#0099be" stroke-miterlimit="10" stroke-width="1.8"/><path d="M323.23,182.986s4.442.656,7.572-.335a4.2,4.2,0,0,0,2.893-3.676c.778-9.464-.035-31.474-.035-31.474" transform="translate(-298.796 -147.5)" fill="none" stroke="#0099be" stroke-miterlimit="10" stroke-width="1.8"/><path d="M345.46,529.69a8.258,8.258,0,0,0,6.494.672.732.732,0,0,1,.975.753c-.158,1.893-.276,3.779-.349,5.61" transform="translate(-318.831 -491.939)" fill="none" stroke="#0099be" stroke-miterlimit="10" stroke-width="1.8"/><g transform="translate(51.069 7.749)"><path d="M658.134,576.294c-2.055,1.935-3.784-1.14-4.074-2.187-.7-2.537.039-4.449,2.457-6.624s.3-1.935.3-1.935c-6.407,1.753-6.181,9.46-6.181,9.46-.62,7.055-1.127,10.94-1.032,14.344.1,3.572.5,6.868.5,6.868" transform="translate(-643.97 -531.97)" fill="none" stroke="#0099be" stroke-miterlimit="10" stroke-width="1.8"/><path d="M614.681,427.13s-1.063-8.924.055-15.924c1.153-7.219-.76-11.526,2.907-15.541,1.588-1.738,3.924-3.2,5.443-5.076,0,0,3.237-3.451,1.722-7.718a.542.542,0,0,0-1.019-.012,10.726,10.726,0,0,1-1.571,3.019c-1.148,1.33-2.357,1.27-4.05,0s-5.045-7.828.078-7.939" transform="translate(-612.09 -362.88)" fill="none" stroke="#0099be" stroke-miterlimit="10" stroke-width="1.8"/><path d="M606.23,259.91a.925.925,0,0,0-.861-.128,8.228,8.228,0,0,0-5.042,3.917l0,.006a10.394,10.394,0,0,0-1.068,5.363,9.758,9.758,0,0,0,2.317,5.77c4.452,5.158,12.124,1.717,16.237-2.085,4.159-3.845,14.408-20.819,7.561-36.09-6.481-14.456-17.513-10.755-23.536-8.329-7.494,3.018-11.959,14.51-7.42,20.979,4.187,5.968,8.524,4.644,9.17,4.4" transform="translate(-592.587 -226.041)" fill="none" stroke="#0099be" stroke-miterlimit="10" stroke-width="1.8"/><path d="M646.7,288.477c.73-3.253,4.135-9.637-1-10.362s-9.732,3.325-9.914,7.435,6.088,1.685,6.088,1.685" transform="translate(-631.519 -272.901)" fill="none" stroke="#0099be" stroke-miterlimit="10" stroke-width="1.8"/><path d="M759.5,317.539s8.9-3.867,7.994-7.917-5.847-8.183-8.187-1.45" transform="translate(-742.86 -296.851)" fill="none" stroke="#0099be" stroke-miterlimit="10" stroke-width="1.8"/><path d="M776.74,392.7s6.713.853,9.188-2.233c1.414-1.762,2.025-8.163-3.432-7.678" transform="translate(-758.571 -367.281)" fill="none" stroke="#0099be" stroke-miterlimit="10" stroke-width="1.8"/><path d="M738.177,539.33s9.216,4.469,7.826,8.882-7.825,9.873-10.123,6.186c0,0-2.283-2.654.771-8.231" transform="translate(-721.003 -508.373)" fill="none" stroke="#0099be" stroke-miterlimit="10" stroke-width="1.8"/><path d="M842.559,460.86s3.718,1.692,2.141,6.53c-1.281,3.928-3.195,7.038-5.13,6.857" transform="translate(-815.202 -437.659)" fill="none" stroke="#0099be" stroke-miterlimit="10" stroke-width="1.8"/></g><g transform="translate(0 0)"><path d="M295.475,596.22c.3-1.764.529-3.8.869-7.091.321-3.1-.68-7.481-.45-14.871,0,0-.311-6.958-6.719-8.711,0,0-2.115-.242.3,1.935s3.161,4.089,2.457,6.624c-.291,1.048-2.019,4.121-4.074,2.187" transform="translate(-266.944 -524.221)" fill="none" stroke="#0099be" stroke-miterlimit="10" stroke-width="1.8"/><path d="M413.414,147.5s.019,15.293-.594,23.689a101.923,101.923,0,0,0-.045,15.194,2.555,2.555,0,0,1-.564,1.864,8.9,8.9,0,0,1-3.418,1.853,9.176,9.176,0,0,1-1.429.357c-1.946.33-3.16,1.427-4.369,1.835a2.527,2.527,0,0,1-1.155.138,15.293,15.293,0,0,1,.3,1.779c.143.011.41.042.79.059a13.409,13.409,0,0,0,4.69-.687c.3-.1.608-.184.923-.262a7.418,7.418,0,0,1,3.454-.2,1.192,1.192,0,0,1,.86,1.082,2.737,2.737,0,0,0,.022.447c1.253,5.032,1.026,19.478.634,24.851" transform="translate(-369.678 -147.5)" fill="none" stroke="#0099be" stroke-miterlimit="10" stroke-width="1.8"/><path d="M404.253,620.41c.275,2.35.1,7.464.447,11.149a60.787,60.787,0,0,1-.52,14.118" transform="translate(-371.787 -573.678)" fill="none" stroke="#0099be" stroke-miterlimit="10" stroke-width="1.8"/><path d="M305.381,377.95c5.124.11,1.771,6.669.078,7.938s-2.9,1.33-4.05,0a10.775,10.775,0,0,1-1.57-3.019.541.541,0,0,0-1.019.011c-1.515,4.266,1.722,7.719,1.722,7.719,1.519,1.879,4.13,3.355,5.719,5.093a9.514,9.514,0,0,1,2.36,4.4" transform="translate(-276.459 -355.18)" fill="none" stroke="#0099be" stroke-miterlimit="10" stroke-width="1.8"/><path d="M97.3,259.862a.926.926,0,0,1,.861-.128,8.227,8.227,0,0,1,5.042,3.911l0,.006a10.367,10.367,0,0,1,1.069,5.356,9.737,9.737,0,0,1-2.317,5.762c-4.452,5.15-12.124,1.715-16.237-2.082-4.159-3.839-14.409-20.791-7.562-36.039,6.481-14.436,17.513-10.74,23.536-8.317,7.494,3.014,11.959,14.49,7.42,20.949-4.187,5.959-8.524,4.637-9.17,4.4" transform="translate(-75.867 -218.292)" fill="none" stroke="#0099be" stroke-miterlimit="10" stroke-width="1.8"/><path d="M261.254,288.477c-.73-3.253-4.135-9.637,1-10.362s9.732,3.325,9.914,7.435-6.088,1.685-6.088,1.685" transform="translate(-241.357 -265.137)" fill="none" stroke="#0099be" stroke-miterlimit="10" stroke-width="1.8"/><path d="M189.111,317.539s-8.9-3.867-7.994-7.917,5.847-8.183,8.187-1.45" transform="translate(-170.675 -289.083)" fill="none" stroke="#0099be" stroke-miterlimit="10" stroke-width="1.8"/><path d="M154.416,392.7s-6.713.853-9.188-2.233c-1.414-1.762-2.025-8.163,3.433-7.678" transform="translate(-137.506 -359.525)" fill="none" stroke="#0099be" stroke-miterlimit="10" stroke-width="1.8"/><path d="M184.551,539.33s-9.216,4.469-7.826,8.882,7.825,9.873,10.123,6.186c0,0,2.283-2.654-.771-8.231" transform="translate(-166.645 -500.62)" fill="none" stroke="#0099be" stroke-miterlimit="10" stroke-width="1.8"/><path d="M131.022,460.86s-3.718,1.692-2.141,6.53c1.281,3.928,3.195,7.038,5.13,6.857" transform="translate(-123.299 -429.904)" fill="none" stroke="#0099be" stroke-miterlimit="10" stroke-width="1.8"/></g></g></g><g transform="translate(547.13 3438.46)"><path d="M4.58,0a.971.971,0,1,1,0,1.942H.971A.971.971,0,1,1,.971,0Z" transform="translate(50.344 59.755)" fill="#0099be"/><path d="M12.348,0a.971.971,0,0,1,0,1.942H.971A.971.971,0,0,1,.971,0Z" transform="translate(42.575 63.325)" fill="#0099be"/><path d="M12.348,0a.971.971,0,0,1,0,1.942H.971A.971.971,0,0,1,.971,0Z" transform="translate(42.575 66.895)" fill="#0099be"/></g></g></svg>