<svg xmlns="http://www.w3.org/2000/svg" xmlns:xlink="http://www.w3.org/1999/xlink" width="100.207" height="100" viewBox="0 0 100.207 100"><defs><linearGradient id="a" y1="0.5" x2="1" y2="0.5" gradientUnits="objectBoundingBox"><stop offset="0" stop-color="#e5fbe7" stop-opacity="0"/><stop offset="0.998" stop-color="#d8f0d0"/><stop offset="1" stop-color="#ffb3b3"/></linearGradient></defs><g transform="translate(-27.793 -14.793)"><rect width="100" height="100" transform="translate(27.897 14.793)" fill="none"/><g transform="translate(27.793 18.113)"><g transform="translate(0 0)"><path d="M3.98,22.6C18.141-.674,52.924-2.192,68.8,1.581c3.789.9,7.613,2.213,10.5,4.822s4.65,6.778,3.484,10.494c-.857,2.73-3.119,4.851-3.959,7.587-1.053,3.429.353,7.2,2.564,10.023s5.159,4.961,7.8,7.384c8.494,7.777,13.961,20.433,9.314,30.97-2.217,5.027-6.421,8.915-10.914,12.077-5.69,4-12.154,7.126-19.058,7.99s-14.286-.723-19.606-5.207c-7.644-6.444-11.3-18.566-21.139-20.357-2.86-.521-5.814,0-8.7-.321-7.859-.86-13.846-7.721-16.855-15.031C-1.2,43.666-.711,30.315,3.98,22.6Z" transform="translate(0 0)" fill="url(#a)"/></g><g transform="translate(13.53 2.787)"><g transform="translate(0.979 4.893)" opacity="0.1"><g transform="translate(33.134 11.22)" opacity="0.1"><path d="M0,.979A.979.979,0,0,1,.979,0H4.616a.979.979,0,1,1,0,1.957H.979A.978.978,0,0,1,0,.979Z" transform="translate(0)" fill="#2626bc" opacity="0.1"/><path d="M0,.979A.979.979,0,0,1,.979,0H12.444a.979.979,0,0,1,0,1.957H.979A.978.978,0,0,1,0,.979Z" transform="translate(0 3.598)" fill="#2626bc" opacity="0.1"/><path d="M0,.979A.979.979,0,0,1,.979,0H12.444a.979.979,0,0,1,0,1.957H.979A.978.978,0,0,1,0,.979Z" transform="translate(0 7.195)" fill="#2626bc" opacity="0.1"/></g><path d="M74.4,46.1a1.957,1.957,0,0,1,1.957,1.957V60.553A1.957,1.957,0,0,1,74.4,62.51H60.564v9.777a9.267,9.267,0,1,1-18.532.155v-11.6a5.914,5.914,0,0,0-5.656-5.954,5.84,5.84,0,0,0-6.01,5.83V72.988a8.692,8.692,0,0,1-8.717,8.719,8.58,8.58,0,0,1-8.422-8.568V56.656s0,0,0-.006V53.6a6.026,6.026,0,0,0-3.5-5.461L5.259,46.09A9.026,9.026,0,0,1,0,37.888V24.195a.979.979,0,0,1,.979-.979V8.442A5.074,5.074,0,0,1,4.313,3.686L6.535,2.88A2.691,2.691,0,0,1,9.115.936H9.85A.977.977,0,0,1,11.8.979v5.29a.977.977,0,0,1-1.953.043H9.115A2.69,2.69,0,0,1,6.744,4.886L4.98,5.525A3.111,3.111,0,0,0,2.936,8.442V23.216a.979.979,0,0,1,.979.979V37.888a5.112,5.112,0,0,0,2.978,4.645l4.466,2.051a9.906,9.906,0,0,1,3.824,3.109,9.9,9.9,0,0,1,3.825-3.108l4.466-2.053a5.124,5.124,0,0,0,2.977-4.644V24.2a.979.979,0,0,1,.979-.979h0V8.442a3.112,3.112,0,0,0-2.045-2.916L23.59,4.875a2.689,2.689,0,0,1-2.377,1.437h-.735a.977.977,0,0,1-1.953-.043V.979A.977.977,0,0,1,20.479.936h.735A2.691,2.691,0,0,1,23.79,2.865l2.262.82a5.075,5.075,0,0,1,3.334,4.756V23.217a.979.979,0,0,1,.978.979V37.888a9.049,9.049,0,0,1-5.259,8.2l-4.464,2.051a6.024,6.024,0,0,0-3.5,5.46V73.033a4.744,4.744,0,0,0,4.734,4.762,4.662,4.662,0,0,0,4.576-4.656V60.884a9.748,9.748,0,1,1,19.5-.164V72.328a5.428,5.428,0,0,0,5.19,5.464,5.358,5.358,0,0,0,5.513-5.351V62.51H52.2a1.957,1.957,0,0,1-1.957-1.957V48.06A1.957,1.957,0,0,1,52.2,46.1h.164a12.609,12.609,0,1,1,12.439,0h9.6Z" transform="translate(0 0)" fill="#2626bc" opacity="0.1"/></g><g transform="translate(51.217 46.103)"><path d="M24.163,16.407H1.957A1.957,1.957,0,0,1,0,14.45V1.957A1.957,1.957,0,0,1,1.957,0H24.163A1.957,1.957,0,0,1,26.12,1.957V14.45A1.957,1.957,0,0,1,24.163,16.407Z" transform="translate(0 0)" fill="#ff405c"/><path d="M18,0A12.579,12.579,0,0,1,8.281,4.578,12.557,12.557,0,0,1,0,1.478,1.955,1.955,0,0,1,1.9,0Z" transform="translate(0.06 0)" fill="#e50523"/><g transform="translate(7.966 3.321)"><g transform="translate(7.829)"><path d="M4.616,1.957H.979A.979.979,0,0,1,.979,0H4.616a.979.979,0,1,1,0,1.957Z" transform="translate(0)" fill="#fff"/></g><g transform="translate(0 3.598)"><path d="M12.444,1.957H.979A.979.979,0,0,1,.979,0H12.444a.979.979,0,0,1,0,1.957Z" transform="translate(0)" fill="#fff"/></g><g transform="translate(0 7.195)"><path d="M12.444,1.957H.979A.979.979,0,0,1,.979,0H12.444a.979.979,0,0,1,0,1.957Z" transform="translate(0)" fill="#fff"/></g></g></g><g transform="translate(0.979 1.915)"><g transform="translate(7.406 0)"><path d="M3.418,3.418H1.709A1.709,1.709,0,1,1,1.709,0H3.418Z" transform="translate(0 0)" fill="#84b0fc"/><path d="M0,0H1.709a1.709,1.709,0,0,1,0,3.418H0Z" transform="translate(12.098 0)" fill="#84b0fc"/></g><g transform="translate(0 21.302)"><path d="M3.914.979V14.672a5.112,5.112,0,0,0,2.978,4.645l4.466,2.051a9.951,9.951,0,0,1,5.782,9.018v2.981a2,2,0,0,1-1.827,2.02,1.957,1.957,0,0,1-2.087-1.953V30.386a6.025,6.025,0,0,0-3.5-5.461L5.259,22.874A9.026,9.026,0,0,1,0,14.672V.979A.979.979,0,0,1,.979,0H2.936a.979.979,0,0,1,.979.979Z" transform="translate(0 0)" fill="#f9ab52"/></g><g transform="translate(13.226 21.302)"><path d="M47.338,16.329V49.07a9.267,9.267,0,1,1-18.532.155v-11.6a5.914,5.914,0,0,0-5.656-5.954,5.84,5.84,0,0,0-6.01,5.83V49.771A8.692,8.692,0,0,1,8.422,58.49,8.58,8.58,0,0,1,0,49.921V30.385a9.946,9.946,0,0,1,5.781-9.017l4.466-2.053a5.124,5.124,0,0,0,2.977-4.644V.979A.979.979,0,0,1,14.2,0H16.16a.979.979,0,0,1,.979.979V14.671a9.049,9.049,0,0,1-5.259,8.2L7.416,24.925a6.024,6.024,0,0,0-3.5,5.46V49.816a4.744,4.744,0,0,0,4.734,4.762,4.662,4.662,0,0,0,4.576-4.656V37.668a9.748,9.748,0,1,1,19.5-.164V49.111a5.428,5.428,0,0,0,5.19,5.464,5.358,5.358,0,0,0,5.513-5.351V16.4a2,2,0,0,1,1.826-2.02,1.957,1.957,0,0,1,2.088,1.953Z" transform="translate(0 0)" fill="#ffd9ab"/></g><path d="M3.914,1.958V12.967a15.437,15.437,0,0,1-1.985.127A15.7,15.7,0,0,1,0,12.974V2.024A2,2,0,0,1,1.826,0,1.957,1.957,0,0,1,3.914,1.958Z" transform="translate(56.649 35.673)" fill="#ff8b00"/><g transform="translate(45.969 20.612)"><path d="M25.218,12.609A12.609,12.609,0,1,1,12.609,0,12.609,12.609,0,0,1,25.218,12.609Z" transform="translate(0 0)" fill="#e1efff"/><path d="M12.228,6.114A6.114,6.114,0,1,1,6.114,0,6.114,6.114,0,0,1,12.228,6.114Z" transform="translate(6.495 6.495)" fill="#b2d0ff"/><path d="M9.275,4.638A4.638,4.638,0,1,1,4.638,0,4.638,4.638,0,0,1,9.275,4.638Z" transform="translate(7.972 7.971)" fill="#84b0fc"/></g></g><g transform="translate(0 0)"><path d="M75.38,45.124a2.939,2.939,0,0,1,2.935,2.936V60.553a2.939,2.939,0,0,1-2.936,2.936H67.238a.979.979,0,1,1,0-1.957h8.142a.98.98,0,0,0,.979-.979V48.06a.98.98,0,0,0-.979-.979H66.05l-.019,0a13.5,13.5,0,0,1-3.511,1.315V72.287a10.375,10.375,0,0,1-10.047,10.4l-.2,0A10.255,10.255,0,0,1,42.031,72.443v-11.6a4.954,4.954,0,0,0-4.707-4.976,4.861,4.861,0,0,0-5,4.852V72.986a9.826,9.826,0,0,1-2.928,6.961,9.4,9.4,0,0,1-6.786,2.738,9.592,9.592,0,0,1-9.383-9.547V53.6a5.044,5.044,0,0,0-2.931-4.572L5.829,46.979A10.032,10.032,0,0,1,0,37.888V24.195a1.959,1.959,0,0,1,1.957-1.957V8.442A5.074,5.074,0,0,1,5.292,3.686L7.513,2.88A2.691,2.691,0,0,1,10.094.936h.735a.977.977,0,0,1,1.953.043v5.29a.977.977,0,0,1-1.953.043h-.735A2.69,2.69,0,0,1,7.722,4.886l-1.763.639A3.111,3.111,0,0,0,3.915,8.442v13.8a1.959,1.959,0,0,1,1.957,1.957V37.888A4.144,4.144,0,0,0,8.28,41.644L12.745,43.7a10.917,10.917,0,0,1,3.413,2.475A10.858,10.858,0,0,1,19.577,43.7l4.466-2.051a4.144,4.144,0,0,0,2.408-3.756V33.4a.979.979,0,0,1,1.957,0v4.484a6.107,6.107,0,0,1-3.548,5.534l-4.466,2.051A8.969,8.969,0,0,0,15.183,53.6V73.139a7.626,7.626,0,0,0,7.459,7.59,7.44,7.44,0,0,0,5.38-2.177,7.857,7.857,0,0,0,2.343-5.566V60.72a6.818,6.818,0,0,1,7.017-6.809,6.925,6.925,0,0,1,6.606,6.933v11.6a8.3,8.3,0,0,0,8.448,8.286,8.409,8.409,0,0,0,8.127-8.441v-23.6c-.333.024-.667.041-1.006.041-.32,0-.636-.015-.951-.037V72.443a6.337,6.337,0,0,1-6.328,6.33l-.194,0a6.435,6.435,0,0,1-6.139-6.441V60.72a8.78,8.78,0,0,0-8.939-8.767,8.9,8.9,0,0,0-8.6,8.931V73.138a5.66,5.66,0,0,1-5.538,5.633,5.535,5.535,0,0,1-3.995-1.616,5.821,5.821,0,0,1-1.736-4.123V53.6a7.007,7.007,0,0,1,4.071-6.35L25.678,45.2a8.069,8.069,0,0,0,4.688-7.313V24.195H28.409v3.513a.979.979,0,1,1-1.957,0V24.195a1.959,1.959,0,0,1,1.957-1.957V8.442a3.112,3.112,0,0,0-2.045-2.916L24.57,4.875a2.689,2.689,0,0,1-2.377,1.437h-.735A.977.977,0,0,1,19.5,6.269V.979A.977.977,0,0,1,21.458.936h.735A2.691,2.691,0,0,1,24.77,2.865l2.262.82a5.075,5.075,0,0,1,3.334,4.756v13.8a1.959,1.959,0,0,1,1.957,1.957V37.888a10.032,10.032,0,0,1-5.828,9.091L22.029,49.03A5.044,5.044,0,0,0,19.1,53.6V73.033a3.852,3.852,0,0,0,1.151,2.728,3.589,3.589,0,0,0,2.589,1.055,3.694,3.694,0,0,0,3.614-3.676V60.884A10.864,10.864,0,0,1,36.971,50,10.736,10.736,0,0,1,47.9,60.72V72.329a4.463,4.463,0,0,0,4.24,4.485,4.379,4.379,0,0,0,4.506-4.371V63.488H53.174a2.939,2.939,0,0,1-2.936-2.936V48.06a2.926,2.926,0,0,1,.995-2.2,13.588,13.588,0,1,1,17.524-.739H75.38ZM22.192,4.354a.731.731,0,0,0,0-1.461h-.731V4.354ZM9.364,3.624a.731.731,0,0,0,.731.73h.731V2.893h-.731A.732.732,0,0,0,9.364,3.624Zm4.6,46.049a10.969,10.969,0,0,1,.979-1.934,8.958,8.958,0,0,0-3.015-2.265L7.463,43.422a6.107,6.107,0,0,1-3.548-5.534V24.195H1.958V37.888A8.07,8.07,0,0,0,6.646,45.2l4.466,2.051a6.981,6.981,0,0,1,2.853,2.421Zm42.685-1.266A13.492,13.492,0,0,1,53.1,47.089a.977.977,0,0,0-.906.971V60.553a.98.98,0,0,0,.979.979h3.475Zm2.908-1.64A11.631,11.631,0,1,0,47.927,35.136,11.644,11.644,0,0,0,59.558,46.767Z" transform="translate(0 0)" fill="#0099be"/><path d="M0,.979A.979.979,0,0,1,.979,0H4.616a.979.979,0,1,1,0,1.957H.979A.978.978,0,0,1,0,.979Z" transform="translate(34.113 11.22)" fill="#0099be"/><path d="M0,.979A.979.979,0,0,1,.979,0H12.444a.979.979,0,0,1,0,1.957H.979A.978.978,0,0,1,0,.979Z" transform="translate(34.113 14.818)" fill="#0099be"/><path d="M0,.979A.979.979,0,0,1,.979,0H12.444a.979.979,0,0,1,0,1.957H.979A.978.978,0,0,1,0,.979Z" transform="translate(34.113 18.415)" fill="#0099be"/></g><path d="M3.2,6.393a.979.979,0,0,1-.979-.979A1.241,1.241,0,0,0,.979,4.175a.979.979,0,0,1,0-1.957A1.241,1.241,0,0,0,2.218.979a.979.979,0,0,1,1.957,0A1.241,1.241,0,0,0,5.415,2.218a.979.979,0,0,1,0,1.957A1.241,1.241,0,0,0,4.175,5.415.979.979,0,0,1,3.2,6.393Z" transform="translate(58.346 11.006)" fill="#0099be"/><path d="M3.2,6.393a.979.979,0,0,1-.979-.979A1.241,1.241,0,0,0,.979,4.175a.979.979,0,1,1,0-1.957A1.241,1.241,0,0,0,2.218.979a.979.979,0,0,1,1.957,0A1.241,1.241,0,0,0,5.415,2.218a.979.979,0,0,1,0,1.957A1.241,1.241,0,0,0,4.175,5.415.979.979,0,0,1,3.2,6.393Z" transform="translate(1.593 61.531)" fill="#f6911f"/><g transform="translate(14.773 6.511)"><path d="M3.2,6.393a.979.979,0,0,1-.979-.979A1.241,1.241,0,0,0,.979,4.175a.979.979,0,0,1,0-1.957A1.241,1.241,0,0,0,2.218.979a.979.979,0,0,1,1.957,0,1.241,1.241,0,0,0,1.239,1.24.979.979,0,0,1,0,1.957A1.241,1.241,0,0,0,4.175,5.415.978.978,0,0,1,3.2,6.393Z" transform="translate(50.999 0)" fill="#ff405c"/><g transform="translate(56.162 10.467)"><g transform="translate(2.368 0)"><path d="M.979,1.986A.979.979,0,0,1,0,1.008V.979a.979.979,0,1,1,1.957,0v.029A.979.979,0,0,1,.979,1.986Z" transform="translate(0 0)" fill="#ff405c"/><path d="M.979,1.986A.979.979,0,0,1,0,1.008V.979a.979.979,0,1,1,1.957,0v.029A.979.979,0,0,1,.979,1.986Z" transform="translate(0 5.438)" fill="#ff405c"/></g><g transform="translate(0 1.367)"><path d="M1,1.972A.973.973,0,0,1,.514,1.84L.488,1.826A.979.979,0,1,1,1.469.132l.025.015A.979.979,0,0,1,1,1.972Z" transform="translate(0 0)" fill="#ff405c"/><path d="M1,1.972A.973.973,0,0,1,.514,1.84L.488,1.826A.979.979,0,1,1,1.469.132l.025.015A.979.979,0,0,1,1,1.972Z" transform="translate(4.709 2.719)" fill="#ff405c"/></g><g transform="translate(0 1.367)"><path d="M.98,1.972A.979.979,0,0,1,.489.147L.514.132a.979.979,0,1,1,.981,1.694l-.025.015A.975.975,0,0,1,.98,1.972Z" transform="translate(0 2.719)" fill="#ff405c"/><path d="M.98,1.972A.979.979,0,0,1,.488.147L.514.132a.979.979,0,1,1,.981,1.694l-.025.015A.975.975,0,0,1,.98,1.972Z" transform="translate(4.709 0)" fill="#ff405c"/></g></g><g transform="translate(0 9.1)"><g transform="translate(2.368)"><path d="M.979,1.987A.979.979,0,0,1,0,1.008V.979a.979.979,0,0,1,1.957,0v.029A.978.978,0,0,1,.979,1.987Z" fill="#f6911f"/><path d="M.979,1.987A.979.979,0,0,1,0,1.008V.979a.979.979,0,0,1,1.957,0v.029A.978.978,0,0,1,.979,1.987Z" transform="translate(0 5.438)" fill="#f6911f"/></g><g transform="translate(0 1.367)"><path d="M1,1.972a.973.973,0,0,1-.488-.131L.49,1.826a.979.979,0,1,1,.978-1.7l.025.015A.979.979,0,0,1,1,1.972Z" transform="translate(0 0)" fill="#f6911f"/><path d="M1,1.972a.973.973,0,0,1-.489-.132L.489,1.826A.979.979,0,1,1,1.469.132l.025.015A.979.979,0,0,1,1,1.972Z" transform="translate(4.709 2.719)" fill="#f6911f"/></g><g transform="translate(0 1.367)"><path d="M.98,1.972A.979.979,0,0,1,.49.146L.515.131a.979.979,0,0,1,.978,1.7l-.025.015a.973.973,0,0,1-.488.131Z" transform="translate(0 2.719)" fill="#f6911f"/><path d="M.98,1.972A.979.979,0,0,1,.488.147L.514.132a.979.979,0,1,1,.981,1.694l-.025.015a.974.974,0,0,1-.489.132Z" transform="translate(4.709 0)" fill="#f6911f"/></g></g></g></g></g></g></svg>