<svg xmlns="http://www.w3.org/2000/svg" xmlns:xlink="http://www.w3.org/1999/xlink" width="100" height="100" viewBox="0 0 100 100"><defs><linearGradient id="a" x1="0.134" y1="0.879" x2="0.771" y2="0.035" gradientUnits="objectBoundingBox"><stop offset="0" stop-color="#e5fbe7" stop-opacity="0"/><stop offset="0.294" stop-color="#e5fbe7" stop-opacity="0.322"/><stop offset="0.787" stop-color="#e5fbe7"/><stop offset="1" stop-color="#d8f0d0"/></linearGradient></defs><g transform="translate(-1108 -2612)"><rect width="100" height="100" transform="translate(1108 2612)" fill="none"/><g transform="translate(1108 2616.832)"><g transform="translate(0 0)"><path d="M3.122,53.862C-1.718,37.323-4.92-5.5,25.24.588,35.21,2.6,34.392,12.578,42.578,15.919,57.141,21.864,59.1,1.4,75.85,5.578c19.194,4.789,27.394,32.441,21.918,48.748-2.583,7.691-7.287,16.839-16.529,17.336-7.176.386-12.029-12.006-19.189-10.624-16.265,3.14-9.326,26.051-27.094,28.334-17.715,2.276-28.2-23.08-31.835-35.51Z" transform="translate(0)" fill="url(#a)"/></g><g transform="translate(8.602 3.629)"><g transform="translate(0.971 5.826)" opacity="0.1"><path d="M4.58,0a.971.971,0,1,1,0,1.942H.971A.971.971,0,1,1,.971,0Z" transform="translate(49.373 58.784)" fill="#2626bc" opacity="0.1"/><path d="M12.348,0a.971.971,0,0,1,0,1.942H.971A.971.971,0,0,1,.971,0Z" transform="translate(41.604 62.354)" fill="#2626bc" opacity="0.1"/><path d="M12.348,0a.971.971,0,0,1,0,1.942H.971A.971.971,0,0,1,.971,0Z" transform="translate(41.604 65.924)" fill="#2626bc" opacity="0.1"/><path d="M79.719,21.718a1.942,1.942,0,0,1,0,2.746L77.081,27.1a1.942,1.942,0,0,1-2.746,0l-.735-.735-5,5a13.5,13.5,0,1,1-18.69,18.69l-4.551,4.551a2.427,2.427,0,0,1-.873.56L24.617,62.536l-7.138,7.138a2.428,2.428,0,0,1-3.433,0l-.343-.343-6.38,6.38.245.245a1.48,1.48,0,0,1,0,2.094L6.4,79.212a3.769,3.769,0,0,1-5.278.051,3.837,3.837,0,0,1,.008-5.44l1.1-1.1a1.48,1.48,0,0,1,2.094,0l.245.245,6.38-6.38-.343-.343a2.428,2.428,0,0,1,0-3.433l7.138-7.138L25.119,35.8a2.427,2.427,0,0,1,.56-.873L53.921,6.687l-.735-.735a1.942,1.942,0,0,1,0-2.746L55.823.569a1.942,1.942,0,0,1,2.746,0L79.719,21.718ZM47.928,45.172a13.491,13.491,0,0,1,.634-7.31L42.4,31.7a.971.971,0,0,1,0-1.373l.143-.143-2.628-2.628L29.487,37.987,23.708,53.569l7.643-7.643A1.942,1.942,0,0,1,34.1,48.673l-8.216,8.216L42.3,50.8l5.628-5.628ZM70.167,22.933,57.354,10.121,42.646,24.829l2.628,2.628.143-.143a.971.971,0,0,1,1.373,0l5.329,5.329a13.485,13.485,0,0,1,11.594-3.257Z" transform="translate(0 0)" fill="#2626bc" opacity="0.1"/></g><g transform="translate(0.971 0.971)"><path d="M0,0H18.117V3.86H0Z" transform="translate(42.645 24.819) rotate(45)" fill="#b3b3ff"/><g transform="translate(3.59 62.891)"><g transform="translate(0 0)"><path d="M0,0H15.618V3.884H0Z" transform="translate(0 11.044) rotate(-45)" fill="#e1efff"/></g><g transform="translate(5 0)"><path d="M0,0H8.547V3.884H0Z" transform="matrix(0.707, -0.707, 0.707, 0.707, 0, 6.044)" fill="#b2d0ff"/></g></g><g transform="translate(19.346 45.358)"><path d="M0,12.574l12-12a1.942,1.942,0,0,1,2.746,2.746l-12,12Z" transform="translate(0 0)" fill="#84b0fc"/></g><g transform="translate(9.902 5.676)"><g transform="translate(0 0)"><path d="M2.428,62.282.711,60.565a2.428,2.428,0,0,1,0-3.433l7.138-7.138,7.368-19.868a2.427,2.427,0,0,1,.56-.873L44.319.711a2.428,2.428,0,1,1,3.433,3.433L19.585,32.311,12.217,52.18a2.427,2.427,0,0,1-.56.873Z" transform="translate(0 0)" fill="#e1efff"/></g><g transform="translate(2.427 16.246)"><path d="M0,46.036l9.23-9.23a2.427,2.427,0,0,1,.873-.56l19.868-7.368L58.138.711a2.428,2.428,0,0,1,3.433,3.433L33.029,32.686a2.427,2.427,0,0,1-.873.56L12.288,40.614,5.15,47.753a2.428,2.428,0,0,1-3.433,0Z" transform="translate(0 0)" fill="#b2d0ff"/></g></g><g transform="translate(51.378 5.676)"><g transform="translate(0 0)"><path d="M0,3.554,2.843.711A2.428,2.428,0,1,1,6.276,4.144L3.433,6.987Z" transform="translate(0 0)" fill="#84b0fc"/></g><g transform="translate(16.246 16.246)"><path d="M0,3.554,2.843.711A2.428,2.428,0,0,1,6.276,4.144L3.433,6.987Z" transform="translate(0 0)" fill="#84b0fc"/></g></g><g transform="translate(0 72.286)"><path d="M4.332.433,7.568,3.669a1.48,1.48,0,0,1,0,2.094L6.4,6.926a3.769,3.769,0,0,1-5.278.051,3.837,3.837,0,0,1,.008-5.44l1.1-1.1a1.481,1.481,0,0,1,2.094,0Z" transform="translate(0 0)" fill="#84b0fc"/></g><g transform="translate(42.118 0)"><path d="M6.467,10.855.284,4.673a.971.971,0,0,1,0-1.373L3.3.284a.971.971,0,0,1,1.373,0l6.183,6.183a.971.971,0,0,1,0,1.373L7.84,10.855a.971.971,0,0,1-1.373,0Z" transform="translate(0 27.03)" fill="#ffd9ab"/><path d="M21.718,27.1.569,5.953a1.942,1.942,0,0,1,0-2.746L3.206.569a1.942,1.942,0,0,1,2.746,0L27.1,21.718a1.942,1.942,0,0,1,0,2.746L24.464,27.1a1.942,1.942,0,0,1-2.746,0Z" transform="translate(10.5 0)" fill="#ffd9ab"/></g></g><g transform="translate(48.659 30.117)"><path d="M26.993,13.5A13.5,13.5,0,1,1,13.5,0,13.5,13.5,0,0,1,26.993,13.5Z" transform="translate(0)" fill="#ff405c"/><path d="M14.5,5.379a1.942,1.942,0,0,1,1.942,1.942v1.8A1.942,1.942,0,0,1,14.5,11.065H11.065V14.5a1.942,1.942,0,0,1-1.942,1.942h-1.8A1.942,1.942,0,0,1,5.379,14.5V11.065H1.942A1.942,1.942,0,0,1,0,9.123v-1.8A1.942,1.942,0,0,1,1.942,5.379H5.379V1.942A1.942,1.942,0,0,1,7.321,0h1.8a1.942,1.942,0,0,1,1.942,1.942V5.379H14.5Z" transform="translate(5.274 5.274)" fill="#fff"/></g><g transform="translate(0 0)"><path d="M4.58,0a.971.971,0,1,1,0,1.942H.971A.971.971,0,1,1,.971,0Z" transform="translate(50.344 59.755)" fill="#0099be"/><path d="M12.348,0a.971.971,0,0,1,0,1.942H.971A.971.971,0,0,1,.971,0Z" transform="translate(42.575 63.325)" fill="#0099be"/><path d="M12.348,0a.971.971,0,0,1,0,1.942H.971A.971.971,0,0,1,.971,0Z" transform="translate(42.575 66.895)" fill="#0099be"/><path d="M81.376,22a2.913,2.913,0,0,1,0,4.12l-2.637,2.637a2.916,2.916,0,0,1-4.12,0l-.048-.048-3.512,3.512A14.459,14.459,0,1,1,50.764,52.517l-3.749,3.749a3.374,3.374,0,0,1-1.222.783L26.125,64.344l-6.988,6.988a3.391,3.391,0,0,1-4.436.316L9.609,76.74a2.446,2.446,0,0,1-.383,2.966L8.062,80.87a4.763,4.763,0,0,1-6.638.064A4.657,4.657,0,0,1,0,77.592,4.891,4.891,0,0,1,1.42,74.107l1.1-1.1a2.446,2.446,0,0,1,2.966-.383l5.092-5.092a3.4,3.4,0,0,1,.316-4.436L17.885,56.1,25.18,36.435a3.417,3.417,0,0,1,.783-1.222L53.519,7.658l-.048-.048a2.913,2.913,0,0,1,0-4.12L56.108.853a2.913,2.913,0,0,1,4.12,0L81.376,22ZM42.26,28.53l1.255,1.255,1.357-1.357-1.255-1.255Zm6.959,8.617a14.531,14.531,0,0,1,2.5-3.534l-4.641-4.641L44.06,31.987l5.159,5.16ZM31.3,39.5l-4.16,11.217,4.5-4.5a2.913,2.913,0,1,1,4.12,4.119L30.682,55.4l12.053-4.47,5.12-5.12a14.464,14.464,0,0,1,.561-6.725L42.687,33.36a1.94,1.94,0,0,1-.432-2.09L40.887,29.9ZM24.551,57.678l1.765-.655,8.066-8.066a.971.971,0,0,0-1.373-1.373l-7.493,7.493ZM8.294,75.308,13.3,70.3l-.686-.686h0l-.687-.687L6.921,73.935Zm-.441,3.025a.51.51,0,0,0,0-.721L4.617,74.377a.509.509,0,0,0-.72,0l-1.1,1.1a2.938,2.938,0,0,0-.85,2.094,2.731,2.731,0,0,0,.829,1.961A2.811,2.811,0,0,0,6.689,79.5l1.164-1.164Zm41.8-27.452a14.377,14.377,0,0,1-1.273-2.847l-4.423,4.423a.973.973,0,0,1-.349.224L23.74,60.05a1.443,1.443,0,0,0-.523.336l-8.543,8.543,1.03,1.03a1.457,1.457,0,0,0,2.06,0L24.9,62.821a.973.973,0,0,1,.349-.224l19.868-7.368a1.446,1.446,0,0,0,.524-.336Zm12.5-19.793A12.525,12.525,0,1,0,74.68,43.614,12.539,12.539,0,0,0,62.155,31.088ZM73.2,27.338l-2.06-2.06L66.576,29.84a14.4,14.4,0,0,1,2.847,1.273ZM80,24.749a.971.971,0,0,0,0-1.373L58.854,2.227a.971.971,0,0,0-1.373,0L54.844,4.864a.971.971,0,0,0,0,1.373L65.335,16.729A.971.971,0,0,1,63.962,18.1l-9.07-9.07L27.337,36.587a1.471,1.471,0,0,0-.336.524L19.632,56.978a.967.967,0,0,1-.224.349L12.27,64.466a1.458,1.458,0,0,0,0,2.06l1.03,1.03,8.543-8.543a1.446,1.446,0,0,0,.336-.524l7.369-19.868a.967.967,0,0,1,.224-.349L40.2,27.844h0l2.727-2.727,0,0,0,0,10.7-10.7a.971.971,0,0,1,1.373,1.373L44.991,25.8l1.368,1.368a1.941,1.941,0,0,1,2.09.432l4.7,4.7a14.449,14.449,0,0,1,11.2-2.989L69.765,23.9,67.959,22.1a.971.971,0,0,1,1.373-1.373l6.661,6.661a.973.973,0,0,0,1.373,0L80,24.749Z" fill="#0099be"/></g><path d="M3.172,6.344A.971.971,0,0,1,2.2,5.373a1.231,1.231,0,0,0-1.23-1.23.971.971,0,0,1,0-1.942A1.231,1.231,0,0,0,2.2.971a.971.971,0,0,1,1.942,0A1.231,1.231,0,0,0,5.373,2.2a.971.971,0,1,1,0,1.942,1.231,1.231,0,0,0-1.23,1.23A.971.971,0,0,1,3.172,6.344Z" transform="translate(8.294 47.093)" fill="#ff9f2d"/><path d="M3.172,6.344A.971.971,0,0,1,2.2,5.373a1.231,1.231,0,0,0-1.23-1.23.971.971,0,0,1,0-1.942A1.232,1.232,0,0,0,2.2.971a.971.971,0,0,1,1.942,0A1.231,1.231,0,0,0,5.373,2.2a.971.971,0,1,1,0,1.942,1.231,1.231,0,0,0-1.23,1.23A.971.971,0,0,1,3.172,6.344Z" transform="translate(78.087 33.29)" fill="#ff405c"/><g transform="translate(11.379 35.914)"><g transform="translate(2.349)"><path d="M.971,1.971A.971.971,0,0,1,0,1V.971a.971.971,0,0,1,1.942,0V1A.971.971,0,0,1,.971,1.971Z" fill="#0099be"/><path d="M.971,1.971A.971.971,0,0,1,0,1V.971a.971.971,0,0,1,1.942,0V1A.971.971,0,0,1,.971,1.971Z" transform="translate(0 5.396)" fill="#0099be"/></g><g transform="translate(0 1.357)"><path d="M1,1.957a.967.967,0,0,1-.481-.128L.489,1.814A.971.971,0,0,1,1.453.128l.025.014A.971.971,0,0,1,1,1.957Z" transform="translate(0 0)" fill="#0099be"/><path d="M1,1.957A.965.965,0,0,1,.51,1.826L.485,1.812A.971.971,0,0,1,1.458.131l.025.015A.971.971,0,0,1,1,1.957Z" transform="translate(4.673 2.698)" fill="#0099be"/></g><g transform="translate(0 1.357)"><path d="M.972,1.957A.971.971,0,0,1,.485.146L.51.131a.971.971,0,0,1,.973,1.681l-.025.015a.966.966,0,0,1-.486.131Z" transform="translate(0 2.698)" fill="#0099be"/><path d="M.972,1.957A.971.971,0,0,1,.489.142L.515.128a.971.971,0,1,1,.963,1.686l-.025.014a.964.964,0,0,1-.481.128Z" transform="translate(4.673 0)" fill="#0099be"/></g></g><g transform="translate(40.15 1.369)"><g transform="translate(2.349)"><path d="M.971,1.971A.971.971,0,0,1,0,1V.971a.971.971,0,0,1,1.942,0V1A.971.971,0,0,1,.971,1.971Z" fill="#f6911f"/><path d="M.971,1.971A.971.971,0,0,1,0,1V.971a.971.971,0,0,1,1.942,0V1A.971.971,0,0,1,.971,1.971Z" transform="translate(0 5.396)" fill="#f6911f"/></g><g transform="translate(0 1.356)"><path d="M1,1.957a.967.967,0,0,1-.481-.128L.489,1.814A.971.971,0,1,1,1.453.128l.025.014A.971.971,0,0,1,1,1.957Z" transform="translate(0 0)" fill="#f6911f"/><path d="M1,1.957a.967.967,0,0,1-.483-.129L.487,1.813A.971.971,0,1,1,1.455.129L1.48.144A.971.971,0,0,1,1,1.957Z" transform="translate(4.673 2.698)" fill="#f6911f"/></g><g transform="translate(0 1.356)"><path d="M.972,1.957A.971.971,0,0,1,.485.146L.51.131a.971.971,0,0,1,.973,1.681l-.025.015a.963.963,0,0,1-.486.131Z" transform="translate(0 2.698)" fill="#f6911f"/><path d="M.972,1.957A.971.971,0,0,1,.492.141L.518.126a.971.971,0,1,1,.958,1.689L1.45,1.83a.968.968,0,0,1-.478.126Z" transform="translate(4.673 0)" fill="#f6911f"/></g></g><g transform="translate(61.184 62.869)"><g transform="translate(2.349 0)"><path d="M.971,1.971A.971.971,0,0,1,0,1V.971a.971.971,0,0,1,1.942,0V1A.971.971,0,0,1,.971,1.971Z" transform="translate(0 0)" fill="#ff7386"/><path d="M.971,1.971A.971.971,0,0,1,0,1V.971a.971.971,0,1,1,1.942,0V1A.971.971,0,0,1,.971,1.971Z" transform="translate(0 5.396)" fill="#ff7386"/></g><g transform="translate(0 1.356)"><path d="M1,1.957A.965.965,0,0,1,.51,1.826L.485,1.812A.971.971,0,0,1,1.458.131l.025.015A.971.971,0,0,1,1,1.957Z" transform="translate(0 0)" fill="#ff7386"/><path d="M1,1.957a.966.966,0,0,1-.483-.129L.487,1.813A.971.971,0,1,1,1.455.129L1.48.144A.971.971,0,0,1,1,1.957Z" transform="translate(4.673 2.698)" fill="#ff7386"/></g><g transform="translate(0 1.356)"><path d="M.972,1.957A.971.971,0,0,1,.485.146L.51.131a.971.971,0,1,1,.973,1.681l-.025.015a.966.966,0,0,1-.486.131Z" transform="translate(0 2.698)" fill="#ff7386"/><path d="M.972,1.957A.971.971,0,0,1,.487.144L.513.129A.971.971,0,1,1,1.48,1.813l-.025.015a.967.967,0,0,1-.483.129Z" transform="translate(4.673 0)" fill="#ff7386"/></g></g></g></g></g></svg>