<svg xmlns="http://www.w3.org/2000/svg" xmlns:xlink="http://www.w3.org/1999/xlink" width="100" height="100" viewBox="0 0 100 100"><defs><linearGradient id="a" y1="0.5" x2="1" y2="0.5" gradientUnits="objectBoundingBox"><stop offset="0" stop-color="#e5fbe7" stop-opacity="0"/><stop offset="0.998" stop-color="#d8f0d0"/><stop offset="1" stop-color="#ffb3b3"/></linearGradient></defs><g transform="translate(-345 -2849)"><rect width="100" height="100" transform="translate(345 2849)" fill="none"/><g transform="translate(345 2849.146)"><g transform="translate(0 0)"><path d="M88.15,8.432c10.518,6.411,16.018,19.656,7.726,30.293-8.725,11.192-23.716,5.518-31.4,19.509C56.4,72.923,65,84.694,47.948,94.778c-9.313,5.509-33.815,8.432-41.206-3.209-6.787-10.689,5.1-22.285,3.2-34.394C7.567,42.084-5.21,38.936,2.381,20.519,8.056,6.752,56.824-10.663,88.15,8.432Z" transform="translate(0)" fill="url(#a)"/></g><g transform="translate(5.14 9.783)"><path d="M87.42,61.217A9.85,9.85,0,0,1,77.806,73.21,25.992,25.992,0,0,1,51.813,47.218V36.38a11.119,11.119,0,0,1-7.984-4.558,11.119,11.119,0,0,1-7.984,4.558V47.218A25.992,25.992,0,0,1,9.852,73.21,9.85,9.85,0,0,1,.237,61.217c2.685-11.988,10.936-42.692,25-42.692h5.351a5.26,5.26,0,0,1,5.26,5.26v8.338a6.9,6.9,0,0,0,5.869-6.813V2.115a2.14,2.14,0,0,1,.011-.216,2.115,2.115,0,0,1,4.208,0,2.14,2.14,0,0,1,.011.216V25.309a6.9,6.9,0,0,0,5.869,6.813V23.784a5.26,5.26,0,0,1,5.26-5.26h5.351c14.06,0,22.31,30.7,25,42.692Z" transform="translate(0.979 5.853)" fill="#e1efff"/><g transform="translate(0.979 0.975)"><path d="M35.844,5.26V28.693A25.992,25.992,0,0,1,9.852,54.686,9.85,9.85,0,0,1,.237,42.692C2.923,30.7,11.173,0,25.233,0h5.351a5.26,5.26,0,0,1,5.26,5.26Z" transform="translate(0 18.524)" fill="#ff405c"/><g transform="translate(25.745)"><g transform="translate(1.922)"><path d="M16.162,0a2.115,2.115,0,0,1,2.115,2.115V25.309a11.132,11.132,0,0,1-11.12,11.12H2.115a2.115,2.115,0,1,1,0-4.23H7.157a6.9,6.9,0,0,0,6.889-6.889V2.115A2.115,2.115,0,0,1,16.162,0Z" transform="translate(0)" fill="#84b0fc"/></g><path d="M6.191,0a9.785,9.785,0,0,0,0,11.68H0V0H6.191Z" transform="translate(0 28.517)" fill="#ff7f92"/></g></g><path d="M0,5.26A5.26,5.26,0,0,1,5.26,0h5.351c14.06,0,22.31,30.7,25,42.692a9.85,9.85,0,0,1-9.614,11.994A25.992,25.992,0,0,1,0,28.693V5.26Z" transform="translate(52.792 19.5)" fill="#ff405c"/><g transform="translate(42.693 0.975)"><path d="M2.115,0A2.115,2.115,0,0,1,4.23,2.115V25.309A6.9,6.9,0,0,0,11.12,32.2h5.042a2.115,2.115,0,1,1,0,4.23H11.12A11.132,11.132,0,0,1,0,25.309V2.115A2.115,2.115,0,0,1,2.115,0Z" transform="translate(0 0)" fill="#b2d0ff"/></g><path d="M0,0H6.191V11.68H0A9.731,9.731,0,0,0,1.934,5.84,9.731,9.731,0,0,0,0,0Z" transform="translate(56.7 29.492)" fill="#ff7f92"/><path d="M89.351,61.979A10.826,10.826,0,0,1,78.785,75.162,27,27,0,0,1,51.817,48.193V38.212a12.133,12.133,0,0,1-9.355-7.749A7.865,7.865,0,0,1,35.8,34.15H32.037a8.819,8.819,0,0,0-.012,2.279H35.8a10.041,10.041,0,0,0,4.146-.886.975.975,0,1,1,.8,1.779,11.954,11.954,0,0,1-2.951.893v9.979A27,27,0,0,1,10.831,75.161,10.826,10.826,0,0,1,.265,61.979c1.277-5.7,4.053-16.665,8.3-26.031C13.8,24.386,19.736,18.524,26.212,18.524h5.351A6.243,6.243,0,0,1,37.8,24.76v7.091a5.923,5.923,0,0,0,3.918-5.566V3.091a3.091,3.091,0,1,1,6.181,0V26.285a5.924,5.924,0,0,0,3.918,5.566V24.76a6.243,6.243,0,0,1,6.235-6.235H63.4c6.476,0,12.415,5.862,17.652,17.424,4.243,9.366,7.019,20.329,8.3,26.031ZM35.8,32.2h.044V24.76a4.289,4.289,0,0,0-4.284-4.284H26.213c-5.641,0-10.982,5.477-15.875,16.278C6.167,45.96,3.429,56.777,2.169,62.405a8.875,8.875,0,0,0,8.662,10.8A25.045,25.045,0,0,0,35.848,48.193V38.378H32.5a8.847,8.847,0,0,0,1.2,2.211.976.976,0,0,1-1.567,1.163,10.76,10.76,0,0,1,0-12.843A.976.976,0,1,1,33.7,30.074,8.862,8.862,0,0,0,32.531,32.2Zm7.865-5.914A10.156,10.156,0,0,0,53.812,36.429h3.779a8.821,8.821,0,0,0-.012-2.279H53.812a7.874,7.874,0,0,1-7.865-7.865V3.09a1.139,1.139,0,0,0-2.279,0V26.285ZM85.685,69.917a8.818,8.818,0,0,0,1.763-7.512c-1.261-5.628-4-16.445-8.169-25.652C74.386,25.952,69.044,20.475,63.4,20.475H58.052a4.289,4.289,0,0,0-4.284,4.284V32.2h3.317a8.859,8.859,0,0,0-1.167-2.125.976.976,0,0,1,1.567-1.163,10.76,10.76,0,0,1,0,12.843.976.976,0,1,1-1.567-1.163,8.854,8.854,0,0,0,1.2-2.211H53.768v9.815A25.045,25.045,0,0,0,78.785,73.21a8.837,8.837,0,0,0,6.9-3.293Z" transform="translate(0 0)" fill="#0099be"/><g transform="translate(17.217 50.916)"><path d="M10.327,5.163A5.163,5.163,0,1,1,5.163,0,5.163,5.163,0,0,1,10.327,5.163Z" transform="translate(2.585)" fill="#fe1d3c"/><path d="M7.3,3.651A3.651,3.651,0,1,1,3.651,0,3.651,3.651,0,0,1,7.3,3.651Z" transform="translate(0 6.676)" fill="#ffb1bd"/><g transform="translate(42.269)"><path d="M10.327,5.163A5.163,5.163,0,1,1,5.163,0,5.163,5.163,0,0,1,10.327,5.163Z" transform="translate(0)" fill="#fe1d3c"/><path d="M7.3,3.651A3.651,3.651,0,1,1,3.651,0,3.651,3.651,0,0,1,7.3,3.651Z" transform="translate(5.61 6.676)" fill="#ffb1bd"/></g></g><path d="M3.187,6.374A.976.976,0,0,1,2.211,5.4,1.237,1.237,0,0,0,.976,4.162a.976.976,0,1,1,0-1.951A1.237,1.237,0,0,0,2.211.976a.976.976,0,0,1,1.951,0A1.237,1.237,0,0,0,5.4,2.211a.976.976,0,1,1,0,1.951A1.237,1.237,0,0,0,4.162,5.4.975.975,0,0,1,3.187,6.374Z" transform="translate(49.606 65.424)" fill="#ff9f2d"/><path d="M3.187,6.374A.976.976,0,0,1,2.211,5.4,1.237,1.237,0,0,0,.976,4.162a.976.976,0,0,1,0-1.951A1.237,1.237,0,0,0,2.211.976a.976.976,0,0,1,1.951,0A1.237,1.237,0,0,0,5.4,2.211a.976.976,0,1,1,0,1.951A1.237,1.237,0,0,0,4.162,5.4.976.976,0,0,1,3.187,6.374Z" transform="translate(69.212 11.011)" fill="#0099be"/><path d="M3.187,6.374A.976.976,0,0,1,2.211,5.4,1.237,1.237,0,0,0,.976,4.162a.976.976,0,0,1,0-1.951A1.237,1.237,0,0,0,2.211.976a.976.976,0,0,1,1.951,0A1.237,1.237,0,0,0,5.4,2.211a.976.976,0,1,1,0,1.951A1.237,1.237,0,0,0,4.162,5.4.976.976,0,0,1,3.187,6.374Z" transform="translate(15.715 4.768)" fill="#ff405c"/><g transform="translate(9.034 11.473)"><g transform="translate(2.36)"><path d="M.976,1.98A.976.976,0,0,1,0,1V.976a.976.976,0,0,1,1.951,0V1A.976.976,0,0,1,.976,1.98Z" fill="#ff9f2d"/><path d="M.976,1.98A.976.976,0,0,1,0,1V.976a.976.976,0,0,1,1.951,0V1A.976.976,0,0,1,.976,1.98Z" transform="translate(0 5.421)" fill="#ff9f2d"/></g><g transform="translate(0 1.362)"><path d="M1,1.966a.97.97,0,0,1-.488-.132L.487,1.82A.976.976,0,1,1,1.465.132L1.49.146A.976.976,0,0,1,1,1.966Z" transform="translate(0 0)" fill="#ff9f2d"/><path d="M1,1.966a.972.972,0,0,1-.482-.128L.493,1.823a.976.976,0,0,1,.965-1.7l.025.014A.976.976,0,0,1,1,1.966Z" transform="translate(4.695 2.711)" fill="#ff9f2d"/></g><g transform="translate(0 1.362)"><path d="M.977,1.966A.976.976,0,0,1,.492.143L.517.129a.975.975,0,1,1,.968,1.694l-.025.014a.969.969,0,0,1-.483.129Z" transform="translate(0 2.711)" fill="#ff9f2d"/><path d="M.977,1.966A.976.976,0,0,1,.488.146L.514.131a.975.975,0,0,1,.975,1.69l-.025.015a.971.971,0,0,1-.486.131Z" transform="translate(4.695 0)" fill="#ff9f2d"/></g></g><g transform="translate(43.179 58.643)"><g transform="translate(2.36)"><path d="M.976,1.98A.976.976,0,0,1,0,1V.976a.976.976,0,0,1,1.951,0V1A.976.976,0,0,1,.976,1.98Z" fill="#0099be"/><path d="M.976,1.98A.976.976,0,0,1,0,1V.976a.976.976,0,0,1,1.951,0V1A.976.976,0,0,1,.976,1.98Z" transform="translate(0 5.421)" fill="#0099be"/></g><g transform="translate(0 1.362)"><path d="M1,1.966a.97.97,0,0,1-.488-.132L.487,1.82A.976.976,0,1,1,1.465.132L1.49.146A.976.976,0,0,1,1,1.966Z" transform="translate(0 0)" fill="#0099be"/><path d="M1,1.966a.97.97,0,0,1-.488-.132L.487,1.82A.976.976,0,1,1,1.465.132L1.49.146A.976.976,0,0,1,1,1.966Z" transform="translate(4.695 2.71)" fill="#0099be"/></g><g transform="translate(0 1.362)"><path d="M.977,1.966A.976.976,0,0,1,.487.146L.512.132A.976.976,0,1,1,1.49,1.82l-.025.015a.969.969,0,0,1-.488.132Z" transform="translate(0 2.71)" fill="#0099be"/><path d="M.977,1.966A.976.976,0,0,1,.487.146L.512.132A.976.976,0,1,1,1.49,1.82l-.025.015a.971.971,0,0,1-.488.132Z" transform="translate(4.695 0)" fill="#0099be"/></g></g></g></g></g></svg>