<svg xmlns="http://www.w3.org/2000/svg" xmlns:xlink="http://www.w3.org/1999/xlink" width="101.446" height="100" viewBox="0 0 101.446 100"><defs><linearGradient id="a" y1="0.5" x2="1" y2="0.5" gradientUnits="objectBoundingBox"><stop offset="0" stop-color="#e5fbe7" stop-opacity="0"/><stop offset="0.998" stop-color="#d8f0d0"/><stop offset="1" stop-color="#ffb3b3"/></linearGradient></defs><g transform="translate(-1125.554 -3066)"><rect width="100" height="100" transform="translate(1127 3066)" fill="none"/><g transform="translate(1127 3069.489)"><g transform="translate(0 0)"><path d="M3.938,22.362C17.947-.667,52.358-2.169,68.061,1.564c3.748.891,7.532,2.189,10.391,4.771s4.6,6.706,3.447,10.381c-.848,2.7-3.085,4.8-3.916,7.505-1.042,3.392.349,7.122,2.536,9.916s5.1,4.908,7.721,7.3c8.4,7.694,13.811,20.214,9.214,30.639C95.26,77.055,91.1,80.9,86.656,84.03c-5.629,3.962-12.024,7.05-18.854,7.9s-14.133-.715-19.4-5.152c-7.563-6.375-11.182-18.367-20.913-20.139-2.83-.515-5.752,0-8.611-.317-7.775-.85-13.7-7.638-16.675-14.87C-1.192,43.2-.7,29.991,3.938,22.362Z" transform="translate(0 0)" fill="url(#a)"/></g><g transform="translate(-0.86 6.44)"><path d="M3.187,6.374A.976.976,0,0,1,2.211,5.4,1.237,1.237,0,0,0,.976,4.162a.976.976,0,1,1,0-1.951A1.237,1.237,0,0,0,2.211.976a.976.976,0,0,1,1.951,0A1.237,1.237,0,0,0,5.4,2.211a.976.976,0,1,1,0,1.951A1.237,1.237,0,0,0,4.162,5.4.975.975,0,0,1,3.187,6.374Z" transform="translate(49.606 65.424)" fill="#ff9f2d"/><path d="M3.187,6.374A.976.976,0,0,1,2.211,5.4,1.237,1.237,0,0,0,.976,4.162a.976.976,0,0,1,0-1.951A1.237,1.237,0,0,0,2.211.976a.976.976,0,0,1,1.951,0A1.237,1.237,0,0,0,5.4,2.211a.976.976,0,1,1,0,1.951A1.237,1.237,0,0,0,4.162,5.4.976.976,0,0,1,3.187,6.374Z" transform="translate(69.212 11.011)" fill="#0099be"/><path d="M3.187,6.374A.976.976,0,0,1,2.211,5.4,1.237,1.237,0,0,0,.976,4.162a.976.976,0,0,1,0-1.951A1.237,1.237,0,0,0,2.211.976a.976.976,0,0,1,1.951,0A1.237,1.237,0,0,0,5.4,2.211a.976.976,0,1,1,0,1.951A1.237,1.237,0,0,0,4.162,5.4.976.976,0,0,1,3.187,6.374Z" transform="translate(15.715 4.768)" fill="#ff405c"/><g transform="translate(62.54 -0.634)"><g transform="translate(2.36)"><path d="M.976,1.98A.976.976,0,0,1,0,1V.976a.976.976,0,0,1,1.951,0V1A.976.976,0,0,1,.976,1.98Z" fill="#ff9f2d"/><path d="M.976,1.98A.976.976,0,0,1,0,1V.976a.976.976,0,0,1,1.951,0V1A.976.976,0,0,1,.976,1.98Z" transform="translate(0 5.421)" fill="#ff9f2d"/></g><g transform="translate(0 1.362)"><path d="M1,1.966a.97.97,0,0,1-.488-.132L.487,1.82A.976.976,0,1,1,1.465.132L1.49.146A.976.976,0,0,1,1,1.966Z" transform="translate(0 0)" fill="#ff9f2d"/><path d="M1,1.966a.972.972,0,0,1-.482-.128L.493,1.823a.976.976,0,0,1,.965-1.7l.025.014A.976.976,0,0,1,1,1.966Z" transform="translate(4.695 2.711)" fill="#ff9f2d"/></g><g transform="translate(0 1.362)"><path d="M.977,1.966A.976.976,0,0,1,.492.143L.517.129a.975.975,0,1,1,.968,1.694l-.025.014a.969.969,0,0,1-.483.129Z" transform="translate(0 2.711)" fill="#ff9f2d"/><path d="M.977,1.966A.976.976,0,0,1,.488.146L.514.131a.975.975,0,0,1,.975,1.69l-.025.015a.971.971,0,0,1-.486.131Z" transform="translate(4.695 0)" fill="#ff9f2d"/></g></g></g></g><g transform="translate(1033.874 2921.285)"><g transform="translate(92.626 165.608)"><path d="M559.435,667.1a31,31,0,0,1-12.475.1c-3.328-.8-5.714-2.47-5.324-5.441a.76.76,0,0,0-.419-.782c-.977-.477-2.919-1.7-2.134-3.607a17.583,17.583,0,0,0,8.422-.131c12.641-4.163,17.482-.8,17.682,2.048A6.875,6.875,0,0,1,559.435,667.1Z" transform="translate(-497.535 -609.893)" fill="#b2d0ff"/><path d="M170.106,201.738c.223,1.709.562,6.653-2.454,9.428-3.687,3.392-5.457,4.129-7.375,3.835-.2-2.847-5.041-6.211-17.682-2.048a17.583,17.583,0,0,1-8.422.131,12.246,12.246,0,0,0-5.751.738c-.378.132-.788.254-1.224.363-3.467.871-8.562.913-12.493-1.838-4.175-2.923-6.118-4.007-5.579-5.854a.535.535,0,0,0-.172-.557,2.633,2.633,0,0,1-.605-.712,3.62,3.62,0,0,0-2.132-1.605c-2.033-.412-5.112-1.292-6.785-3.015-4.965-.823-8.554-5.777-5.915-10.681a3.2,3.2,0,0,0,.363-1.813c-.171-1.884.34-6.361,7.538-11.066a3.179,3.179,0,0,0,.942-.961c.812-1.285,3.066-4.3,6.531-4.695a3.181,3.181,0,0,0,1.712-.738c1.822-1.557,6.685-5.092,12.244-4.033a3.108,3.108,0,0,0,1.447-.075c1.981-.573,7.617-1.856,13.016.182a3.177,3.177,0,0,0,1.643.172,11.282,11.282,0,0,1,8.48,2.092,3.16,3.16,0,0,0,1.611.6c1.807.14,6.093,1.081,9.269,6.595a3.161,3.161,0,0,0,.909,1c1.336.946,4.611,3.542,5.25,6.626a3.1,3.1,0,0,0,.45,1.062c1.435,2.189,6.5,10.418,5.252,15.694A3.229,3.229,0,0,0,170.106,201.738Z" transform="translate(-92.626 -165.612)" fill="#ff405c"/><path d="M480.947,693.32a1.656,1.656,0,0,1-2.49-.459c-2.831-4.246-4.82-6.4-8.064-8.713a14.558,14.558,0,0,1-4.774-6.092c.436-.109.845-.232,1.224-.363a12.246,12.246,0,0,1,5.751-.738c-.785,1.906,1.157,3.13,2.134,3.608a.76.76,0,0,1,.419.782c-.389,2.971,2,4.644,5.324,5.441a42.979,42.979,0,0,0,.971,4.622A1.685,1.685,0,0,1,480.947,693.32Z" transform="translate(-431.047 -629.485)" fill="#ffb1bd"/></g><g transform="translate(92.627 165.607)"><path d="M621.15,396.062a4.767,4.767,0,0,1,3.767-2.982" transform="translate(-572.161 -371.995)" fill="none" stroke="#e50523" stroke-linejoin="round" stroke-miterlimit="10" stroke-width="1.8"/><path d="M554.2,432.35s-3.059,14.831-23.08,9.825" transform="translate(-490.477 -407.625)" fill="none" stroke="#e50523" stroke-linejoin="round" stroke-miterlimit="10" stroke-width="1.8"/><path d="M353.318,487.01a7.592,7.592,0,0,1-3.4,5.809,9.891,9.891,0,0,1-7.679,1.308,2.951,2.951,0,0,0-1.909.194,9.3,9.3,0,0,1-5.4.722s-2.162,2.162-2.162,3.553" transform="translate(-310.512 -457.219)" fill="none" stroke="#e50523" stroke-linejoin="round" stroke-miterlimit="10" stroke-width="1.8"/><path d="M441.12,612.511a9.007,9.007,0,0,1,9.114-1.39c3.8,1.6,6.331-3.419,11.432-.155" transform="translate(-408.818 -568.661)" fill="none" stroke="#e50523" stroke-linejoin="round" stroke-miterlimit="10" stroke-width="1.8"/><path d="M751.12,406.91s5.005-.834,5.253-5.716c0,0,4.016-.587,4.48-5.87.375-4.283-1.483-6.118-2.009-6.643" transform="translate(-690.084 -368.003)" fill="none" stroke="#e50523" stroke-linejoin="round" stroke-miterlimit="10" stroke-width="1.8"/><path d="M464.8,414.961s-4.326-6.952-13.78-1.576a11.675,11.675,0,0,0-4.913,6.118" transform="translate(-413.346 -388.567)" fill="none" stroke="#e50523" stroke-linejoin="round" stroke-miterlimit="10" stroke-width="1.8"/><path d="M254.046,472.853a6.316,6.316,0,0,1,3.092-6.027c3.708-2.472,5.1-5.716,8.5-5.253s7.107.618,7.107.618" transform="translate(-239.05 -434.1)" fill="none" stroke="#e50523" stroke-linejoin="round" stroke-miterlimit="10" stroke-width="1.8"/><path d="M390.715,191.059s-5.716-9.887,3.553-14.831a4.972,4.972,0,0,0,.184-5.7" transform="translate(-361.504 -170.074)" fill="none" stroke="#e50523" stroke-linejoin="round" stroke-miterlimit="10" stroke-width="1.8"/><path d="M227.79,316.523s3.089.927,5.715-3.09c2.436-3.724,5.8-4.26,9.234-2.963" transform="translate(-215.263 -296.463)" fill="none" stroke="#e50523" stroke-linejoin="round" stroke-miterlimit="10" stroke-width="1.8"/><path d="M481.669,233.859c-1.638-7.068,2.009-8.923,3.219-9.337a.562.562,0,0,0,.377-.464,1.7,1.7,0,0,1,1.433-1.488" transform="translate(-445.231 -217.29)" fill="none" stroke="#e50523" stroke-linejoin="round" stroke-miterlimit="10" stroke-width="1.8"/><path d="M569.967,203.98s-5.682-1.924-7.632,2.19a1.906,1.906,0,0,1-.845.866c-1.7.888-6.157,4.057-2.73,11.648" transform="translate(-514.409 -200.016)" fill="none" stroke="#e50523" stroke-linejoin="round" stroke-miterlimit="10" stroke-width="1.8"/><path d="M663.989,277.913s-1.668-.834-3.46,1.02a4.478,4.478,0,0,1-5.9.742c-3.924-2.242-3.059-5.1-2.6-5.994" transform="translate(-599.802 -263.663)" fill="none" stroke="#e50523" stroke-linejoin="round" stroke-miterlimit="10" stroke-width="1.8"/><path d="M827.39,515.31c.982.521,3.81,3.662,2.2,8.809" transform="translate(-759.284 -482.896)" fill="none" stroke="#e50523" stroke-linejoin="round" stroke-miterlimit="10" stroke-width="1.8"/><path d="M154.443,406.35s-4.572,2.966.834,8.064" transform="translate(-147.075 -384.035)" fill="none" stroke="#e50523" stroke-linejoin="round" stroke-miterlimit="10" stroke-width="1.8"/><path d="M720.71,345.92a4.322,4.322,0,0,1,1.107,5.193" transform="translate(-662.493 -329.207)" fill="none" stroke="#e50523" stroke-linejoin="round" stroke-miterlimit="10" stroke-width="1.8"/><path d="M256.56,287.9s.718,4.105,3.9,4.516" transform="translate(-241.365 -276.564)" fill="none" stroke="#e50523" stroke-linejoin="round" stroke-miterlimit="10" stroke-width="1.8"/><path d="M238.85,441.254s5.9-.868,7.976,4.24" transform="translate(-225.297 -415.653)" fill="none" stroke="#e50523" stroke-linejoin="round" stroke-miterlimit="10" stroke-width="1.8"/><path d="M321.88,555.83s.7,1.256,3.174,1.654" transform="translate(-300.631 -519.66)" fill="none" stroke="#e50523" stroke-linejoin="round" stroke-miterlimit="10" stroke-width="1.8"/><path d="M106.223,203.613c-2.032-.413-5.111-1.293-6.784-3.016-4.965-.823-8.555-5.777-5.915-10.68a3.2,3.2,0,0,0,.363-1.813c-.171-1.884.34-6.362,7.537-11.067a3.158,3.158,0,0,0,.942-.961c.812-1.285,3.066-4.3,6.531-4.695a3.18,3.18,0,0,0,1.713-.738c1.821-1.557,6.684-5.092,12.244-4.032a3.113,3.113,0,0,0,1.448-.075c1.98-.573,7.616-1.857,13.016.182a3.177,3.177,0,0,0,1.643.172,11.282,11.282,0,0,1,8.48,2.092,3.157,3.157,0,0,0,1.61.6c1.807.141,6.093,1.082,9.269,6.595a3.164,3.164,0,0,0,.91,1c1.336.947,4.611,3.542,5.25,6.626a3.094,3.094,0,0,0,.45,1.062c1.434,2.189,6.5,10.418,5.251,15.694a3.255,3.255,0,0,0-.07,1.171c.223,1.709.562,6.653-2.454,9.428-3.687,3.392-5.457,4.129-7.374,3.835a6.875,6.875,0,0,1-5.751,7.817c-6.6,1.434-18.637,1.055-17.8-5.344a.76.76,0,0,0-.419-.782c-.977-.477-2.919-1.7-2.134-3.608a12.246,12.246,0,0,0-5.751.738c-3.392,1.18-9.291,1.622-13.715-1.475-4.175-2.923-6.118-4.007-5.58-5.854a.533.533,0,0,0-.172-.557,2.633,2.633,0,0,1-.605-.712A3.62,3.62,0,0,0,106.223,203.613Z" transform="translate(-92.632 -165.607)" fill="none" stroke="#0099be" stroke-miterlimit="10" stroke-width="1.8"/><path d="M465.12,688.35a14.505,14.505,0,0,0,4.82,6.21c3.244,2.317,5.234,4.467,8.064,8.713a1.656,1.656,0,0,0,2.491.459,1.686,1.686,0,0,0,.5-1.911,42.525,42.525,0,0,1-.975-4.644" transform="translate(-430.594 -639.896)" fill="none" stroke="#0099be" stroke-miterlimit="10" stroke-width="1.8"/><path d="M540.87,657.354a17.577,17.577,0,0,0,8.422-.132c12.641-4.163,17.482-.8,17.682,2.048" transform="translate(-499.322 -609.883)" fill="none" stroke="#0099be" stroke-miterlimit="10" stroke-width="1.8"/></g></g><g transform="translate(1205 3145)"><g transform="translate(2.349 0)"><path d="M.971,1.971A.971.971,0,0,1,0,1V.971a.971.971,0,0,1,1.942,0V1A.971.971,0,0,1,.971,1.971Z" transform="translate(0 0)" fill="#ff7386"/><path d="M.971,1.971A.971.971,0,0,1,0,1V.971a.971.971,0,1,1,1.942,0V1A.971.971,0,0,1,.971,1.971Z" transform="translate(0 5.396)" fill="#ff7386"/></g><g transform="translate(0 1.356)"><path d="M1,1.957A.965.965,0,0,1,.51,1.826L.485,1.812A.971.971,0,0,1,1.458.131l.025.015A.971.971,0,0,1,1,1.957Z" transform="translate(0 0)" fill="#ff7386"/><path d="M1,1.957a.966.966,0,0,1-.483-.129L.487,1.813A.971.971,0,1,1,1.455.129L1.48.144A.971.971,0,0,1,1,1.957Z" transform="translate(4.673 2.698)" fill="#ff7386"/></g><g transform="translate(0 1.356)"><path d="M.972,1.957A.971.971,0,0,1,.485.146L.51.131a.971.971,0,1,1,.973,1.681l-.025.015a.966.966,0,0,1-.486.131Z" transform="translate(0 2.698)" fill="#ff7386"/><path d="M.972,1.957A.971.971,0,0,1,.487.144L.513.129A.971.971,0,1,1,1.48,1.813l-.025.015a.967.967,0,0,1-.483.129Z" transform="translate(4.673 0)" fill="#ff7386"/></g></g><g transform="translate(1144.103 3084.245)"><path d="M4.58,0a.971.971,0,1,1,0,1.942H.971A.971.971,0,1,1,.971,0Z" transform="translate(50.344 59.755)" fill="#0099be"/><path d="M12.348,0a.971.971,0,0,1,0,1.942H.971A.971.971,0,0,1,.971,0Z" transform="translate(42.575 63.325)" fill="#0099be"/><path d="M12.348,0a.971.971,0,0,1,0,1.942H.971A.971.971,0,0,1,.971,0Z" transform="translate(42.575 66.895)" fill="#0099be"/></g></g></svg>