<svg xmlns="http://www.w3.org/2000/svg" xmlns:xlink="http://www.w3.org/1999/xlink" width="100" height="100" viewBox="0 0 100 100"><defs><linearGradient id="a" x1="0.134" y1="0.879" x2="0.771" y2="0.035" gradientUnits="objectBoundingBox"><stop offset="0" stop-color="#e5fbe7" stop-opacity="0"/><stop offset="0.294" stop-color="#e5fbe7" stop-opacity="0.322"/><stop offset="0.787" stop-color="#e5fbe7"/><stop offset="1" stop-color="#d8f0d0"/></linearGradient></defs><g transform="translate(-1131.5 -2657)"><rect width="100" height="100" transform="translate(1131.5 2657)" fill="none"/><g transform="translate(1131.5 2662.025)"><g transform="translate(0)"><path d="M3.132,53.977C-1.723,37.4-4.936-5.514,25.322.59c10,2.017,9.181,12.016,17.394,15.364C57.327,21.91,59.292,1.4,76.1,5.59c19.256,4.8,27.483,32.51,21.989,48.852-2.591,7.707-7.31,16.875-16.582,17.373-7.2.386-12.068-12.032-19.251-10.647C45.934,64.315,52.895,87.275,35.07,89.562,17.3,91.843,6.781,66.433,3.132,53.977Z" transform="translate(0 0)" fill="url(#a)"/></g><g transform="translate(11.258 4.989)"><g transform="translate(0 0.239)"><g transform="translate(0 5.904)" opacity="0.1"><path d="M5.625.984a.984.984,0,0,1-.984.984H.984A.984.984,0,0,1,.984,0H4.641A.984.984,0,0,1,5.625.984Z" transform="translate(7.872 39.976)" fill="#2626bc" opacity="0.1"/><path d="M13.5.984a.984.984,0,0,1-.984.984H.984A.984.984,0,0,1,.984,0H12.513A.984.984,0,0,1,13.5.984Z" transform="translate(0 43.544)" fill="#2626bc" opacity="0.1"/><path d="M13.5.984a.984.984,0,0,1-.984.984H.984A.984.984,0,0,1,.984,0H12.513A.984.984,0,0,1,13.5.984Z" transform="translate(0 47.113)" fill="#2626bc" opacity="0.1"/><path d="M75.1,45.73a1.943,1.943,0,0,1,1.943,1.942v12.4A1.942,1.942,0,0,1,75.1,62.009h-15.8l-1.152,7.669a5.891,5.891,0,0,1-11.7-.433l-.563-7.491a7.434,7.434,0,0,0-14.826,0l-.563,7.491a5.891,5.891,0,0,1-11.7.433L13.773,36.16A18.374,18.374,0,1,1,36.561,15.682a11.98,11.98,0,0,0,1.645.114h.552a12.139,12.139,0,0,0,7.976-3.012A11.211,11.211,0,0,1,65.183,22.9L61.753,45.73H75.1Z" transform="translate(2.046 0)" fill="#2626bc" opacity="0.1"/></g><g transform="translate(2.046 0.984)"><path d="M42.992,0A11.242,11.242,0,0,1,54.224,12.845L47.106,59.527a5.978,5.978,0,0,1-11.851-.433l-.57-7.476a7.54,7.54,0,0,0-15.019,0l-.57,7.476a5.978,5.978,0,0,1-11.851.433L.128,12.845A11.242,11.242,0,0,1,11.36,0a11.4,11.4,0,0,1,7.458,2.75A12.405,12.405,0,0,0,26.9,5.756h.559A12.4,12.4,0,0,0,35.535,2.75,11.4,11.4,0,0,1,42.992,0Z" transform="translate(11.805 10.162)" fill="#fff"/><path d="M10.172,0,7.7,16.5H1.968A1.966,1.966,0,0,1,0,14.529V1.968A1.967,1.967,0,0,1,1.968,0Z" transform="translate(51.783 49.331)" fill="#ebebff"/><path d="M25.427,12.85A18.631,18.631,0,0,1,2.83,31.042l-2.7-18A11.5,11.5,0,0,1,0,11.335,11.357,11.357,0,0,1,18.817,2.794,12.384,12.384,0,0,0,23.9,5.471a18.526,18.526,0,0,1,1.523,7.38Z" transform="translate(11.806 10.162)" fill="#ebebff"/><path d="M37.234,18.617A18.617,18.617,0,1,1,18.617,0,18.617,18.617,0,0,1,37.234,18.617Z" fill="#ff405c"/><path d="M29.6,14.8A14.8,14.8,0,1,1,14.8,0,14.8,14.8,0,0,1,29.6,14.8Z" transform="translate(3.815 3.815)" fill="#e1efff"/><path d="M29.605,10.672A14.8,14.8,0,0,1,0,10.672c0-.179,0-.36.01-.537v0A15.39,15.39,0,0,1,24.581,3.784a16.769,16.769,0,0,0,4.451,2.8,14.847,14.847,0,0,1,.573,4.091Z" transform="translate(3.814 7.946)" fill="#fff"/><path d="M8.72,11.849a.982.982,0,0,1-1.346-.35l-1.588-2.7a.8.8,0,0,0-.537-.382l-1.4-.276-1.783,3.5a.781.781,0,0,0-.071.512l1.061,5.307a.982.982,0,0,1-.771,1.157.935.935,0,0,1-.195.02.982.982,0,0,1-.962-.791L.063,12.536a2.766,2.766,0,0,1,.248-1.791L1.974,7.478A2.772,2.772,0,0,1,.919,5.725L0,.1A15.356,15.356,0,0,1,1.765,0c.071,0,.142,0,.213,0l.884,5.406a.8.8,0,0,0,.636.655l2.131.419A2.773,2.773,0,0,1,7.482,7.8L9.07,10.5a.983.983,0,0,1-.35,1.346Z" transform="translate(16.527 7.946)" fill="#0099be"/></g><path d="M24.3,16.5H1.968A1.968,1.968,0,0,1,0,14.529V1.968A1.968,1.968,0,0,1,1.968,0H24.3a1.968,1.968,0,0,1,1.968,1.968V14.529A1.968,1.968,0,0,1,24.3,16.5Z" transform="translate(52.828 46.553)" fill="#ffd9ab"/><path d="M5.625.984a.984.984,0,0,1-.984.984H.984A.984.984,0,0,1,.984,0H4.641A.984.984,0,0,1,5.625.984Z" transform="translate(7.872 40.961)" fill="#0099be"/><path d="M13.5.984a.984.984,0,0,1-.984.984H.984A.984.984,0,0,1,.984,0H12.513A.984.984,0,0,1,13.5.984Z" transform="translate(0 44.531)" fill="#0099be"/><path d="M13.5.984a.984.984,0,0,1-.984.984H.984A.984.984,0,0,1,.984,0H12.513A.984.984,0,0,1,13.5.984Z" transform="translate(0 48.1)" fill="#0099be"/><path d="M79.013,48.66v12.4A2.918,2.918,0,0,1,76.1,63.973H61.135l-1.028,6.845a6.822,6.822,0,0,1-6.788,5.842,6.892,6.892,0,0,1-6.845-6.348l-.563-7.493a6.465,6.465,0,0,0-12.893,0l-.563,7.493a6.892,6.892,0,0,1-6.845,6.348,6.821,6.821,0,0,1-6.788-5.842L14.9,44.681a.972.972,0,0,1,1.922-.288l3.926,26.137a4.89,4.89,0,0,0,4.866,4.188,4.941,4.941,0,0,0,4.907-4.55l.563-7.493a8.408,8.408,0,0,1,16.769,0l.563,7.493a4.94,4.94,0,0,0,4.906,4.55,4.89,4.89,0,0,0,4.866-4.188l.985-6.556H54.05a2.918,2.918,0,0,1-2.915-2.914V48.66a2.918,2.918,0,0,1,2.915-2.914h7.858l3.306-22.011a10.243,10.243,0,0,0-16.856-9.243,13.118,13.118,0,0,1-8.617,3.252h-.552c-.181,0-.363-.005-.545-.013.044.534.068,1.073.068,1.618a19.345,19.345,0,1,1-.334-3.581c.271.02.541.033.811.033h.552a11.176,11.176,0,0,0,7.339-2.773A12.186,12.186,0,0,1,67.136,24.023L63.873,45.746h2.643a.971.971,0,1,1,0,1.943H54.05a.973.973,0,0,0-.972.971v12.4a.973.973,0,0,0,.972.971H76.1a.973.973,0,0,0,.972-.971V48.66a.973.973,0,0,0-.972-.971H72.171a.971.971,0,1,1,0-1.943H76.1a2.917,2.917,0,0,1,2.915,2.914ZM36.769,19.349A17.413,17.413,0,1,0,19.356,36.755,17.429,17.429,0,0,0,36.769,19.349Z" transform="translate(1.062 0)" fill="#0099be"/><g transform="translate(60.837 49.926)"><g transform="translate(7.872)"><path d="M4.641,1.968H.984A.984.984,0,0,1,.984,0H4.641a.984.984,0,1,1,0,1.968Z" transform="translate(0)" fill="#fff"/></g><g transform="translate(0 3.617)"><path d="M12.513,1.968H.984A.984.984,0,0,1,.984,0H12.513a.984.984,0,0,1,0,1.968Z" transform="translate(0)" fill="#fff"/></g><g transform="translate(0 7.235)"><path d="M12.513,1.968H.984A.984.984,0,0,1,.984,0H12.513a.984.984,0,0,1,0,1.968Z" transform="translate(0)" fill="#fff"/></g></g></g><path d="M3.214,6.428a.984.984,0,0,1-.984-.984A1.248,1.248,0,0,0,.984,4.2a.984.984,0,0,1,0-1.968A1.248,1.248,0,0,0,2.23.984.984.984,0,0,1,4.2.984,1.248,1.248,0,0,0,5.444,2.23a.984.984,0,0,1,0,1.968A1.248,1.248,0,0,0,4.2,5.444.984.984,0,0,1,3.214,6.428Z" transform="translate(7.872 57.527)" fill="#ff405c"/><path d="M3.214,6.428a.984.984,0,0,1-.984-.984A1.248,1.248,0,0,0,.984,4.2a.984.984,0,1,1,0-1.968A1.248,1.248,0,0,0,2.23.984.984.984,0,1,1,4.2.984,1.248,1.248,0,0,0,5.445,2.23a.984.984,0,1,1,0,1.968A1.248,1.248,0,0,0,4.2,5.444.984.984,0,0,1,3.214,6.428Z" transform="translate(37.347)" fill="#f6911f"/><path d="M3.214,6.428a.984.984,0,0,1-.984-.984A1.248,1.248,0,0,0,.984,4.2a.984.984,0,1,1,0-1.968A1.248,1.248,0,0,0,2.23.984.984.984,0,0,1,4.2.984,1.248,1.248,0,0,0,5.444,2.23a.984.984,0,1,1,0,1.968A1.248,1.248,0,0,0,4.2,5.444.984.984,0,0,1,3.214,6.428Z" transform="translate(45.794 1.695)" fill="#0099be"/><g transform="translate(1.873 63.319)"><g transform="translate(2.381)"><path d="M.984,2A.984.984,0,0,1,0,1.013V.984a.984.984,0,0,1,1.968,0v.03A.984.984,0,0,1,.984,2Z" fill="#0099be"/><path d="M.984,2A.984.984,0,0,1,0,1.013V.984a.984.984,0,0,1,1.968,0v.03A.984.984,0,0,1,.984,2Z" transform="translate(0 5.468)" fill="#0099be"/></g><g transform="translate(0 1.374)"><path d="M1.009,1.983a.979.979,0,0,1-.491-.132L.493,1.837a.984.984,0,1,1,.983-1.7L1.5.147a.984.984,0,0,1-.493,1.836Z" transform="translate(0 0)" fill="#0099be"/><path d="M1.009,1.983A.979.979,0,0,1,.517,1.85L.491,1.836a.984.984,0,1,1,.986-1.7L1.5.147a.984.984,0,0,1-.494,1.836Z" transform="translate(4.735 2.734)" fill="#0099be"/></g><g transform="translate(0 1.374)"><path d="M.985,1.983A.984.984,0,0,1,.493.147L.518.132a.984.984,0,1,1,.983,1.7l-.026.015a.979.979,0,0,1-.491.132Z" transform="translate(0 2.734)" fill="#0099be"/><path d="M.985,1.983A.984.984,0,0,1,.491.147L.517.133a.984.984,0,1,1,.986,1.7l-.026.015a.98.98,0,0,1-.492.133Z" transform="translate(4.735 0)" fill="#0099be"/></g></g><g transform="translate(70.537 33.025)"><g transform="translate(2.381)"><path d="M.984,2A.984.984,0,0,1,0,1.013V.984a.984.984,0,0,1,1.968,0v.03A.984.984,0,0,1,.984,2Z" fill="#ff405c"/><path d="M.984,2A.984.984,0,0,1,0,1.013V.984a.984.984,0,0,1,1.968,0v.03A.984.984,0,0,1,.984,2Z" transform="translate(0 5.468)" fill="#ff405c"/></g><g transform="translate(0 1.374)"><path d="M1.009,1.983A.978.978,0,0,1,.517,1.85L.491,1.836a.984.984,0,0,1,.986-1.7L1.5.147a.984.984,0,0,1-.494,1.836Z" transform="translate(0 0)" fill="#ff405c"/><path d="M1.009,1.983a.978.978,0,0,1-.492-.133L.491,1.836a.984.984,0,0,1,.986-1.7L1.5.148a.984.984,0,0,1-.494,1.836Z" transform="translate(4.735 2.733)" fill="#ff405c"/></g><g transform="translate(0 1.374)"><path d="M.985,1.983A.984.984,0,0,1,.491.148L.517.133a.984.984,0,1,1,.986,1.7l-.026.015a.976.976,0,0,1-.492.133Z" transform="translate(0 2.734)" fill="#ff405c"/><path d="M.985,1.983A.984.984,0,0,1,.491.148L.517.133a.984.984,0,1,1,.986,1.7l-.026.015a.978.978,0,0,1-.492.133Z" transform="translate(4.735 0)" fill="#ff405c"/></g></g></g></g></g></svg>