<svg xmlns="http://www.w3.org/2000/svg" xmlns:xlink="http://www.w3.org/1999/xlink" width="100.316" height="100.024" viewBox="0 0 100.316 100.024"><defs><linearGradient id="a" y1="0.5" x2="1" y2="0.5" gradientUnits="objectBoundingBox"><stop offset="0" stop-color="#e5fbe7" stop-opacity="0"/><stop offset="0.998" stop-color="#d8f0d0"/><stop offset="1" stop-color="#ffb3b3"/></linearGradient></defs><g transform="translate(-27.683 -14.757)"><rect width="100" height="100" transform="translate(27.842 14.769)" fill="none"/><g transform="translate(27.683 14.757)"><g transform="translate(0 0)"><path d="M88.521,8.468c10.562,6.438,16.085,19.738,7.758,30.421-8.761,11.24-23.816,5.541-31.537,19.591-8.107,14.751.527,26.571-16.592,36.7-9.352,5.532-33.958,8.467-41.38-3.222C-.046,81.22,11.895,69.575,9.982,57.416,7.6,42.261-5.232,39.1,2.391,20.605,8.09,6.78,57.063-10.708,88.521,8.468Z" transform="translate(0 0)" fill="url(#a)"/></g><g transform="translate(10.022 9.513)"><g transform="translate(0 0.98)"><g transform="translate(0 4.898)" opacity="0.1"><path d="M75.032,15.551a1.96,1.96,0,0,1,1.959,1.959V37.877a1.959,1.959,0,0,1-1.959,1.959H63.045a30.414,30.414,0,0,1,3.546,15.037C66.55,66.848,56.485,73.08,44.806,74.516H20.844a1.4,1.4,0,0,1-1.376-1.625,11.985,11.985,0,0,1,1.056-3.272c2.334-4.775,4.047-12.866-.89-24.439A75.8,75.8,0,0,1,14.466,27.2c-.281.017-.564.029-.85.029a13.616,13.616,0,1,1,13.546-15h3.782l.167.4a4.491,4.491,0,0,0,4.139,2.748h0a10.244,10.244,0,0,1,10.3,9.9,10.131,10.131,0,0,1-.271,2.565l.034-.023,2.669-1.637a1.673,1.673,0,0,1,1.434-.151l2.164.767V17.511a1.959,1.959,0,0,1,1.959-1.959H75.032Z" transform="translate(1.026 0)" fill="#2626bc" opacity="0.1"/><path d="M5.6.98a.98.98,0,0,1-.98.98H.98A.98.98,0,0,1,.98,0H4.621A.98.98,0,0,1,5.6.98Z" transform="translate(7.837 31.2)" fill="#2626bc" opacity="0.1"/><path d="M13.437.98a.98.98,0,0,1-.98.98H.98A.98.98,0,1,1,.98,0H12.458A.98.98,0,0,1,13.437.98Z" transform="translate(0 34.801)" fill="#2626bc" opacity="0.1"/><path d="M13.437.98a.98.98,0,0,1-.98.98H.98A.98.98,0,1,1,.98,0H12.458A.98.98,0,0,1,13.437.98Z" transform="translate(0 38.403)" fill="#2626bc" opacity="0.1"/></g><g transform="translate(52.609 15.551)"><path d="M23.448,24.286H1.959A1.959,1.959,0,0,1,0,22.326V1.959A1.959,1.959,0,0,1,1.959,0H23.448a1.959,1.959,0,0,1,1.959,1.959V22.326A1.959,1.959,0,0,1,23.448,24.286Z" transform="translate(0 0)" fill="#fff"/><path d="M0,5.928V1.959A1.959,1.959,0,0,1,1.959,0H23.448a1.959,1.959,0,0,1,1.959,1.959V5.928Z" fill="#ffd9ab"/><g transform="translate(3.774 8.151)"><g transform="translate(0)"><path d="M2.095,1.959H.98A.98.98,0,1,1,.98,0H2.095a.98.98,0,1,1,0,1.959Z" transform="translate(0)" fill="#0099be"/><g transform="translate(4.928)"><path d="M2.095,1.959H.98A.98.98,0,1,1,.98,0H2.095a.98.98,0,1,1,0,1.959Z" transform="translate(0)" fill="#0099be"/></g><g transform="translate(9.856)"><path d="M2.095,1.959H.98A.98.98,0,1,1,.98,0H2.095a.98.98,0,1,1,0,1.959Z" transform="translate(0)" fill="#0099be"/></g><g transform="translate(14.785)"><path d="M2.095,1.959H.98A.98.98,0,1,1,.98,0H2.095a.98.98,0,1,1,0,1.959Z" transform="translate(0)" fill="#ff405c"/></g></g><g transform="translate(0 3.474)"><path d="M2.095,1.959H.98A.98.98,0,1,1,.98,0H2.095a.98.98,0,1,1,0,1.959Z" transform="translate(0)" fill="#0099be"/><g transform="translate(4.928)"><path d="M2.095,1.959H.98A.98.98,0,1,1,.98,0H2.095a.98.98,0,1,1,0,1.959Z" transform="translate(0)" fill="#0099be"/></g><g transform="translate(9.856)"><path d="M2.095,1.959H.98A.98.98,0,1,1,.98,0H2.095a.98.98,0,1,1,0,1.959Z" transform="translate(0)" fill="#0099be"/></g><g transform="translate(14.785)"><path d="M2.095,1.959H.98A.98.98,0,1,1,.98,0H2.095a.98.98,0,1,1,0,1.959Z" transform="translate(0)" fill="#ff405c"/></g></g><g transform="translate(0 6.948)"><path d="M2.095,1.959H.98A.98.98,0,1,1,.98,0H2.095a.98.98,0,1,1,0,1.959Z" transform="translate(0)" fill="#0099be"/><g transform="translate(4.928)"><path d="M2.095,1.959H.98A.98.98,0,1,1,.98,0H2.095a.98.98,0,1,1,0,1.959Z" transform="translate(0)" fill="#0099be"/></g><g transform="translate(9.856)"><path d="M2.095,1.959H.98A.98.98,0,1,1,.98,0H2.095a.98.98,0,1,1,0,1.959Z" transform="translate(0)" fill="#0099be"/></g><g transform="translate(14.785)"><path d="M2.095,1.959H.98A.98.98,0,1,1,.98,0H2.095a.98.98,0,1,1,0,1.959Z" transform="translate(0)" fill="#ff405c"/></g></g><g transform="translate(0 10.422)"><path d="M2.095,1.959H.98A.98.98,0,1,1,.98,0H2.095a.98.98,0,1,1,0,1.959Z" transform="translate(0)" fill="#6c6cff"/><g transform="translate(4.928)"><path d="M2.095,1.959H.98A.98.98,0,1,1,.98,0H2.095a.98.98,0,1,1,0,1.959Z" transform="translate(0)" fill="#0099be"/></g><g transform="translate(9.856)"><path d="M2.095,1.959H.98A.98.98,0,1,1,.98,0H2.095a.98.98,0,1,1,0,1.959Z" transform="translate(0)" fill="#ff405c"/></g><g transform="translate(14.785)"><path d="M2.095,1.959H.98A.98.98,0,1,1,.98,0H2.095a.98.98,0,1,1,0,1.959Z" transform="translate(0)" fill="#ff405c"/></g></g></g></g><g transform="translate(14.642 12.233)"><path d="M31.939,17.6c13.812,0,21.084,11.221,21.036,25.043C52.934,54.615,42.869,60.847,31.19,62.283H5.7a11.8,11.8,0,0,1,1.212-4.9c2.334-4.775,4.047-12.866-.89-24.439C-1.7,14.84.21,0,.21,0H17.329L17.5.4a4.491,4.491,0,0,0,4.139,2.748h0a10.242,10.242,0,0,1,10.3,10.1,10.1,10.1,0,0,1-.608,3.487.64.64,0,0,0,.6.864h.01Z" transform="translate(0)" fill="#ffd6bb"/><path d="M39.629,0A31.17,31.17,0,0,1,25.493,5.02H0A11.8,11.8,0,0,1,1.212.123C1.231.083,1.25.041,1.27,0Z" transform="translate(5.697 57.262)" fill="#84b0fc"/><g transform="translate(10.985 57.262)"><path d="M0,0H3.163V5.02H0Z" transform="translate(0 0.001)" fill="#b2d0ff"/><path d="M0,0H3.163V5.02H0Z" transform="translate(7.586 0.001)" fill="#b2d0ff"/><path d="M0,0H3.163V5.02H0Z" transform="translate(15.173 0.001)" fill="#b2d0ff"/><path d="M3.162,0V3.885Q1.616,4.323,0,4.626V0Z" transform="translate(22.76)" fill="#b2d0ff"/><path d="M4,0A24.448,24.448,0,0,1,0,2.277V0Z" transform="translate(30.346)" fill="#b2d0ff"/></g><path d="M23.521,4.309v.329a5.816,5.816,0,0,0-5.9,3.627c-1.225,2.957-3.7,8.112-5.427,11.634A6.706,6.706,0,0,1,0,19.575C1.959,16.348,11.82,3.852,14.877,0a18.523,18.523,0,0,1,8.644,4.309Z" transform="translate(21.734 18.064)" fill="#ffc599"/><path d="M32.261,4.2a1.674,1.674,0,0,1,1.114,1.577V8.289a5.817,5.817,0,0,0-5.9,3.627c-1.223,2.957-3.7,8.112-5.427,11.635a6.7,6.7,0,0,1-12.195-.33L0,0H12.247l5.3,13.654,2.892-6.6a6.434,6.434,0,0,1,2.529-2.9l2.669-1.637a1.673,1.673,0,0,1,1.434-.151L32.261,4.2Z" transform="translate(8.736 11.432)" fill="#ffd6bb"/><path d="M9.351,15.15a.66.66,0,0,1-.934,0L1.395,8.128A4.761,4.761,0,0,1,8.128,1.395l.757.757.757-.757a4.761,4.761,0,0,1,6.733,6.733Z" transform="translate(31.467 35.076)" fill="#ff405c"/></g><g transform="translate(1.026)"><path d="M27.232,13.616A13.616,13.616,0,1,1,13.616,0,13.616,13.616,0,0,1,27.232,13.616Z" transform="translate(0)" fill="#ff405c"/><path d="M14.631,5.426A1.959,1.959,0,0,1,16.59,7.386V9.2a1.959,1.959,0,0,1-1.959,1.959H11.164v3.467A1.959,1.959,0,0,1,9.2,16.59H7.386a1.959,1.959,0,0,1-1.959-1.959V11.164H1.959A1.959,1.959,0,0,1,0,9.2V7.386A1.959,1.959,0,0,1,1.959,5.426H5.426V1.959A1.959,1.959,0,0,1,7.386,0H9.2a1.959,1.959,0,0,1,1.959,1.959V5.426h3.467Z" transform="translate(5.321 5.321)" fill="#fff"/></g><path d="M3.2,6.4a.98.98,0,0,1-.98-.98A1.242,1.242,0,0,0,.98,4.18a.98.98,0,0,1,0-1.959A1.242,1.242,0,0,0,2.22.98.98.98,0,0,1,4.18.98,1.242,1.242,0,0,0,5.421,2.22a.98.98,0,0,1,0,1.959A1.242,1.242,0,0,0,4.18,5.421.98.98,0,0,1,3.2,6.4Z" transform="translate(14.206 55.064)" fill="#ff405c"/><path d="M3.2,6.4a.98.98,0,0,1-.98-.98A1.242,1.242,0,0,0,.98,4.18a.98.98,0,0,1,0-1.959A1.242,1.242,0,0,0,2.22.98.98.98,0,0,1,4.18.98,1.242,1.242,0,0,0,5.421,2.22a.98.98,0,0,1,0,1.959A1.242,1.242,0,0,0,4.18,5.421.98.98,0,0,1,3.2,6.4Z" transform="translate(53.184 1.698)" fill="#0099be"/><path d="M3.2,6.4a.98.98,0,0,1-.98-.98A1.242,1.242,0,0,0,.98,4.18a.98.98,0,0,1,0-1.959A1.242,1.242,0,0,0,2.22.98.98.98,0,0,1,4.18.98,1.242,1.242,0,0,0,5.421,2.22a.98.98,0,0,1,0,1.959A1.242,1.242,0,0,0,4.18,5.421.98.98,0,0,1,3.2,6.4Z" transform="translate(72.802 47.082)" fill="#0099be"/><g transform="translate(10.471 45.701)"><g transform="translate(2.37)"><path d="M.98,1.989A.98.98,0,0,1,0,1.009V.98a.98.98,0,0,1,1.959,0v.029A.979.979,0,0,1,.98,1.989Z" fill="#f6911f"/><path d="M.98,1.989A.98.98,0,0,1,0,1.009V.98a.98.98,0,0,1,1.959,0v.029A.979.979,0,0,1,.98,1.989Z" transform="translate(0 5.444)" fill="#f6911f"/></g><g transform="translate(0 1.368)"><path d="M1,1.974a.974.974,0,0,1-.49-.132L.489,1.828a.98.98,0,1,1,.982-1.7L1.5.147A.98.98,0,0,1,1,1.974Z" transform="translate(0 0)" fill="#f6911f"/><path d="M1,1.974a.974.974,0,0,1-.488-.131L.49,1.829a.98.98,0,1,1,.979-1.7l.025.015A.98.98,0,0,1,1,1.974Z" transform="translate(4.715 2.722)" fill="#f6911f"/></g><g transform="translate(0 1.368)"><path d="M.981,1.974A.98.98,0,0,1,.489.147L.515.132a.98.98,0,1,1,.982,1.7l-.025.015a.976.976,0,0,1-.49.132Z" transform="translate(0 2.722)" fill="#f6911f"/><path d="M.981,1.974A.98.98,0,0,1,.49.146L.516.131a.98.98,0,1,1,.979,1.7l-.025.015a.974.974,0,0,1-.488.131Z" transform="translate(4.714 0)" fill="#f6911f"/></g></g><g transform="translate(44.074 4.251)"><g transform="translate(2.37)"><path d="M.98,1.989A.98.98,0,0,1,0,1.009V.98a.98.98,0,0,1,1.959,0v.029A.98.98,0,0,1,.98,1.989Z" fill="#ff405c"/><path d="M.98,1.989A.98.98,0,0,1,0,1.009V.98a.98.98,0,0,1,1.959,0v.029A.98.98,0,0,1,.98,1.989Z" transform="translate(0 5.444)" fill="#ff405c"/></g><g transform="translate(0 1.368)"><path d="M1,1.974a.974.974,0,0,1-.49-.132L.489,1.828a.98.98,0,1,1,.982-1.7L1.5.147A.98.98,0,0,1,1,1.974Z" transform="translate(0 0)" fill="#ff405c"/><path d="M1,1.974a.974.974,0,0,1-.49-.132L.489,1.828a.98.98,0,1,1,.982-1.7L1.5.147A.98.98,0,0,1,1,1.974Z" transform="translate(4.714 2.722)" fill="#ff405c"/></g><g transform="translate(0 1.368)"><path d="M.981,1.974A.98.98,0,0,1,.489.147L.515.132a.98.98,0,1,1,.982,1.7l-.025.015A.975.975,0,0,1,.981,1.974Z" transform="translate(0 2.722)" fill="#ff405c"/><path d="M.981,1.974A.98.98,0,0,1,.489.147L.515.132a.98.98,0,1,1,.982,1.7l-.025.015a.976.976,0,0,1-.49.132Z" transform="translate(4.714 0)" fill="#ff405c"/></g></g></g><g transform="translate(0)"><path d="M52.453,3.318a2.942,2.942,0,0,1,2.939,2.939V26.624a2.942,2.942,0,0,1-2.939,2.939h-5.97a.98.98,0,1,1,0-1.959h5.97a.981.981,0,0,0,.98-.98V6.257a.981.981,0,0,0-.98-.98H30.964a.981.981,0,0,0-.98.98v8.594l2.377.843a2.658,2.658,0,0,1,1.767,2.5v2.348a21.008,21.008,0,0,1,7.885,8.881,32.381,32.381,0,0,1,2.979,14.2A18.227,18.227,0,0,1,38.1,58.154c-3.933,3.195-9.38,5.3-15.755,6.081a1,1,0,0,1-.121.007.98.98,0,0,1-.118-1.952c6.008-.738,11.112-2.694,14.758-5.657a16.119,16.119,0,0,0,6.167-13.017,30.417,30.417,0,0,0-2.781-13.336A18.561,18.561,0,0,0,32.209,21.7a4.688,4.688,0,0,0-4.058,3c-1.216,2.939-3.636,7.979-5.452,11.69a7.685,7.685,0,0,1-13.976-.377l-5.8-13.68H.98a.98.98,0,0,1,0-1.959H2.088l-.718-1.693a.98.98,0,0,1,1.8-.765L10.526,35.25a5.725,5.725,0,0,0,10.413.282c1.8-3.686,4.205-8.687,5.4-11.579a6.64,6.64,0,0,1,5.828-4.211V18.194a.7.7,0,0,0-.462-.654L26.513,15.7a.69.69,0,0,0-.595.062L23.25,17.4a5.431,5.431,0,0,0-2.144,2.461l-2.892,6.6a.966.966,0,0,1-.918.586.98.98,0,0,1-.892-.625l-5.3-13.654a.98.98,0,0,1,1.827-.709L17.371,23.5l1.939-4.426a7.373,7.373,0,0,1,2.517-3.08A9.142,9.142,0,0,0,12.672,5.1,5.459,5.459,0,0,1,7.63,1.757l-.167-.4A.98.98,0,0,1,9.269.6l.167.4a3.5,3.5,0,0,0,3.236,2.148A11.215,11.215,0,0,1,23.956,14.224c0,.15-.005.3-.011.45l.949-.582a2.643,2.643,0,0,1,2.274-.239l.857.3v-7.9a2.942,2.942,0,0,1,2.939-2.939H52.453Z" transform="translate(23.605 12.233)" fill="#0099be"/><path d="M16.583,29.053a74.886,74.886,0,0,0,4.933,16.721C26.6,57.7,24.8,66.092,22.384,71.028a10.757,10.757,0,0,0-1.112,4.491.979.979,0,0,1-.979.956h-.024a.98.98,0,0,1-.956-1,12.7,12.7,0,0,1,1.311-5.3c2.233-4.569,3.887-12.377-.91-23.625A76.843,76.843,0,0,1,14.619,29.19H14.6a14.595,14.595,0,1,1,14.25-17.749.98.98,0,0,1-1.913.422,12.629,12.629,0,1,0,.04,5.293.98.98,0,1,1,1.919.395,14.648,14.648,0,0,1-12.308,11.5Z" transform="translate(0.046 0)" fill="#0099be"/><path d="M5.6.98a.98.98,0,0,1-.98.98H.98A.98.98,0,0,1,.98,0H4.621A.98.98,0,0,1,5.6.98Z" transform="translate(7.837 32.179)" fill="#0099be"/><path d="M13.437.98a.98.98,0,0,1-.98.98H.98A.98.98,0,1,1,.98,0H12.458A.98.98,0,0,1,13.437.98Z" transform="translate(0 35.781)" fill="#0099be"/><path d="M13.437.98a.98.98,0,0,1-.98.98H.98A.98.98,0,1,1,.98,0H12.458A.98.98,0,0,1,13.437.98Z" transform="translate(0 39.382)" fill="#0099be"/></g></g></g></g></svg>