<svg xmlns="http://www.w3.org/2000/svg" xmlns:xlink="http://www.w3.org/1999/xlink" width="100.967" height="86.493" viewBox="0 0 100.967 86.493"><defs><linearGradient id="a" x1="0.189" y1="0.946" x2="0.869" y2="0.009" gradientUnits="objectBoundingBox"><stop offset="0" stop-color="#e5fbe7" stop-opacity="0"/><stop offset="0.294" stop-color="#e5fbe7" stop-opacity="0.322"/><stop offset="0.787" stop-color="#e5fbe7"/><stop offset="1" stop-color="#d8f0d0"/></linearGradient></defs><g transform="translate(-1078.506 -3660.731)"><g transform="translate(1079.473 3660.731)"><path d="M.956,56.578C-.8,39.152-2.729,3.024,20.834,2.579c16.072-.3,22.654,9.878,39.546,4.176,13.17-4.446,22.7-12.988,33.331.632,6.923,8.867,6.063,37.038,6.251,47.68.291,16.51-.71,24.251-16.818,28.125C58.069,89.223,4.364,90.342.956,56.578Z" transform="translate(0 0)" fill="url(#a)"/></g><g transform="translate(1092.016 3677.443)"><path d="M3.179,6.359a.973.973,0,0,1-.973-.973A1.234,1.234,0,0,0,.973,4.153a.973.973,0,0,1,0-1.947A1.234,1.234,0,0,0,2.206.973a.973.973,0,0,1,1.947,0A1.234,1.234,0,0,0,5.386,2.206a.973.973,0,0,1,0,1.947A1.234,1.234,0,0,0,4.153,5.385.973.973,0,0,1,3.179,6.359Z" transform="translate(80.046 40.585)" fill="#ff405c"/><g transform="translate(0 0)"><g transform="translate(2.355)"><path d="M.973,1.976A.973.973,0,0,1,0,1V.973a.973.973,0,1,1,1.947,0V1A.973.973,0,0,1,.973,1.976Z" transform="translate(0 0)" fill="#ff405c"/><path d="M.973,1.976A.973.973,0,0,1,0,1V.973a.973.973,0,1,1,1.947,0V1A.973.973,0,0,1,.973,1.976Z" transform="translate(0 5.408)" fill="#ff405c"/></g><g transform="translate(0 1.359)"><path d="M1,1.962A.968.968,0,0,1,.511,1.83L.486,1.816A.973.973,0,1,1,1.461.131l.025.015A.973.973,0,0,1,1,1.962Z" transform="translate(0 0)" fill="#ff405c"/><path d="M1,1.962A.967.967,0,0,1,.511,1.83L.486,1.816A.973.973,0,1,1,1.461.131l.025.015A.973.973,0,0,1,1,1.962Z" transform="translate(4.684 2.704)" fill="#ff405c"/></g><g transform="translate(0 1.359)"><path d="M.974,1.962A.973.973,0,0,1,.486.146L.511.131a.973.973,0,1,1,.975,1.685l-.025.015a.967.967,0,0,1-.487.131Z" transform="translate(0 2.704)" fill="#ff405c"/><path d="M.974,1.962A.973.973,0,0,1,.486.146L.511.131a.973.973,0,1,1,.975,1.685l-.025.015a.97.97,0,0,1-.487.131Z" transform="translate(4.684 0)" fill="#ff405c"/></g></g></g><g transform="translate(1164.367 3727.249)"><path d="M5.6.98a.98.98,0,0,1-.98.98H.98A.98.98,0,0,1,.98,0H4.621A.98.98,0,0,1,5.6.98Z" transform="translate(7.837)" fill="#0099be"/><path d="M13.437.98a.98.98,0,0,1-.98.98H.98A.98.98,0,1,1,.98,0H12.458A.98.98,0,0,1,13.437.98Z" transform="translate(0 3.602)" fill="#0099be"/><path d="M13.437.98a.98.98,0,0,1-.98.98H.98A.98.98,0,1,1,.98,0H12.458A.98.98,0,0,1,13.437.98Z" transform="translate(0 7.203)" fill="#0099be"/></g><path d="M3.172,6.344A.971.971,0,0,1,2.2,5.373a1.231,1.231,0,0,0-1.23-1.23.971.971,0,0,1,0-1.942A1.231,1.231,0,0,0,2.2.971a.971.971,0,0,1,1.942,0A1.231,1.231,0,0,0,5.373,2.2a.971.971,0,1,1,0,1.942,1.231,1.231,0,0,0-1.23,1.23A.971.971,0,0,1,3.172,6.344Z" transform="translate(1090.223 3690.661)" fill="#ff9f2d"/><g transform="translate(1152.307 3663.384)"><g transform="translate(2.349)"><path d="M.971,1.971A.971.971,0,0,1,0,1V.971a.971.971,0,0,1,1.942,0V1A.971.971,0,0,1,.971,1.971Z" fill="#0099be"/><path d="M.971,1.971A.971.971,0,0,1,0,1V.971a.971.971,0,0,1,1.942,0V1A.971.971,0,0,1,.971,1.971Z" transform="translate(0 5.396)" fill="#0099be"/></g><g transform="translate(0 1.357)"><path d="M1,1.957a.967.967,0,0,1-.481-.128L.489,1.814A.971.971,0,0,1,1.453.128l.025.014A.971.971,0,0,1,1,1.957Z" transform="translate(0 0)" fill="#0099be"/><path d="M1,1.957A.965.965,0,0,1,.51,1.826L.485,1.812A.971.971,0,0,1,1.458.131l.025.015A.971.971,0,0,1,1,1.957Z" transform="translate(4.673 2.698)" fill="#0099be"/></g><g transform="translate(0 1.357)"><path d="M.972,1.957A.971.971,0,0,1,.485.146L.51.131a.971.971,0,0,1,.973,1.681l-.025.015a.966.966,0,0,1-.486.131Z" transform="translate(0 2.698)" fill="#0099be"/><path d="M.972,1.957A.971.971,0,0,1,.489.142L.515.128a.971.971,0,1,1,.963,1.686l-.025.014a.964.964,0,0,1-.481.128Z" transform="translate(4.673 0)" fill="#0099be"/></g></g><g transform="translate(1079.473 3676.61)"><path d="M101.966,264.5s3.389-11.183,5.084-13.895,3.05-.225,5.309,3.162.79,1.92,3.841,5.422,15.364,12.99,32.308,9.6,27.925-14.855,33.471-29.226,3.279-18.566,3.135-20.495-1.4-10.079-6.993-14.563-11.526-4-17.216-3.521-10.947,9.114-10.947,9.114c-3.568-2.122-5.63-9.314-5.63-9.314l-8.789,6.083s1.012,2.508,2.411,7.089,6.462,2.845,4.87,7.04-.386,9.789-.337,12.1.193,4.051-2.7,7.909-10.32,2.99-13.116-.241-4.968-6.028-11.14-6.317-5.209,3.665-10.9,2.845-7.234,6.028-7.571,8.44S93.08,261.9,93.08,261.9Z" transform="translate(-93.08 -200.684)" fill="#ff7f92"/><path d="M610.148,263.782a69.031,69.031,0,0,1-3.647,14.07c-4.278,1.663-7.665,1.68-14.133-.746-5.236-1.963-8.86-1.037-10.939.037a15.684,15.684,0,0,0-1.281-2.493c-3.056-5.094-2.49-12.453,1.924-18.452,0,0,3.057-2.717,3.736-5.434s4.3-9.4,11.094-7.924S612.185,250.99,610.148,263.782Z" transform="translate(-524.686 -237.983)" fill="#ffd6bb"/><path d="M242.115,545.4c-2.577,6.653-6.319,12.147-11.606,15.589-8.693,5.66-21.112,10.755-30.37,7.472s-10.726-4.641-16.258-14.264-11.629-4.641-11.629-4.641a13.36,13.36,0,0,0-2.8,3.582.413.413,0,0,1-.776-.257c.523-2.937,1.763-6.639,4.7-7.174,4.967-.906,4.064.113,7.452-1.359s8.354.453,11.29,4.868,13.774,8.83,15.241,5.773,3.5-7.472,6.436-8.038c2.316-.446,4.14.022,3.309-2.261,2.074-1.073,5.687-2,10.91-.036C234.47,547.083,237.849,547.065,242.115,545.4Z" transform="translate(-160.3 -505.68)" fill="#ffb1bd"/><g transform="translate(0 0.001)"><path d="M93.08,311.622s3.647-13.745,3.984-16.154,1.884-9.254,7.587-8.435,4.736-3.133,10.922-2.844,8.36,3.085,11.164,6.314,10.245,4.1,13.144.241,2.755-5.591,2.706-7.9-1.256-7.9.338-12.1-3.479-2.458-4.881-7.036-2.416-7.085-2.416-7.085" transform="translate(-93.08 -250.425)" fill="none" stroke="#0099be" stroke-miterlimit="10" stroke-width="2"/><path d="M215.823,200.792s2.061,7.192,5.628,9.314c0,0,5.255-8.632,10.944-9.114s11.619-.965,17.212,3.521,6.846,12.634,6.991,14.563,2.41,6.125-3.134,20.495S236.942,265.408,220,268.8s-29.252-6.1-32.3-9.6-1.581-2.034-3.84-5.422-3.614-5.874-5.308-3.162S173.47,264.5,173.47,264.5" transform="translate(-164.565 -200.692)" fill="none" stroke="#0099be" stroke-miterlimit="10" stroke-width="2"/><path d="M217.757,256.166s3.048-2.711,3.726-5.42,4.29-9.373,11.066-7.905,15.243,8.131,13.211,20.891-6.549,23.94-15.243,29.586-21.115,10.728-30.374,7.453-10.728-4.63-16.26-14.229-11.63-4.63-11.63-4.63a13.334,13.334,0,0,0-2.8,3.574.413.413,0,0,1-.776-.256c.523-2.929,1.763-6.622,4.7-7.156,4.969-.9,4.065.113,7.453-1.355s8.355.452,11.292,4.855,13.776,8.808,15.243,5.759,3.5-7.453,6.436-8.018,5.082.339,2.033-4.743S213.354,262.151,217.757,256.166Z" transform="translate(-160.299 -237.987)" fill="none" stroke="#0099be" stroke-miterlimit="10" stroke-width="2"/><path d="M607.1,544.693c2.079-1.073,5.7-2,10.939-.036,6.468,2.426,9.855,2.408,14.133.744" transform="translate(-550.357 -505.619)" fill="none" stroke="#0099be" stroke-miterlimit="10" stroke-width="2"/><circle cx="1.337" cy="1.337" r="1.337" transform="translate(57.84 46.495)" fill="none" stroke="#ff7f92" stroke-miterlimit="10" stroke-width="1"/><circle cx="1.337" cy="1.337" r="1.337" transform="translate(36.881 53.558)" fill="none" stroke="#ff7f92" stroke-miterlimit="10" stroke-width="1"/><circle cx="0.236" cy="0.236" r="0.236" transform="translate(52.347 56.363)" fill="none" stroke="#0099be" stroke-miterlimit="10" stroke-width="2"/><circle cx="0.236" cy="0.236" r="0.236" transform="translate(29.268 48.068)" fill="none" stroke="#0099be" stroke-miterlimit="10" stroke-width="2"/><circle cx="0.236" cy="0.236" r="0.236" transform="translate(70.245 46.183)" fill="none" stroke="#0099be" stroke-miterlimit="10" stroke-width="2"/></g></g></g></svg>