<svg xmlns="http://www.w3.org/2000/svg" xmlns:xlink="http://www.w3.org/1999/xlink" width="100" height="100.85" viewBox="0 0 100 100.85"><defs><linearGradient id="a" x1="0.134" y1="0.879" x2="0.771" y2="0.035" gradientUnits="objectBoundingBox"><stop offset="0" stop-color="#e5fbe7" stop-opacity="0"/><stop offset="0.294" stop-color="#e5fbe7" stop-opacity="0.322"/><stop offset="0.787" stop-color="#e5fbe7"/><stop offset="1" stop-color="#d8f0d0"/></linearGradient></defs><g transform="translate(-1125.344 -2657)"><rect width="94.233" height="94.985" transform="translate(1131.11 2657)" fill="none"/><g transform="translate(1125.344 2660.983)"><g transform="translate(4.923 0)"><path d="M2.978,51.794C-1.639,35.889-4.693-5.291,24.076.566c9.51,1.936,8.73,11.53,16.538,14.742C54.506,21.024,56.375,1.345,72.352,5.364,90.66,9.969,98.482,36.559,93.259,52.24c-2.463,7.4-6.951,16.192-15.766,16.67-6.845.371-11.474-11.545-18.3-10.216-15.515,3.02-8.9,25.05-25.844,27.246-16.9,2.189-26.9-22.194-30.367-34.146Z" transform="translate(0 0)" fill="url(#a)"/></g><g transform="translate(0 5.633)"><g transform="translate(16.537 5.754)"><g transform="translate(0 0)" opacity="0.1"><path d="M5.269.922a.922.922,0,0,1-.922.922H.922A.922.922,0,0,1,.922,0H4.348A.922.922,0,0,1,5.269.922Z" transform="translate(7.374 38.044)" fill="#2626bc" opacity="0.1"/><path d="M12.643.922a.922.922,0,0,1-.922.922H.922A.922.922,0,0,1,.922,0h10.8A.922.922,0,0,1,12.643.922Z" transform="translate(0 41.44)" fill="#2626bc" opacity="0.1"/><path d="M12.643.922a.922.922,0,0,1-.922.922H.922A.922.922,0,0,1,.922,0h10.8A.922.922,0,0,1,12.643.922Z" transform="translate(0 44.835)" fill="#2626bc" opacity="0.1"/><path d="M70.677,43.5a1.838,1.838,0,0,1,1.828,1.847V57.14a1.838,1.838,0,0,1-1.828,1.847H55.813l-1.084,7.3a5.537,5.537,0,0,1-11.009-.412l-.529-7.126a6.991,6.991,0,0,0-13.953,0l-.529,7.126a5.537,5.537,0,0,1-11.009.412L12.961,34.4A17.5,17.5,0,0,1,17.3,0,17.357,17.357,0,0,1,34.406,14.918a11.155,11.155,0,0,0,1.548.108h.519a11.353,11.353,0,0,0,7.506-2.865,10.431,10.431,0,0,1,6.928-2.622A10.626,10.626,0,0,1,61.342,21.784L58.114,43.5H70.677Z" transform="translate(1.917 0)" fill="#2626bc" opacity="0.1"/></g></g><path d="M3.011,6.022A.922.922,0,0,1,2.089,5.1,1.169,1.169,0,0,0,.922,3.933a.922.922,0,0,1,0-1.844A1.169,1.169,0,0,0,2.089.922a.922.922,0,1,1,1.844,0A1.169,1.169,0,0,0,5.1,2.089a.922.922,0,0,1,0,1.844A1.169,1.169,0,0,0,3.933,5.1.922.922,0,0,1,3.011,6.022Z" transform="translate(23.911 54.727)" fill="#ff405c"/><path d="M3.011,6.022A.922.922,0,0,1,2.089,5.1,1.169,1.169,0,0,0,.922,3.933a.922.922,0,1,1,0-1.844A1.169,1.169,0,0,0,2.089.922a.922.922,0,1,1,1.844,0A1.169,1.169,0,0,0,5.1,2.089a.922.922,0,1,1,0,1.844A1.169,1.169,0,0,0,3.933,5.1.922.922,0,0,1,3.011,6.022Z" fill="#f6911f"/><path d="M3.011,6.022A.922.922,0,0,1,2.089,5.1,1.169,1.169,0,0,0,.922,3.933a.922.922,0,1,1,0-1.844A1.169,1.169,0,0,0,2.089.922a.922.922,0,1,1,1.844,0A1.169,1.169,0,0,0,5.1,2.089a.922.922,0,1,1,0,1.844A1.169,1.169,0,0,0,3.933,5.1.922.922,0,0,1,3.011,6.022Z" transform="translate(7.942 1.588)" fill="#0099be"/><g transform="translate(10.232 65.082)"><g transform="translate(2.23)"><path d="M.922,1.871A.922.922,0,0,1,0,.949V.922a.922.922,0,0,1,1.844,0V.949A.922.922,0,0,1,.922,1.871Z" fill="#0099be"/><path d="M.922,1.871A.922.922,0,0,1,0,.949V.922a.922.922,0,0,1,1.844,0V.949A.922.922,0,0,1,.922,1.871Z" transform="translate(0 5.122)" fill="#0099be"/></g><g transform="translate(0 1.287)"><path d="M.945,1.858a.917.917,0,0,1-.46-.124L.461,1.72a.922.922,0,1,1,.921-1.6l.024.014a.922.922,0,0,1-.461,1.72Z" transform="translate(0 0)" fill="#0099be"/><path d="M.945,1.858a.917.917,0,0,1-.461-.124L.46,1.72a.922.922,0,1,1,.924-1.6l.024.014a.922.922,0,0,1-.463,1.72Z" transform="translate(4.436 2.561)" fill="#0099be"/></g><g transform="translate(0 1.287)"><path d="M.923,1.858A.922.922,0,0,1,.461.138L.485.124a.922.922,0,1,1,.921,1.6l-.024.014a.917.917,0,0,1-.46.124Z" transform="translate(0 2.561)" fill="#0099be"/><path d="M.923,1.858A.922.922,0,0,1,.46.138L.484.124a.922.922,0,1,1,.924,1.6l-.024.014a.918.918,0,0,1-.461.124Z" transform="translate(4.436 0)" fill="#0099be"/></g></g><g transform="translate(85.948 24.763)"><g transform="translate(2.23)"><path d="M.922,1.871A.922.922,0,0,1,0,.949V.922a.922.922,0,0,1,1.844,0V.949A.922.922,0,0,1,.922,1.871Z" fill="#ff405c"/><path d="M.922,1.871A.922.922,0,0,1,0,.949V.922a.922.922,0,0,1,1.844,0V.949A.922.922,0,0,1,.922,1.871Z" transform="translate(0 5.122)" fill="#ff405c"/></g><g transform="translate(0 1.287)"><path d="M.945,1.858a.916.916,0,0,1-.461-.124L.46,1.72a.922.922,0,0,1,.924-1.6l.024.014a.922.922,0,0,1-.463,1.72Z" transform="translate(0 0)" fill="#ff405c"/><path d="M.945,1.858a.916.916,0,0,1-.461-.124L.46,1.72a.922.922,0,0,1,.924-1.6l.024.014a.922.922,0,0,1-.463,1.72Z" transform="translate(4.436 2.561)" fill="#ff405c"/></g><g transform="translate(0 1.287)"><path d="M.923,1.858A.922.922,0,0,1,.46.138L.484.124a.922.922,0,1,1,.924,1.6l-.024.014a.914.914,0,0,1-.461.124Z" transform="translate(0 2.561)" fill="#ff405c"/><path d="M.923,1.858A.922.922,0,0,1,.46.138L.484.124a.922.922,0,1,1,.924,1.6l-.024.014a.916.916,0,0,1-.461.124Z" transform="translate(4.436 0)" fill="#ff405c"/></g></g><g transform="translate(81.871 35.786)"><path d="M5.269.922a.922.922,0,0,1-.922.922H.922A.922.922,0,0,1,.922,0H4.348A.922.922,0,0,1,5.269.922Z" transform="translate(7.374)" fill="#0099be"/><path d="M12.643.922a.922.922,0,0,1-.922.922H.922A.922.922,0,0,1,.922,0h10.8A.922.922,0,0,1,12.643.922Z" transform="translate(0 3.885)" fill="#0099be"/><path d="M12.643.922a.922.922,0,0,1-.922.922H.922A.922.922,0,0,1,.922,0h10.8A.922.922,0,0,1,12.643.922Z" transform="translate(0 7.769)" fill="#0099be"/></g></g><g transform="translate(16.866 0.96)"><g transform="translate(0.041)"><path d="M327.5,471.868c-5.755,2.131-18.8-3.964-34.093-9.592a23.545,23.545,0,0,1-11.447-9.081c-.061-.091-.121-.183-.179-.274-6.9-10.608-5.62-26.336,8.168-34.566q.97-.58,2.022-1.106.6-.3,1.221-.582c5.174-2.333,9.393-2.747,12.819-2.022a15.4,15.4,0,0,1,8.983,5.9q.968.114,1.927.31a25.122,25.122,0,0,1,11.413,5.8,27.134,27.134,0,0,1,9.179,19.208C338.149,459.719,331.18,470.5,327.5,471.868Z" transform="translate(-268.878 -377.624)" fill="#ff405c"/><path d="M219.836,116.735q-1.052.524-2.023,1.106c-13.791,8.228-15.074,23.954-8.17,34.559-16.97-7.392-13.587-27.356-9.9-39.443,3.836-12.571-.854-33.155-.854-33.155L216.8,77.1s-.1,1.09-.231,2.78c-.382,4.783-1.07,14.374-.745,17.677h0a39.619,39.619,0,0,0,1.607,10.284C218.5,111.378,219.273,114.309,219.836,116.735ZM210.406,167a78.42,78.42,0,0,0-.584-14.324,23.549,23.549,0,0,0,11.449,9.079,22.629,22.629,0,0,0,.007,5.244Z" transform="translate(-196.743 -77.1)" fill="#ff7f92"/><path d="M400.616,102.438a64.95,64.95,0,0,0-9.681-.152c-1.661-1.01-5.139-1.659-7.124.919-2.693,4.285,2.06,10.005,5.575,12.94-3.427-.725-7.647-.311-12.822,2.022q-.624.283-1.222.582c-.563-2.426-1.34-5.358-2.4-8.894a39.637,39.637,0,0,1-1.607-10.286h0c-.326-3.3.363-12.9.745-17.681,2.36,1.314,4.863,5.347,5.808,9.774a.543.543,0,0,0,1.075-.11.613.613,0,0,0-.011-.108c-.461-2.28-.688-6.137.291-12.091l13.382.979s-1.779,5.5.24,8.727c.815,1.305,6.525,2.61,7.743,6.262Z" transform="translate(-352.257 -79.105)" fill="#b2d0ff"/><path d="M507.552,291.072l-1.934,6.943a20.642,20.642,0,0,0-6.274-.345,3.863,3.863,0,0,0-3.927,2.659c-.773,2.323-2.189,7.067,1.214,8.83q-.959-.2-1.927-.31a15.4,15.4,0,0,0-8.985-5.9c-3.516-2.934-8.269-8.654-5.575-12.94a44.585,44.585,0,0,1,7.124-.919,64.941,64.941,0,0,1,9.681.152A65.877,65.877,0,0,1,507.552,291.072Z" transform="translate(-448.596 -265.912)" fill="#ffd9ab"/><path d="M631.8,386.113s-.036-.026-.107-.074a25.128,25.128,0,0,0-11.415-5.8c-3.4-1.763-1.987-6.506-1.214-8.83a3.863,3.863,0,0,1,3.927-2.659c4.538.347,7.065,7.978,8.292,11.136C632.773,383.721,631.8,386.113,631.8,386.113Z" transform="translate(-572.241 -336.995)" fill="#ffb1bd"/></g><g transform="translate(10.019 43.659)"><path d="M604.551,502.45s-6.387,2.884-4.121,10.919,5.357,7,6.387,13.8-4.327,7.829.411,11.95" transform="translate(-566.029 -499.819)" fill="none" stroke="#e50523" stroke-linejoin="round" stroke-miterlimit="10" stroke-width="2"/><path d="M526.305,555.43s-1.03,5.975-4.327,7.829-6.8,5.562-3.914,10.3" transform="translate(-492.112 -546.999)" fill="none" stroke="#e50523" stroke-linejoin="round" stroke-miterlimit="10" stroke-width="2"/><path d="M589.979,659.51s-.618,5.769-3.3,8.653-1.648,7.211-.618,8.241" transform="translate(-552.695 -639.761)" fill="none" stroke="#e50523" stroke-linejoin="round" stroke-miterlimit="10" stroke-width="2"/><path d="M604.41,602.74a23.173,23.173,0,0,0,9.477,4.738c5.769,1.236,6.181,4.738,6.592,7" transform="translate(-570.018 -589.159)" fill="none" stroke="#e50523" stroke-linejoin="round" stroke-miterlimit="10" stroke-width="2"/><path d="M663.08,765.48s1.854,4.738,4.945,5.151" transform="translate(-622.286 -734.196)" fill="none" stroke="#e50523" stroke-linejoin="round" stroke-miterlimit="10" stroke-width="2"/><path d="M354.5,477.85s-.412,5.975,3.091,8.653,6.181.412,7.416,3.091" transform="translate(-347.309 -477.85)" fill="none" stroke="#e50523" stroke-linejoin="round" stroke-miterlimit="10" stroke-width="2"/><path d="M288.39,576.25a15.675,15.675,0,0,1,4.532,6.592c1.236,3.914,4.121,6.592,8.447,5.975" transform="translate(-288.39 -565.55)" fill="none" stroke="#e50523" stroke-linejoin="round" stroke-miterlimit="10" stroke-width="2"/><path d="M330.02,767.168a4.346,4.346,0,0,1,5.357-2.06c3.708,1.236,3.5,4.945,7.829,4.738" transform="translate(-325.507 -733.617)" fill="none" stroke="#e50523" stroke-linejoin="round" stroke-miterlimit="10" stroke-width="2"/></g><path d="M327.5,471.862c-5.754,2.131-18.8-3.964-34.093-9.592-17.608-6.478-22.65-32.466-3.457-43.922q.97-.58,2.023-1.106c.4-.2.8-.394,1.221-.582,11.18-5.043,17.906-1.12,21.8,3.88q.968.113,1.927.31a25.119,25.119,0,0,1,11.413,5.8,27.138,27.138,0,0,1,9.179,19.209C338.15,459.713,331.181,470.5,327.5,471.862Z" transform="translate(-268.838 -377.618)" fill="none" stroke="#0099be" stroke-miterlimit="10" stroke-width="2.5"/><path d="M624.741,481.856a28.171,28.171,0,0,0-4.835-10.4c-.018,0-.037,0-.055-.007" transform="translate(-573.754 -428.525)" fill="none" stroke="#0099be" stroke-miterlimit="10" stroke-width="2.5"/><path d="M198.555,101.92s4.689,20.584.852,33.155c-3.7,12.122-7.2,32.166,9.938,39.507a72.636,72.636,0,0,1,.723,14.534" transform="translate(-196.365 -99.218)" fill="none" stroke="#0099be" stroke-miterlimit="10" stroke-width="2.5"/><path d="M372.318,77.1s-1.415,15.99-.974,20.462h0a39.589,39.589,0,0,0,1.607,10.286c1.06,3.536,1.838,6.469,2.4,8.894" transform="translate(-352.221 -77.1)" fill="none" stroke="#0099be" stroke-miterlimit="10" stroke-width="2.5"/><path d="M561.642,88.34s-1.779,5.5.24,8.727c.815,1.305,6.525,2.61,7.743,6.262" transform="translate(-521.237 -87.116)" fill="none" stroke="#0099be" stroke-miterlimit="10" stroke-width="2.5"/><path d="M501.638,83.1a25,25,0,0,0,.128,10.931" transform="translate(-467.924 -82.447)" fill="none" stroke="#0099be" stroke-miterlimit="10" stroke-width="2.5"/><path d="M378.74,81.869c2.366,1.305,4.875,5.346,5.823,9.78a.543.543,0,0,0,1.074-.11.524.524,0,0,0-.011-.108c-.459-2.28-.687-6.137.292-12.091" transform="translate(-358.889 -79.096)" fill="none" stroke="#0099be" stroke-miterlimit="10" stroke-width="2.5"/><path d="M487.4,282.823c-1.6-1.056-5.216-1.812-7.254.837-2.692,4.284,2.06,10.005,5.575,12.938" transform="translate(-448.552 -259.565)" fill="none" stroke="#0099be" stroke-miterlimit="10" stroke-width="2.5"/><path d="M486.63,290.007s12.007-2.92,27.409,1.066" transform="translate(-455.042 -265.913)" fill="none" stroke="#0099be" stroke-miterlimit="10" stroke-width="2.5"/><path d="M631.8,386.122s-.036-.026-.107-.074a25.126,25.126,0,0,0-11.415-5.8c-3.4-1.763-1.987-6.507-1.214-8.83a3.863,3.863,0,0,1,3.927-2.659c4.538.347,7.065,7.978,8.292,11.136C632.773,383.73,631.8,386.122,631.8,386.122Z" transform="translate(-572.2 -337.004)" fill="none" stroke="#0099be" stroke-miterlimit="10" stroke-width="2.5"/><path d="M662.99,368.046a20.642,20.642,0,0,1,6.274.345" transform="translate(-612.198 -336.29)" fill="none" stroke="#0099be" stroke-miterlimit="10" stroke-width="2.5"/><path d="M420.77,854.8a22.713,22.713,0,0,0,.007,5.245" transform="translate(-396.206 -770.148)" fill="none" stroke="#0099be" stroke-miterlimit="10" stroke-width="2.5"/></g></g></g></svg>