<svg xmlns="http://www.w3.org/2000/svg" xmlns:xlink="http://www.w3.org/1999/xlink" width="100.905" height="100.024" viewBox="0 0 100.905 100.024"><defs><linearGradient id="a" y1="0.5" x2="1" y2="0.5" gradientUnits="objectBoundingBox"><stop offset="0" stop-color="#e5fbe7" stop-opacity="0"/><stop offset="0.998" stop-color="#d8f0d0"/><stop offset="1" stop-color="#ffb3b3"/></linearGradient></defs><g transform="translate(-531.938 -3630)"><rect width="100" height="100" transform="translate(532.686 3630.012)" fill="none"/><g transform="translate(532.527 3630)"><path d="M88.521,8.468c10.562,6.438,16.085,19.738,7.758,30.421-8.761,11.24-23.816,5.541-31.537,19.591-8.107,14.751.527,26.571-16.592,36.7-9.352,5.532-33.958,8.467-41.38-3.222C-.046,81.22,11.895,69.575,9.982,57.416,7.6,42.261-5.232,39.1,2.391,20.605,8.09,6.78,57.063-10.708,88.521,8.468Z" transform="translate(0 0)" fill="url(#a)"/><g transform="translate(38.758 61.014)"><path d="M3.214,6.428a.984.984,0,0,1-.984-.984A1.248,1.248,0,0,0,.984,4.2a.984.984,0,0,1,0-1.968A1.248,1.248,0,0,0,2.23.984.984.984,0,0,1,4.2.984,1.248,1.248,0,0,0,5.444,2.23a.984.984,0,0,1,0,1.968A1.248,1.248,0,0,0,4.2,5.444.984.984,0,0,1,3.214,6.428Z" transform="translate(-7.128 17.527)" fill="#ff405c"/></g></g><g transform="translate(542.55 3639.513)"><g transform="translate(0 0.98)"><g transform="translate(0 4.898)" opacity="0.1"><path d="M5.6.98a.98.98,0,0,1-.98.98H.98A.98.98,0,0,1,.98,0H4.621A.98.98,0,0,1,5.6.98Z" transform="translate(7.837 31.2)" fill="#2626bc" opacity="0.1"/><path d="M13.437.98a.98.98,0,0,1-.98.98H.98A.98.98,0,1,1,.98,0H12.458A.98.98,0,0,1,13.437.98Z" transform="translate(0 34.801)" fill="#2626bc" opacity="0.1"/><path d="M13.437.98a.98.98,0,0,1-.98.98H.98A.98.98,0,1,1,.98,0H12.458A.98.98,0,0,1,13.437.98Z" transform="translate(0 38.403)" fill="#2626bc" opacity="0.1"/></g><path d="M3.2,6.4a.98.98,0,0,1-.98-.98A1.242,1.242,0,0,0,.98,4.18a.98.98,0,0,1,0-1.959A1.242,1.242,0,0,0,2.22.98.98.98,0,0,1,4.18.98,1.242,1.242,0,0,0,5.421,2.22a.98.98,0,0,1,0,1.959A1.242,1.242,0,0,0,4.18,5.421.98.98,0,0,1,3.2,6.4Z" transform="translate(14.206 55.064)" fill="#ff405c"/><path d="M3.2,6.4a.98.98,0,0,1-.98-.98A1.242,1.242,0,0,0,.98,4.18a.98.98,0,0,1,0-1.959A1.242,1.242,0,0,0,2.22.98.98.98,0,0,1,4.18.98,1.242,1.242,0,0,0,5.421,2.22a.98.98,0,0,1,0,1.959A1.242,1.242,0,0,0,4.18,5.421.98.98,0,0,1,3.2,6.4Z" transform="translate(53.184 -6.302)" fill="#6c6cff"/><path d="M3.2,6.4a.98.98,0,0,1-.98-.98A1.242,1.242,0,0,0,.98,4.18a.98.98,0,0,1,0-1.959A1.242,1.242,0,0,0,2.22.98.98.98,0,0,1,4.18.98,1.242,1.242,0,0,0,5.421,2.22a.98.98,0,0,1,0,1.959A1.242,1.242,0,0,0,4.18,5.421.98.98,0,0,1,3.2,6.4Z" transform="translate(72.802 47.082)" fill="#6c6cff"/><g transform="translate(10.471 45.701)"><g transform="translate(2.37)"><path d="M.98,1.989A.98.98,0,0,1,0,1.009V.98a.98.98,0,0,1,1.959,0v.029A.979.979,0,0,1,.98,1.989Z" fill="#f6911f"/><path d="M.98,1.989A.98.98,0,0,1,0,1.009V.98a.98.98,0,0,1,1.959,0v.029A.979.979,0,0,1,.98,1.989Z" transform="translate(0 5.444)" fill="#f6911f"/></g><g transform="translate(0 1.368)"><path d="M1,1.974a.974.974,0,0,1-.49-.132L.489,1.828a.98.98,0,1,1,.982-1.7L1.5.147A.98.98,0,0,1,1,1.974Z" transform="translate(0 0)" fill="#f6911f"/><path d="M1,1.974a.974.974,0,0,1-.488-.131L.49,1.829a.98.98,0,1,1,.979-1.7l.025.015A.98.98,0,0,1,1,1.974Z" transform="translate(4.715 2.722)" fill="#f6911f"/></g><g transform="translate(0 1.368)"><path d="M.981,1.974A.98.98,0,0,1,.489.147L.515.132a.98.98,0,1,1,.982,1.7l-.025.015a.976.976,0,0,1-.49.132Z" transform="translate(0 2.722)" fill="#f6911f"/><path d="M.981,1.974A.98.98,0,0,1,.49.146L.516.131a.98.98,0,1,1,.979,1.7l-.025.015a.974.974,0,0,1-.488.131Z" transform="translate(4.714 0)" fill="#f6911f"/></g></g><g transform="translate(44.074 -3.749)"><g transform="translate(2.37)"><path d="M.98,1.989A.98.98,0,0,1,0,1.009V.98a.98.98,0,0,1,1.959,0v.029A.98.98,0,0,1,.98,1.989Z" fill="#ff405c"/><path d="M.98,1.989A.98.98,0,0,1,0,1.009V.98a.98.98,0,0,1,1.959,0v.029A.98.98,0,0,1,.98,1.989Z" transform="translate(0 5.444)" fill="#ff405c"/></g><g transform="translate(0 1.368)"><path d="M1,1.974a.974.974,0,0,1-.49-.132L.489,1.828a.98.98,0,1,1,.982-1.7L1.5.147A.98.98,0,0,1,1,1.974Z" transform="translate(0 0)" fill="#ff405c"/><path d="M1,1.974a.974.974,0,0,1-.49-.132L.489,1.828a.98.98,0,1,1,.982-1.7L1.5.147A.98.98,0,0,1,1,1.974Z" transform="translate(4.714 2.722)" fill="#ff405c"/></g><g transform="translate(0 1.368)"><path d="M.981,1.974A.98.98,0,0,1,.489.147L.515.132a.98.98,0,1,1,.982,1.7l-.025.015A.975.975,0,0,1,.981,1.974Z" transform="translate(0 2.722)" fill="#ff405c"/><path d="M.981,1.974A.98.98,0,0,1,.489.147L.515.132a.98.98,0,1,1,.982,1.7l-.025.015a.976.976,0,0,1-.49.132Z" transform="translate(4.714 0)" fill="#ff405c"/></g></g></g></g><g transform="translate(447.547 3429.176)"><g transform="translate(84.981 220.371)"><path d="M167.912,242.93c-1.036,5.058-5.25,3.4-8.084,2.868s-4.49-.905-7.046-1.434c-2.377-.492-13.053-2.093-15.652-2.375h0a19.945,19.945,0,0,0-7.532-2.338,4.493,4.493,0,0,1-2.9.727c-1.75-.147-2.14.789-1.293,2.854a36.909,36.909,0,0,0,2.84,5.75c.44.112,3.4,2.452,5.5-.573-.046.119-2.026,5.2-7.868,1.718a21.248,21.248,0,0,1-8.148-9.027c-1.349-.41-6.85-1.981-9.507-1.189a4.059,4.059,0,0,0-1.9,1.214c-.069.078-.134.157-.2.239h0a4.239,4.239,0,0,0-.252.363,4.973,4.973,0,0,0-.209,4.977c-3.079-1.682-6.249-2.684-8.332-1.076l0,0a7.743,7.743,0,0,0-.589.562,5.886,5.886,0,0,0-.956,1.65l0,0c-.02.051-.039.1-.057.156a4,4,0,0,0-.246,1.442,4.887,4.887,0,0,0,1.842,3.456c-.861.49-1.709,1.837-1.571,3.931.011.174.029.353.054.536.336,2.427,8.479,8.825,10.767,10.222s6.277,4.485,6.277,4.485a23.334,23.334,0,0,0-6.246-1.06,14.231,14.231,0,0,1-3.978-.3c-1.728-.377-1.244-.3-5.182,0-2.56.2-9.911.357-12.454-1.5l.962-43.034c.645-.262,10.657-5.007,11.754-5.14,1.358-.165,5.282-1.319,8.6-.165s14.56,4.141,17.426,5.625l1.069.5s3.178.831,5.665,1.661,12.3,2.038,15.82,3.1,9.05,3.4,9.811,3.624S168.949,237.872,167.912,242.93Z" transform="translate(-84.99 -220.371)" fill="#ffd6bb"/><path d="M219.792,602.64a5.994,5.994,0,0,1-6.922,2.118s-4-3.094-6.289-4.494-10.451-7.811-10.787-10.243q-.038-.276-.055-.537c.683,2.113,4.44,3.42,4.44,3.42a4.185,4.185,0,0,0,2.59-4.084,59.489,59.489,0,0,0,7.609,3.759c2.957,1.052,3.386,2.03,10.586,4.862C222.036,599.076,221.02,600.783,219.792,602.64Z" transform="translate(-184.958 -553.057)" fill="#ecb895"/><path d="M505.237,427.594v0c-2.106,3.032-5.072.686-5.513.574a36.986,36.986,0,0,1-2.846-5.762c-.848-2.07-.458-3.007,1.3-2.86a4.5,4.5,0,0,0,2.908-.728S505.275,424.988,505.237,427.594Z" transform="translate(-456.475 -399.545)" fill="#eceaf0"/><path d="M332.328,434.589a31.926,31.926,0,0,1-3.474-.337c-5.064-.709-12.7-2.383-15.292-3.622-1.487-.713-3.446-1.37-5.233-2.071a2.461,2.461,0,0,0,3.027-2.023c.9-3.178.672-4.769-1.059-5.375-1.484-.52-4.368-1.734-5.756-.864a4.067,4.067,0,0,1,1.9-1.217c2.662-.793,8.174.781,9.525,1.192a21.29,21.29,0,0,0,8.163,9.046c5.853,3.49,7.837-1.6,7.882-1.721v0c.038-2.606-4.156-8.774-4.156-8.774a19.98,19.98,0,0,1,7.546,2.343h0a6.88,6.88,0,0,1,3.569,4.876C339.889,432.513,336.2,434.665,332.328,434.589Z" transform="translate(-283.235 -399.55)" fill="#ecb895"/><path d="M299.942,437.4a2.461,2.461,0,0,1-3.027,2.023c-2-.788-3.79-1.631-4.448-2.67a4.984,4.984,0,0,1,.209-4.987,4.262,4.262,0,0,1,.252-.364h0c.063-.082.129-.162.2-.239,1.388-.869,4.273.345,5.756.864C300.614,432.634,300.842,434.226,299.942,437.4Z" transform="translate(-271.795 -410.413)" fill="#eceaf0"/><path d="M228.756,486.974c-.83,2.724-2.838,7.944-10.175,5.069l-.141-.056c-7.2-2.832-7.629-3.809-10.586-4.862a59.477,59.477,0,0,1-7.609-3.759c-.275-.148-.532-.283-.766-.4a20.557,20.557,0,0,1-4.69-2.873,4.9,4.9,0,0,1-1.846-3.463,4.007,4.007,0,0,1,.246-1.445,2.644,2.644,0,0,0,.318,2.625c1.583,1.809,5.352,3.1,5.352,3.1s2.9-.892,2.487-5.432c0,0-4.445-3.832-6.548-2.667,2.087-1.611,5.263-.607,8.348,1.079.658,1.04,2.444,1.883,4.448,2.67,1.786.7,3.746,1.358,5.233,2.071,2.588,1.239,10.228,2.914,15.292,3.622A5.956,5.956,0,0,1,228.756,486.974Z" transform="translate(-182.432 -447.57)" fill="#ecb895"/><path d="M199.3,486.408s-3.769-1.289-5.352-3.1a2.644,2.644,0,0,1-.318-2.625c.019-.053.037-.105.057-.157l0,0a5.9,5.9,0,0,1,.958-1.653,7.772,7.772,0,0,1,.59-.563l0,0c2.1-1.164,6.548,2.667,6.548,2.667C202.2,485.516,199.3,486.408,199.3,486.408Zm1.385,2.46a4.185,4.185,0,0,1-2.591,4.084s-3.757-1.306-4.44-3.42c-.138-2.1.712-3.448,1.574-3.939a20.554,20.554,0,0,0,4.69,2.873C200.156,488.584,200.412,488.72,200.687,488.868Z" transform="translate(-182.875 -453.062)" fill="#eceaf0"/><path d="M735.363,596.372a8.106,8.106,0,1,1-16.213,0c0-6.963,8.106-13.372,8.106-13.372S735.363,589.409,735.363,596.372Z" transform="translate(-657.569 -547.803)" fill="#ff405c"/></g><g transform="translate(84.98 220.372)"><path d="M125.621,235.906c-.5,3.993,3.346,10.76,9.268,14.291s7.883-1.723,7.883-1.723c.039-2.606-4.156-8.774-4.156-8.774-.385-1.009-1.339-7.391-1.339-7.391-.3-2.479-1.663-4.3-4.536-5.784s-14.133-4.48-17.459-5.637-7.257,0-8.617.165c-1.1.133-11.129,4.888-11.776,5.151" transform="translate(-93.925 -220.381)" fill="none" stroke="#0099be" stroke-miterlimit="10" stroke-width="2"/><path d="M120.922,676.38c1.177,1.665.144,3.4-1.108,5.3a6,6,0,0,1-6.922,2.118,23.371,23.371,0,0,0-6.258-1.062,14.268,14.268,0,0,1-3.987-.3c-1.731-.379-1.246-.3-5.191,0-2.565.2-9.93.356-12.477-1.5" transform="translate(-84.98 -632.094)" fill="none" stroke="#0099be" stroke-miterlimit="10" stroke-width="2"/><path d="M494.71,288.6s3.183.831,5.676,1.665,12.321,2.042,15.85,3.1,9.067,3.4,9.829,3.631,12.874,2.5,11.835,7.566-5.26,3.4-8.1,2.874-4.5-.907-7.06-1.437c-2.381-.493-13.077-2.1-15.681-2.38h0" transform="translate(-454.977 -281.959)" fill="none" stroke="#0099be" stroke-miterlimit="10" stroke-width="2"/><path d="M812.285,374.86s1.315,1.808-.485,6.5" transform="translate(-741.198 -359.853)" fill="none" stroke="#0099be" stroke-miterlimit="10" stroke-width="2"/><path d="M697.963,336.01s1.177,2.215-.623,7.737" transform="translate(-637.839 -324.778)" fill="none" stroke="#0099be" stroke-miterlimit="10" stroke-width="2"/><path d="M562.25,308.03a22.764,22.764,0,0,1,.416,6.582" transform="translate(-515.874 -299.515)" fill="none" stroke="#0099be" stroke-miterlimit="10" stroke-width="2"/><path d="M304.851,420.375s-6.783-2.194-9.829-1.286-3.806,4.842-2.561,6.809,6.528,3.23,9.682,4.741c3.311,1.586,14.89,3.883,18.766,3.959s7.561-2.076,6.644-8.548c-.9-6.355-11.116-7.22-11.116-7.22a4.5,4.5,0,0,1-2.908.728c-1.752-.148-2.143.79-1.295,2.86a36.873,36.873,0,0,0,2.846,5.761c.44.112,3.408,2.459,5.513-.576" transform="translate(-271.813 -399.561)" fill="none" stroke="#0099be" stroke-miterlimit="10" stroke-width="2"/><path d="M303.247,439.073s2.976,1.508,3.876-1.67.671-4.769-1.059-5.375-5.266-2.155-6.213-.248" transform="translate(-278.975 -410.414)" fill="none" stroke="#0099be" stroke-miterlimit="10" stroke-width="2"/><path d="M193.187,504.77a3.985,3.985,0,0,0-.246,1.445c.062,3.416,4.847,5.479,6.536,6.336a73.578,73.578,0,0,0,8.375,4.161c2.976,1.059,3.392,2.042,10.728,4.917s9.345-2.346,10.174-5.069a5.983,5.983,0,0,0-.761-4.917" transform="translate(-182.43 -477.159)" fill="none" stroke="#0099be" stroke-miterlimit="10" stroke-width="2"/><path d="M212.02,472.807c2.087-1.611,5.263-.607,8.348,1.079" transform="translate(-199.653 -447.546)" fill="none" stroke="#0099be" stroke-miterlimit="10" stroke-width="2"/><path d="M195.226,478.308l0,0a7.844,7.844,0,0,0-.591.563,5.907,5.907,0,0,0-.958,1.653l0,0c-.019.052-.039.1-.057.157a2.639,2.639,0,0,0,.318,2.625c1.583,1.81,5.351,3.1,5.351,3.1s2.9-.893,2.488-5.432C201.774,480.976,197.329,477.144,195.226,478.308Z" transform="translate(-182.859 -453.055)" fill="none" stroke="#0099be" stroke-miterlimit="10" stroke-width="2"/><path d="M212.73,574.222s-4-3.094-6.289-4.494-10.451-7.811-10.787-10.243.606-3.98,1.551-4.495" transform="translate(-184.817 -522.521)" fill="none" stroke="#0099be" stroke-miterlimit="10" stroke-width="2"/><path d="M202.689,588.82a4.185,4.185,0,0,1-2.59,4.084s-4.358-1.55-4.449-4" transform="translate(-184.876 -553.024)" fill="none" stroke="#0099be" stroke-miterlimit="10" stroke-width="2"/><path d="M106.3,522.44s-3.978,3.537-9.034,3.243" transform="translate(-96.074 -493.092)" fill="none" stroke="#0099be" stroke-miterlimit="10" stroke-width="2"/><path d="M282.185,353.017s-6.684-1.219-9.09-1.569a6.193,6.193,0,0,1-1.881-.582,7.1,7.1,0,0,1-3.685-4.1" transform="translate(-249.799 -334.492)" fill="none" stroke="#0099be" stroke-miterlimit="10" stroke-width="2"/><path d="M735.363,596.372a8.106,8.106,0,1,1-16.213,0c0-6.963,8.106-13.372,8.106-13.372S735.363,589.409,735.363,596.372Z" transform="translate(-657.568 -547.804)" fill="none" stroke="#0099be" stroke-miterlimit="10" stroke-width="2"/></g></g></g></svg>