<svg xmlns="http://www.w3.org/2000/svg" width="35" height="35" viewBox="0 0 35 35"><g transform="translate(-583 -695)"><g transform="translate(583 695)" fill="#253751"><path d="M 17.5 34.5 C 12.95913982391357 34.5 8.690059661865234 32.731689453125 5.479189872741699 29.52080917358398 C 2.268310070037842 26.30994033813477 0.5 22.04085922241211 0.5 17.5 C 0.5 12.95913982391357 2.268310070037842 8.690059661865234 5.479189872741699 5.479189872741699 C 8.690059661865234 2.268310070037842 12.95913982391357 0.5 17.5 0.5 C 22.04085922241211 0.5 26.30994033813477 2.268310070037842 29.52080917358398 5.479189872741699 C 32.731689453125 8.690059661865234 34.5 12.95913982391357 34.5 17.5 C 34.5 22.04085922241211 32.731689453125 26.30994033813477 29.52080917358398 29.52080917358398 C 26.30994033813477 32.731689453125 22.04085922241211 34.5 17.5 34.5 Z" stroke="none"/><path d="M 17.5 1 C 13.09268951416016 1 8.949180603027344 2.716300964355469 5.832740783691406 5.832740783691406 C 2.716300964355469 8.949180603027344 1 13.09268951416016 1 17.5 C 1 21.90731048583984 2.716300964355469 26.05081939697266 5.832740783691406 29.16725921630859 C 8.949180603027344 32.28369903564453 13.09268951416016 34 17.5 34 C 21.90731048583984 34 26.05081939697266 32.28369903564453 29.16725921630859 29.16725921630859 C 32.28369903564453 26.05081939697266 34 21.90731048583984 34 17.5 C 34 13.09268951416016 32.28369903564453 8.949180603027344 29.16725921630859 5.832740783691406 C 26.05081939697266 2.716300964355469 21.90731048583984 1 17.5 1 M 17.5 0 C 27.16497993469238 0 35 7.835020065307617 35 17.5 C 35 27.16497993469238 27.16497993469238 35 17.5 35 C 7.835020065307617 35 0 27.16497993469238 0 17.5 C 0 7.835020065307617 7.835020065307617 0 17.5 0 Z" stroke="none" fill="#fff"/></g><g transform="translate(226.5 386.5)"><path d="M3.763,16.659h8.728a3.028,3.028,0,0,0,3.323-3.123l.433-6.88a3.126,3.126,0,0,0-3.123-3.323,1.369,1.369,0,0,1-1.208-.741l-.6-1.208A2.749,2.749,0,0,0,9.085,0H7.178a2.751,2.751,0,0,0-2.24,1.383l-.6,1.208a1.369,1.369,0,0,1-1.208.741A3.126,3.126,0,0,0,.007,6.655l.433,6.88A3.024,3.024,0,0,0,3.763,16.659Z" transform="translate(365.873 317.671)" fill="#fff" opacity="0.4"/><path d="M3.133,1.253H.627A.631.631,0,0,1,0,.627.631.631,0,0,1,.627,0H3.133a.631.631,0,0,1,.627.627A.631.631,0,0,1,3.133,1.253Z" transform="translate(372.12 322.041)" fill="#fff"/><path d="M5.647,2.824A2.824,2.824,0,1,1,2.824,0,2.824,2.824,0,0,1,5.647,2.824Z" transform="translate(371.176 325.466)" fill="#fff"/><path d="M0,0H20V20H0Z" transform="translate(364 316)" fill="none" opacity="0"/></g></g></svg>