<svg xmlns="http://www.w3.org/2000/svg" width="50.812" height="50.812" viewBox="0 0 50.812 50.812"><path d="M100.834,20.517a1.489,1.489,0,0,1-1.489-1.489,16.051,16.051,0,1,0-32.1,0,1.489,1.489,0,0,1-2.977,0,19.028,19.028,0,1,1,38.056,0A1.489,1.489,0,0,1,100.834,20.517Z" transform="translate(-57.889)" fill="#26d2fe"/><path d="M273.539,20.517a1.489,1.489,0,0,1-1.489-1.489A16.069,16.069,0,0,0,256,2.977V0a19.049,19.049,0,0,1,19.028,19.028A1.489,1.489,0,0,1,273.539,20.517Z" transform="translate(-230.594)" fill="#0099be"/><path d="M7.867,195.655H1.489A1.489,1.489,0,0,1,0,194.167V178.222a1.489,1.489,0,0,1,1.489-1.489H7.867a1.489,1.489,0,0,1,1.489,1.489v15.945A1.489,1.489,0,0,1,7.867,195.655Z" transform="translate(0 -159.194)" fill="#4b6b9c"/><path d="M277.812,351.539h-3.189a1.489,1.489,0,0,1,0-2.977h3.189a9.684,9.684,0,0,0,9.673-9.673,1.489,1.489,0,1,1,2.977,0A12.665,12.665,0,0,1,277.812,351.539Z" transform="translate(-246.028 -303.916)" fill="#26d2fe"/><path d="M276.156,185.233h-.106v-8.078a1.489,1.489,0,0,0-2.541-1.053l-6.851,6.848a5.387,5.387,0,0,0-1.557,3.771,1.489,1.489,0,0,0,1.489,1.489h6.484v3.295a1.489,1.489,0,0,0,2.977,0V188.21h.106a1.489,1.489,0,0,0,0-2.977Zm-3.083,0H268.6a2.35,2.35,0,0,1,.161-.18l4.307-4.305Z" transform="translate(-238.791 -158.233)" fill="#ff7386"/><path d="M137.994,192.995h-7.972a1.489,1.489,0,0,1-1.489-1.489,5.387,5.387,0,0,1,1.557-3.771l6.415-6.412v-.18a2.5,2.5,0,0,0-5,0,1.489,1.489,0,0,1-2.977,0v0a5.475,5.475,0,0,1,10.95,0v.8a1.488,1.488,0,0,1-.436,1.053l-6.848,6.845a2.327,2.327,0,0,0-.161.18h5.957a1.489,1.489,0,0,1,0,2.977Z" transform="translate(-115.777 -158.233)" fill="#ff7386"/><path d="M425.6,195.655h-6.378a1.489,1.489,0,0,1-1.489-1.489V178.222a1.489,1.489,0,0,1,1.489-1.489H425.6a1.489,1.489,0,0,1,1.489,1.489v15.945A1.489,1.489,0,0,1,425.6,195.655Z" transform="translate(-376.276 -159.194)" fill="#4b6b9c"/><circle cx="4.678" cy="4.678" r="4.678" transform="translate(20.728 41.457)" fill="#4b6b9c"/><path d="M1.489,281.528H7.867a1.489,1.489,0,0,0,1.489-1.489v-7.972H0v7.972A1.489,1.489,0,0,0,1.489,281.528Z" transform="translate(0 -245.067)" fill="#253751"/><path d="M419.222,281.528H425.6a1.489,1.489,0,0,0,1.489-1.489v-7.972h-9.355v7.972A1.489,1.489,0,0,0,419.222,281.528Z" transform="translate(-376.276 -245.067)" fill="#253751"/><path d="M266.589,275.044h6.484v3.295a1.489,1.489,0,1,0,2.977,0v-3.295h.106a1.489,1.489,0,1,0,0-2.977h-10.84a5.314,5.314,0,0,0-.216,1.489A1.489,1.489,0,0,0,266.589,275.044Z" transform="translate(-238.791 -245.067)" fill="#fe4e65"/><path d="M128.533,278.339a1.489,1.489,0,0,0,1.489,1.489h7.972a1.489,1.489,0,1,0,0-2.977h-5.957a2.307,2.307,0,0,1,.161-.18l4.606-4.6h-4.211l-2.5,2.5A5.387,5.387,0,0,0,128.533,278.339Z" transform="translate(-115.777 -245.067)" fill="#fe4e65"/><path d="M256,427.088v-9.355a4.678,4.678,0,1,1,0,9.355Z" transform="translate(-230.594 -376.276)" fill="#253751"/></svg>