<svg xmlns="http://www.w3.org/2000/svg" width="54.377" height="58.724" viewBox="0 0 54.377 58.724"><path d="M185.946,458.232a.618.618,0,0,1-.618-.618V452.5H169.274v5.111a.618.618,0,0,1-1.236,0v-5.73a.618.618,0,0,1,.618-.618h17.29a.618.618,0,0,1,.618.618v5.73A.618.618,0,0,1,185.946,458.232Z" transform="translate(-150.938 -399.508)" fill="#253751"/><path d="M197.521,143.757H183.673a.62.62,0,0,0-.618.618v8.271a.62.62,0,0,0,.618.618h13.847a.62.62,0,0,0,.618-.618v-8.271A.62.62,0,0,0,197.521,143.757Zm-.618,8.271H184.291v-7.035H196.9Z" transform="translate(-164.233 -127.269)" fill="#253751"/><path d="M165.989,211.706v27.231a1.754,1.754,0,0,1-1.754,1.754H143.091a1.754,1.754,0,0,1-1.754-1.754V211.706a1.754,1.754,0,0,1,1.754-1.754h21.144A1.754,1.754,0,0,1,165.989,211.706Z" transform="translate(-127.3 -185.871)" fill="#e2e7ea"/><g transform="translate(17.807 29.75)"><path d="M190.7,260.617H174.825a.618.618,0,0,1,0-1.236H190.7a.618.618,0,1,1,0,1.236Z" transform="translate(-174.207 -259.381)" fill="#253751"/><path d="M190.7,302.67H174.825a.618.618,0,0,1,0-1.236H190.7a.618.618,0,1,1,0,1.236Z" transform="translate(-174.207 -296.611)" fill="#253751"/><path d="M179.568,356.365v8.366a.634.634,0,0,0,.634.634h14.613a.634.634,0,0,0,.634-.634v-8.366a.634.634,0,0,0-.634-.634H180.2A.634.634,0,0,0,179.568,356.365Z" transform="translate(-178.953 -344.68)" fill="#5e707c"/></g><path d="M153.406,17.563V1.754A1.754,1.754,0,0,0,151.652,0h-24.89a1.754,1.754,0,0,0-1.754,1.754V17.563a1.754,1.754,0,0,0,1.754,1.754h24.89A1.754,1.754,0,0,0,153.406,17.563Z" transform="translate(-112.844 0)" fill="#e2e7ea"/><path d="M155.587,30.55H176.97v12.3H155.587Z" transform="translate(-139.915 -27.046)" fill="#d0b6fd"/><path d="M45.8,190.955a4.953,4.953,0,0,1-4.947-4.947V165.885a.618.618,0,1,1,1.236,0v20.123a3.711,3.711,0,0,0,7.421,0v-2.865a.618.618,0,1,1,1.236,0v2.865A4.953,4.953,0,0,1,45.8,190.955Z" transform="translate(-38.342 -146.312)" fill="#253751"/><path d="M101.886,273.4v5.473H98.514a1.741,1.741,0,0,1-1.741-1.741v-1.991a1.741,1.741,0,0,1,1.741-1.741h3.372Z" transform="translate(-87.847 -242.045)" fill="#ff7386"/><path d="M375.436,285.069a4.953,4.953,0,0,1-4.947-4.947v-2.866a.618.618,0,0,1,1.236,0v2.866a3.71,3.71,0,1,0,7.421,0V260a.618.618,0,0,1,1.236,0v20.123A4.953,4.953,0,0,1,375.436,285.069Z" transform="translate(-330.169 -229.631)" fill="#253751"/><path d="M356.253,367.516v5.473h3.372a1.741,1.741,0,0,0,1.741-1.741v-1.991a1.741,1.741,0,0,0-1.741-1.741h-3.372Z" transform="translate(-317.566 -325.363)" fill="#ff7386"/><path d="M25.207,129.219v3.516a1.559,1.559,0,0,1-.671,1.3,4.439,4.439,0,0,1-4.915,0,1.559,1.559,0,0,1-.671-1.3v-3.516a1.581,1.581,0,0,1,.5-1.15l1.546-1.461a1.582,1.582,0,0,1,2.173,0l1.546,1.461A1.582,1.582,0,0,1,25.207,129.219Z" transform="translate(-18.951 -111.704)" fill="#ffc57d"/><path d="M436.513,260.182v1.544a1.531,1.531,0,0,1-1.535,1.535h-1.351a1.531,1.531,0,0,1-1.535-1.535v-1.544Z" transform="translate(-384.707 -230.34)" fill="#ff9f2d"/><path d="M419.24,163.333v8.543a1.36,1.36,0,0,1-1.36,1.36h-6.842a1.36,1.36,0,0,1-1.36-1.36v-8.543a1.36,1.36,0,0,1,1.36-1.36h6.842A1.36,1.36,0,0,1,419.24,163.333Z" transform="translate(-364.863 -143.395)" fill="#ffc57d"/></svg>