<svg xmlns="http://www.w3.org/2000/svg" width="50" height="49.998" viewBox="0 0 50 49.998"><g transform="translate(-0.53 -0.529)"><g transform="translate(0.53 0.529)"><path d="M11.357,289.063A10.821,10.821,0,0,0,.53,299.889v11.657a.833.833,0,0,0,.83.836H36.343a.833.833,0,0,0,.83-.836V299.889a10.821,10.821,0,0,0-10.827-10.826Z" transform="translate(-0.53 -262.384)" fill="#ff7386"/><path d="M10.319,294.881v5h5a.833.833,0,0,0,.83-.836v-4.168Z" transform="translate(20.515 -249.887)" fill="#fdd5a6"/><path d="M6.358,294.881v5h-5a.833.833,0,0,1-.83-.836v-4.168Z" transform="translate(-0.53 -249.887)" fill="#fdd5a6"/><path d="M22.89,287.476v12.493a2.471,2.471,0,0,1-2.5,2.5H8.731v1.666H20.394a4.17,4.17,0,0,0,4.162-4.162V287.476Z" transform="translate(17.106 -265.801)" fill="#adf1ff"/><path d="M4.762,287.741v4.992a.868.868,0,0,0,.043.264,4.553,4.553,0,0,0,1.033,1.574,5.431,5.431,0,0,0,3.923,1.494,5.431,5.431,0,0,0,3.923-1.494A4.554,4.554,0,0,0,14.716,293a.838.838,0,0,0,.043-.264v-4.992Z" transform="translate(8.57 -265.235)" fill="#fdce97"/><path d="M13.171,280.6a10.011,10.011,0,0,0-10,10,17.28,17.28,0,0,0,.571,4.161H22.6a17.273,17.273,0,0,0,.573-4.161,10.013,10.013,0,0,0-10-10Z" transform="translate(5.158 -280.596)" fill="#33658a"/><path d="M7.074,285.312a2.639,2.639,0,0,0-4.163,2.013A4.136,4.136,0,0,0,7.073,291.5Z" transform="translate(4.585 -271.507)" fill="#fdce97"/><path d="M8.467,285.312a2.639,2.639,0,0,1,4.163,2.013A4.136,4.136,0,0,1,8.468,291.5Z" transform="translate(16.534 -271.507)" fill="#fdce97"/><path d="M13.087,283.507a.833.833,0,0,0-.75.571A2.781,2.781,0,0,1,9.8,286h-5a.833.833,0,0,0-.83.836v5a7.494,7.494,0,1,0,14.988,0v-5a.833.833,0,0,0-.83-.836H16.462a2.793,2.793,0,0,1-2.546-1.924A.833.833,0,0,0,13.087,283.507Z" transform="translate(6.866 -274.339)" fill="#fdd5a6"/><path d="M10.212,291.445a3.329,3.329,0,1,0,3.326,3.326,3.34,3.34,0,0,0-3.326-3.326Z" transform="translate(13.122 -257.273)" fill="#0099be"/><path d="M9.075,291.972a1.666,1.666,0,1,1-1.666,1.666A1.654,1.654,0,0,1,9.075,291.972Z" transform="translate(14.258 -256.142)" fill="#c8d4d9"/><path d="M13.085,282.183a2.518,2.518,0,0,0-2.5,2.5v5.828a9.164,9.164,0,0,0,18.328,0v-5.828a2.518,2.518,0,0,0-2.5-2.5H24.742v1.666h1.666a.819.819,0,0,1,.836.836v5.828a7.5,7.5,0,0,1-15,0v-5.828a.819.819,0,0,1,.836-.836h1.666v-1.666Z" transform="translate(21.09 -277.187)" fill="#0099be"/><g transform="translate(35.005 3.318)"><path d="M12.465,281.65a.833.833,0,0,0-.824.848v3.332a.833.833,0,0,0,1.666,0V282.5a.833.833,0,0,0-.842-.848Z" transform="translate(-11.641 -281.65)" fill="#006781"/><path d="M15.635,281.65a.833.833,0,0,0-.818.848v3.332a.833.833,0,0,0,1.666,0V282.5a.833.833,0,0,0-.848-.848Z" transform="translate(-4.82 -281.65)" fill="#006781"/></g></g></g></svg>