<svg xmlns="http://www.w3.org/2000/svg" xmlns:xlink="http://www.w3.org/1999/xlink" width="50" height="50" viewBox="0 0 50 50"><defs><clipPath id="a"><path d="M0-47.5H50v50H0Z" transform="translate(0 0)"/></clipPath></defs><g transform="translate(0 47.5)" clip-path="url(#a)"><path d="M32.829-33.092A2.632,2.632,0,0,1,30.2-30.461H19.671a2.632,2.632,0,0,1-2.632-2.632V-43.618a2.632,2.632,0,0,1,2.632-2.632H30.2a2.632,2.632,0,0,1,2.632,2.632ZM1.25-27.829V-1.513A2.632,2.632,0,0,0,3.882,1.118H45.987a2.632,2.632,0,0,0,2.632-2.632V-27.829Z" transform="translate(0.066 0.066)" fill="#ece2fe"/><path d="M24.934-31.25H3.882A2.632,2.632,0,0,0,1.25-28.618H27.566a2.632,2.632,0,0,0-2.632-2.632" transform="translate(0.066 0.855)" fill="#253751"/><path d="M44.934-31.25H23.882a2.632,2.632,0,0,0-2.632,2.632H47.566a2.632,2.632,0,0,0-2.632-2.632" transform="translate(1.118 0.855)" fill="#253751"/><path d="M45.855-13.092H3.75v-5.263H45.855Zm0-7.895H3.75V-26.25H45.855Zm0,15.789H3.75v-5.263H45.855Z" transform="translate(0.197 1.118)" fill="#0099be"/><path d="M37.566.329H11.25V-31.25H37.566Z" transform="translate(0.592 0.855)" fill="#adf1ff"/><path d="M34.8-15.592H13.75v-5.263H34.8Zm0-7.895H13.75V-28.75H34.8ZM34.8-7.7H13.75v-5.263H34.8Z" transform="translate(0.724 0.987)" fill="#0099be"/><path d="M30.658-.987H17.5V-6.25H30.658Z" transform="translate(0.921 2.171)" fill="#0099be"/><path d="M29.276-41.053H25.329V-45H22.7v3.947H18.75v2.632H22.7v3.947h2.632v-3.947h3.947Z" transform="translate(0.987 0.132)" fill="#ff7386"/><path d="M34.934-33.75H13.882a2.632,2.632,0,0,0-2.632,2.632H37.566a2.632,2.632,0,0,0-2.632-2.632" transform="translate(0.592 0.724)" fill="#253751"/></g></svg>